<svg width="22" height="22" viewBox="0 0 22 22" fill="none" xmlns="http://www.w3.org/2000/svg">
<path d="M10.1432 0.952965C10.5016 0.181232 11.5988 0.181231 11.9572 0.952964L14.4495 6.3197C14.5952 6.63345 14.8927 6.84961 15.2362 6.89123L21.1104 7.60318C21.9551 7.70556 22.2941 8.749 21.6709 9.32833L17.337 13.3571C17.0837 13.5926 16.97 13.9424 17.0366 14.2819L18.1747 20.0886C18.3384 20.9236 17.4508 21.5685 16.7072 21.1548L11.5364 18.278C11.2341 18.1098 10.8663 18.1098 10.564 18.278L5.39318 21.1548C4.64962 21.5685 3.76201 20.9236 3.92567 20.0886L5.06381 14.2819C5.13035 13.9424 5.01671 13.5926 4.76334 13.3571L0.429449 9.32834C-0.193761 8.749 0.145273 7.70556 0.989985 7.60318L6.86423 6.89123C7.20765 6.84961 7.50517 6.63345 7.65088 6.3197L10.1432 0.952965Z" fill="white"/>
</svg>
