<svg width="22" height="22" viewBox="0 0 22 22" fill="none" xmlns="http://www.w3.org/2000/svg">
<path d="M10.0866 0.952965C10.445 0.181232 11.5421 0.181231 11.9005 0.952964L14.3929 6.3197C14.5386 6.63345 14.8361 6.84961 15.1795 6.89123L21.0538 7.60318C21.8985 7.70556 22.2375 8.749 21.6143 9.32833L17.2804 13.3571C17.027 13.5926 16.9134 13.9424 16.9799 14.2819L18.1181 20.0886C18.2817 20.9236 17.3941 21.5685 16.6506 21.1548L11.4797 18.278C11.1774 18.1098 10.8097 18.1098 10.5074 18.278L5.33654 21.1548C4.59298 21.5685 3.70537 20.9236 3.86903 20.0886L5.00717 14.2819C5.07371 13.9424 4.96007 13.5926 4.7067 13.3571L0.372808 9.32834C-0.250402 8.749 0.0886327 7.70556 0.933344 7.60318L6.80759 6.89123C7.15101 6.84961 7.44853 6.63345 7.59424 6.3197L10.0866 0.952965Z" fill="#FFC000"/>
</svg>
