<svg width="22" height="22" viewBox="0 0 22 22" fill="none" xmlns="http://www.w3.org/2000/svg">
<path d="M1.31522 20.4286C1.31522 21.2978 1.90296 22 2.63043 22H9.20652V14.1429H1.31522V20.4286ZM11.837 22H18.413C19.1405 22 19.7283 21.2978 19.7283 20.4286V14.1429H11.837V22ZM19.7283 6.28571H17.9979C18.2528 5.69152 18.413 5.03348 18.413 4.32143C18.413 1.93973 16.7896 0 14.7962 0C13.0864 0 11.9808 1.04598 10.5628 3.35402C9.14487 1.04598 8.03927 0 6.32948 0C4.33611 0 2.71264 1.93973 2.71264 4.32143C2.71264 5.03348 2.86882 5.69152 3.12775 6.28571H1.31522C0.587738 6.28571 0 6.98795 0 7.85714V11.7857C0 12.2179 0.295924 12.5714 0.657609 12.5714H20.3859C20.7476 12.5714 21.0435 12.2179 21.0435 11.7857V7.85714C21.0435 6.98795 20.4557 6.28571 19.7283 6.28571ZM6.32537 6.28571C5.41705 6.28571 4.68135 5.4067 4.68135 4.32143C4.68135 3.23616 5.41705 2.35714 6.32537 2.35714C7.14327 2.35714 7.74745 2.5192 9.86413 6.28571H6.32537ZM14.7962 6.28571H11.2574C13.37 2.52902 13.9577 2.35714 14.7962 2.35714C15.7045 2.35714 16.4402 3.23616 16.4402 4.32143C16.4402 5.4067 15.7045 6.28571 14.7962 6.28571Z" fill="white"/>
</svg>
