<svg width="23" height="24" viewBox="0 0 23 24" fill="none" xmlns="http://www.w3.org/2000/svg">
<path d="M21.8878 14.7829L19.8987 13.6343C20.0994 12.551 20.0994 11.4397 19.8987 10.3564L21.8878 9.20772C22.1166 9.07698 22.2193 8.80616 22.1446 8.55401C21.6263 6.89173 20.7438 5.3882 19.5905 4.13682C19.413 3.94538 19.1236 3.89868 18.8994 4.02942L16.9103 5.17808C16.0745 4.459 15.1126 3.90335 14.0713 3.53914V1.2465C14.0713 0.985016 13.8892 0.756219 13.6324 0.700187C11.9188 0.317301 10.1631 0.335979 8.5335 0.700187C8.27668 0.756219 8.09458 0.985016 8.09458 1.2465V3.54381C7.05799 3.91269 6.0961 4.46834 5.25562 5.18275L3.27116 4.03409C3.04236 3.90335 2.75753 3.94538 2.58009 4.14149C1.42677 5.3882 0.544263 6.89173 0.0259671 8.55868C-0.0534116 8.81083 0.0539831 9.08165 0.282781 9.21239L2.27192 10.361C2.07114 11.4443 2.07114 12.5556 2.27192 13.6389L0.282781 14.7876C0.0539831 14.9183 -0.0487423 15.1891 0.0259671 15.4413C0.544263 17.1036 1.42677 18.6071 2.58009 19.8585C2.75753 20.0499 3.04703 20.0966 3.27116 19.9659L5.26029 18.8172C6.0961 19.5363 7.05799 20.0919 8.09925 20.4562V22.7535C8.09925 23.0149 8.28135 23.2437 8.53817 23.2998C10.2518 23.6827 12.0075 23.664 13.6371 23.2998C13.8939 23.2437 14.076 23.0149 14.076 22.7535V20.4562C15.1126 20.0873 16.0745 19.5316 16.915 18.8172L18.9041 19.9659C19.1329 20.0966 19.4177 20.0546 19.5952 19.8585C20.7485 18.6118 21.631 17.1082 22.1493 15.4413C22.2193 15.1845 22.1166 14.9136 21.8878 14.7829ZM11.083 15.7308C9.02378 15.7308 7.34749 14.0545 7.34749 11.9953C7.34749 9.93614 9.02378 8.25984 11.083 8.25984C13.1421 8.25984 14.8184 9.93614 14.8184 11.9953C14.8184 14.0545 13.1421 15.7308 11.083 15.7308Z" fill="#416BE5"/>
</svg>
