<svg width="224" height="48" viewBox="0 0 224 48" fill="none" xmlns="http://www.w3.org/2000/svg">
<path d="M68.2221 21.7392V28.7847H65.582V19.969H72.3049V21.7386H68.2227L68.2221 21.7392ZM73.6073 19.9684H76.0916L76.074 21.0275H76.1269C77.1336 19.7603 78.3502 19.6387 78.9756 19.6387C81.4593 19.6387 82.9879 21.4782 82.9879 24.3939C82.9879 27.1885 81.4422 29.1145 78.9232 29.1145C78.5759 29.1145 77.1336 29.0281 76.2479 27.8826V31.9955H73.6073V19.9684ZM76.1263 24.3592C76.1263 25.8867 76.6476 27.3448 78.1933 27.3448C79.7049 27.3448 80.2433 25.8867 80.2433 24.3592C80.2433 21.8949 78.9756 21.4089 78.1933 21.4089C77.394 21.4089 76.1263 21.8949 76.1263 24.3592ZM87.4175 22.8147H84.8992C85.0208 19.7427 88.0952 19.6387 89.0508 19.6387C93.0291 19.6387 93.1155 21.9126 93.0984 22.9358L93.0461 26.9628C93.0285 27.9173 93.0638 28.5073 93.5674 28.629V28.7847H90.7875L90.5618 27.9173H90.5101C89.8149 28.7847 88.6341 29.1145 87.5568 29.1145C84.7428 29.1145 84.4819 27.2925 84.4819 26.5638C84.4819 24.5502 86.1669 24.0642 87.7655 23.8038C89.7108 23.5088 90.4055 23.6828 90.4578 22.8147V22.572C90.4226 21.4259 89.3288 21.4089 89.0332 21.4089C88.5642 21.4089 87.4175 21.5129 87.4175 22.8147ZM90.4755 25.1403V24.5849C89.6762 24.9317 89.7631 24.8799 88.7382 25.0539C88.1822 25.1403 87.1925 25.3313 87.1925 26.3204C87.1925 27.1538 88.0605 27.3443 88.5471 27.3443C89.1895 27.3443 90.4749 26.9105 90.4749 25.1403H90.4755ZM97.9101 25.0539V28.7847H95.2695V19.969H97.9101V23.2837H101.09V19.969H103.73V28.7847H101.089V25.0539H97.9101ZM108.003 21.7392H105.084V19.9684H113.562V21.7386H110.644V28.7853H108.003V21.7386V21.7392ZM115.177 25.2273V23.058H120.198V25.2267H115.177V25.2273ZM125.357 25.0539V28.7847H122.717V19.969H125.357V23.2837H128.536V19.969H131.177V28.7847H128.536V25.0539H125.357ZM136.058 22.8147H133.539C133.66 19.7427 136.735 19.6387 137.691 19.6387C141.669 19.6387 141.756 21.9126 141.739 22.9358L141.686 26.9628C141.669 27.9173 141.704 28.5073 142.208 28.629V28.7847H139.428L139.202 27.9173H139.15C138.455 28.7847 137.274 29.1145 136.197 29.1145C133.382 29.1145 133.122 27.2925 133.122 26.5638C133.122 24.5502 134.807 24.0642 136.405 23.8038C138.35 23.5088 139.046 23.6828 139.098 22.8147V22.572C139.063 21.4259 137.969 21.4089 137.673 21.4089C137.204 21.4089 136.058 21.5129 136.058 22.8147ZM139.115 25.1403V24.5849C138.316 24.9317 138.403 24.8799 137.378 25.0539C136.822 25.1403 135.833 25.3313 135.833 26.3204C135.833 27.1538 136.701 27.3443 137.187 27.3443C137.83 27.3443 139.115 26.9105 139.115 25.1403ZM144.222 25.2273V23.058H149.243V25.2267H144.222V25.2273ZM151.762 19.9684H157.025C157.842 19.9684 159.926 19.9684 159.926 22.103C159.926 23.3007 159.093 24.0125 158.137 24.1688V24.2205C159.596 24.5332 160.239 25.1403 160.239 26.5291C160.239 28.3334 158.919 28.7847 157.008 28.7847H151.762V19.969V19.9684ZM154.402 21.7386V23.4224H155.775C156.209 23.4224 157.216 23.4048 157.216 22.6067C157.216 21.8779 156.574 21.7386 155.827 21.7386H154.402ZM154.402 25.071V27.0145H156.053C157.355 27.0145 157.529 26.4944 157.529 26.1124C157.529 25.5223 157.269 25.071 156.018 25.071H154.402ZM162.514 31.9955V30.2258C162.775 30.3305 163.053 30.3475 163.366 30.3475C164.252 30.3475 164.495 29.7051 164.651 29.115L164.773 28.6813L160.934 19.969H164.113L166.162 25.7139L167.743 19.969H170.557L167.483 29.2543C167.101 30.4345 166.666 32.1524 164.373 32.1524C163.661 32.1524 162.966 32.083 162.514 31.996V31.9955ZM170.94 25.8344H173.441C173.494 26.4421 173.789 27.3448 175.283 27.3448C176.134 27.3448 177.107 27.0845 177.107 26.2164C177.107 25.6787 176.881 25.071 175.526 25.071H174.501V23.4224H175.595C176.325 23.4224 176.933 23.162 176.933 22.485C176.933 21.6522 176.082 21.4095 175.23 21.4095C174.779 21.4095 173.685 21.5305 173.649 22.7977H171.218C171.183 19.9167 173.945 19.6387 175.439 19.6387C176.881 19.6387 179.643 19.795 179.643 22.19C179.643 23.2314 179.07 23.8215 177.94 24.1165V24.1688C179.383 24.4462 179.817 25.3313 179.817 26.3375C179.817 28.455 178.01 29.1145 175.387 29.1145C172.92 29.1145 171.044 28.2817 170.94 25.835V25.8344Z" fill="white"/>
<path d="M182.284 28.7846V26.0429H185.15V28.7846H182.284ZM188.155 19.9688H190.639L190.622 21.0267H190.674C191.681 19.7602 192.897 19.6385 193.523 19.6385C196.007 19.6385 197.536 21.4781 197.536 24.3938C197.536 27.1884 195.99 29.1143 193.471 29.1143C193.124 29.1143 191.681 29.0279 190.796 27.8825V31.9953H188.155V19.9683V19.9688ZM190.674 24.3591C190.674 25.8866 191.195 27.3447 192.741 27.3447C194.253 27.3447 194.791 25.8866 194.791 24.3591C194.791 21.8948 193.523 21.4088 192.741 21.4088C191.942 21.4088 190.674 21.8948 190.674 24.3591ZM204.38 31.9953V29.0273C199.255 28.9063 198.856 25.7479 198.856 24.3074C198.856 20.211 202.521 19.7255 204.38 19.7602V16.6365H207.02V19.7602C211.849 19.7079 212.545 22.7105 212.545 24.3244C212.545 26.442 211.537 28.941 207.02 29.0279V31.9959H204.38L204.38 31.9953ZM204.467 27.2577V21.5304H204.119C202.695 21.5304 201.601 22.4678 201.601 24.238C201.601 26.8416 203.459 27.2924 204.467 27.2577ZM206.934 21.5304V27.2577C208.323 27.3094 209.8 26.5113 209.8 24.2551C209.8 22.3808 208.757 21.5128 206.934 21.5304Z" fill="#FFC000"/>
<path fill-rule="evenodd" clip-rule="evenodd" d="M12.4077 16.8109C15.7842 14.7716 21.1324 12.1227 28.1456 10.8832C31.996 10.2039 35.9177 10.0228 39.8142 10.3443L42.8081 25.4328C42.8081 25.4328 36.9802 29.2647 32.8286 31.2071C29.93 32.5624 25.4939 34.0969 19.2405 34.3632L12.4077 16.8109ZM12.4077 8.56408C16.4959 7.33398 22.5952 6.06627 29.9435 6.59404C33.1483 6.82512 36.3218 7.3772 39.4163 8.24201L39.7061 9.1324C34.7955 8.19805 29.7624 8.09989 24.8192 8.84207C20.9951 9.41926 17.2637 10.4976 13.7213 12.0492L12.4077 8.56408ZM13.1576 1.41565C17.2958 0.885531 23.4933 0.602251 30.7128 2.21848C34.9736 3.17381 39.0926 4.67759 42.9667 6.69219L45.7702 22.828L43.8495 24.3573L40.6229 7.64841C37.1987 6.01441 33.567 4.85645 29.8289 4.20673C23.2505 3.06656 17.7178 3.74596 14.195 4.47473L13.1576 1.41565ZM24.1956 42.5301C28.3276 41.3955 32.3711 39.9604 36.2938 38.2362C39.6904 36.7431 42.9886 35.0357 46.1686 33.1243L47.1507 36.7023C44.468 38.8702 41.6154 40.819 38.6206 42.5301C34.6707 44.7854 30.4945 46.6188 26.1609 48L24.1956 42.5301ZM47.7713 31.7643L49.0537 30.6447L49.6326 34.4308L48.1851 35.6033L47.7713 31.7643Z" fill="white"/>
<path fill-rule="evenodd" clip-rule="evenodd" d="M6.2814 35.0049C4.74452 31.8365 6.63462 27.4486 10.9191 22.9391L10.7651 22.5864C2.76273 28.6723 -1.5047 35.049 0.485318 39.153C3.46681 45.3018 19.3628 44.0194 35.9912 36.2897C43.3024 32.8909 49.5369 28.811 53.9754 24.7839C50.2169 27.7519 45.5475 30.6229 40.2645 33.0784C24.5277 40.3943 9.31285 41.2571 6.2814 35.0055" fill="#FFC000"/>
<path fill-rule="evenodd" clip-rule="evenodd" d="M59.1227 10.4159C57.577 7.34562 52.2246 6.60274 45.3142 7.98153L45.4259 8.59981C49.4182 8.54162 52.3233 9.53252 53.3883 11.6465C55.8814 16.5969 47.3442 25.8253 34.3197 32.259C30.6782 34.0574 27.0726 35.4468 23.7114 36.4083C28.5248 35.7536 34.3286 33.9305 40.2193 31.0207C53.1691 24.624 61.6328 15.3991 59.1227 10.4159Z" fill="#FFC000"/>
</svg>
