<svg width="22" height="20" viewBox="0 0 22 20" fill="none" xmlns="http://www.w3.org/2000/svg">
<path d="M22 3.83192C22 5.44614 18.3047 6.75856 13.75 6.75856C9.19531 6.75856 5.5 5.44614 5.5 3.83192C5.5 2.21769 9.19531 0.905273 13.75 0.905273C18.3047 0.905273 22 2.21769 22 3.83192Z" fill="#FFC000"/>
<path d="M0 17.0018V14.6422C1.77461 16.197 5.02305 17.0018 8.25 17.0018C11.477 17.0018 14.7254 16.197 16.5 14.6422V17.0018C16.5 18.616 12.8047 19.9285 8.25 19.9285C3.69531 19.9285 0 18.616 0 17.0018Z" fill="#FFC000"/>
<path d="M0 11.8802C0 9.85897 3.69531 8.22188 8.25 8.22188C12.8047 8.22188 16.5 9.85897 16.5 11.8802C16.5 13.9014 12.8047 15.5385 8.25 15.5385C3.69531 15.5385 0 13.9014 0 11.8802Z" fill="#FFC000"/>
<path d="M22 8.22188C22 9.33309 20.2512 10.3025 17.673 10.7964C17.2949 9.71264 16.3625 8.83465 15.0949 8.18073C17.8535 8.03439 20.4746 7.41706 22 6.26926V8.22188Z" fill="#FFC000"/>
</svg>
