<svg width="22" height="28" viewBox="0 0 22 28" fill="none" xmlns="http://www.w3.org/2000/svg">
<path d="M0 18.5339V20.4865C0 22.1007 3.69531 23.4131 8.25 23.4131C12.8047 23.4131 16.5 22.1007 16.5 20.4865V18.5339C14.7254 19.8646 11.4812 20.4865 8.25 20.4865C5.01875 20.4865 1.77461 19.8646 0 18.5339ZM13.75 5.85329C18.3047 5.85329 22 4.54087 22 2.92664C22 1.31242 18.3047 0 13.75 0C9.19531 0 5.5 1.31242 5.5 2.92664C5.5 4.54087 9.19531 5.85329 13.75 5.85329ZM0 13.7369V16.0965C0 17.7108 3.69531 19.0232 8.25 19.0232C12.8047 19.0232 16.5 17.7108 16.5 16.0965V13.7369C14.7254 15.2917 11.477 16.0965 8.25 16.0965C5.02305 16.0965 1.77461 15.2917 0 13.7369ZM17.875 14.2399C20.3371 13.7324 22 12.7903 22 11.7066V9.75395C21.0031 10.5039 19.5379 11.0161 17.875 11.3316V14.2399ZM8.25 7.31661C3.69531 7.31661 0 8.9537 0 10.9749C0 12.9961 3.69531 14.6332 8.25 14.6332C12.8047 14.6332 16.5 12.9961 16.5 10.9749C16.5 8.9537 12.8047 7.31661 8.25 7.31661ZM17.673 9.89114C20.2512 9.39727 22 8.42782 22 7.31661V5.36399C20.4746 6.51178 17.8535 7.12912 15.0949 7.27545C16.3625 7.92937 17.2949 8.80737 17.673 9.89114Z" fill="#FFC000"/>
<path d="M0 22.6286V24.5812C0 26.1954 3.69531 27.5078 8.25 27.5078C12.8047 27.5078 16.5 26.1954 16.5 24.5812V22.6286C14.7254 23.9593 11.4812 24.5812 8.25 24.5812C5.01875 24.5812 1.77461 23.9593 0 22.6286ZM17.875 18.3346C20.3371 17.827 22 16.885 22 15.8013V13.8486C21.0031 14.5986 19.5379 15.1107 17.875 15.4263V18.3346Z" fill="#FFC000"/>
</svg>
