<svg width="11" height="19" viewBox="0 0 11 19" fill="none" xmlns="http://www.w3.org/2000/svg">
<path d="M10.5 7.83007H6.36188L9.93416 0.832785C10.0226 0.66043 10.022 0.448936 9.93273 0.27716C9.84288 0.10553 9.6783 0 9.50004 0H3.50002C3.28479 0 3.09377 0.153366 3.02593 0.380516L0.0259192 10.4371C-0.0253831 10.6067 0.000528465 10.7937 0.0942788 10.9388C0.18855 11.0841 0.339462 11.1699 0.500009 11.1699H4.74182L2.04064 18.2243C1.94389 18.4749 2.02501 18.7669 2.23205 18.913C2.43569 19.058 2.70926 19.0198 2.87359 18.8131L10.8736 8.7565C11.0045 8.59284 11.0368 8.35844 10.9562 8.15898C10.8756 7.95894 10.6969 7.83007 10.5 7.83007Z" fill="#BDBDBD"/>
</svg>
