<svg width="32" height="32" viewBox="0 0 32 32" fill="none" xmlns="http://www.w3.org/2000/svg">
<path d="M13.8906 16.7031H18.1094V18.1094H13.8906V16.7031Z" fill="#4F4F4F"/>
<path d="M23.4709 18.1097H19.5156V18.8128C19.5156 19.2014 19.201 19.5159 18.8125 19.5159H13.1875C12.799 19.5159 12.4844 19.2014 12.4844 18.8128V18.1097H8.52911C7.62 18.1097 6.81598 17.5302 6.52814 16.6677L4 9.08203V24.4378C4 25.6009 4.94629 26.5472 6.10938 26.5472H25.8906C27.0537 26.5472 28 25.6009 28 24.4378V9.08258L25.4717 16.6677C25.184 17.5302 24.38 18.1097 23.4709 18.1097Z" fill="#4F4F4F"/>
<path d="M18.8127 5.45312H13.1877C12.0246 5.45312 11.0783 6.39941 11.0783 7.5625V8.26562H5.20996L7.86188 16.2225C7.95801 16.5101 8.22644 16.7031 8.5293 16.7031H12.4846V16C12.4846 15.6115 12.7991 15.2969 13.1877 15.2969H18.8127C19.2012 15.2969 19.5158 15.6115 19.5158 16V16.7031H23.4711C23.7739 16.7031 24.0424 16.5101 24.1385 16.2225L26.7906 8.26562H20.9221V7.5625C20.9221 6.39941 19.9758 5.45312 18.8127 5.45312ZM12.4846 8.26562V7.5625C12.4846 7.1745 12.7997 6.85938 13.1877 6.85938H18.8127C19.2007 6.85938 19.5158 7.1745 19.5158 7.5625V8.26562H12.4846Z" fill="#4F4F4F"/>
</svg>
