<svg width="360" height="709" viewBox="0 0 360 709" fill="none" xmlns="http://www.w3.org/2000/svg">
<path fill-rule="evenodd" clip-rule="evenodd" d="M320.658 671.851C320.526 670.2 321.758 668.754 323.41 668.623L341.461 667.186C343.112 667.055 344.558 668.287 344.689 669.939C344.821 671.59 343.589 673.036 341.937 673.167L323.886 674.604C322.234 674.736 320.789 673.503 320.658 671.851Z" fill="#6966E0"/>
<path fill-rule="evenodd" clip-rule="evenodd" d="M331.717 658.879C330.065 659.011 328.833 660.456 328.964 662.108L330.401 680.159C330.533 681.81 331.978 683.043 333.63 682.911C335.281 682.78 336.514 681.334 336.382 679.683L334.946 661.632C334.814 659.98 333.369 658.748 331.717 658.879Z" fill="#6966E0"/>
<path fill-rule="evenodd" clip-rule="evenodd" d="M0.412976 664.467C0.281513 662.816 1.51383 661.37 3.16542 661.239L21.2162 659.802C22.8678 659.67 24.3133 660.903 24.4447 662.554C24.5762 664.206 23.3439 665.652 21.6923 665.783L3.64149 667.22C1.9899 667.351 0.54444 666.119 0.412976 664.467Z" fill="#6966E0"/>
<path fill-rule="evenodd" clip-rule="evenodd" d="M11.4723 651.495C9.82071 651.627 8.58837 653.072 8.71982 654.724L10.1566 672.775C10.2881 674.427 11.7335 675.659 13.3852 675.527C15.0368 675.396 16.2691 673.95 16.1377 672.299L14.7009 654.248C14.5694 652.596 13.124 651.364 11.4723 651.495Z" fill="#6966E0"/>
<path fill-rule="evenodd" clip-rule="evenodd" d="M206.197 690.684C207.474 691.739 207.653 693.63 206.597 694.907L197.597 705.794C196.541 707.071 194.65 707.251 193.373 706.195L182.487 697.195C181.21 696.139 181.03 694.248 182.086 692.971L191.086 682.084C192.142 680.807 194.033 680.628 195.31 681.684L206.197 690.684ZM200.061 693.397L193.799 688.219L188.622 694.482L194.884 699.659L200.061 693.397Z" fill="#F04B17"/>
<path fill-rule="evenodd" clip-rule="evenodd" d="M296.68 447.086C298.225 446.486 299.963 447.252 300.563 448.796L305.678 461.963C306.278 463.508 305.512 465.246 303.968 465.846L290.801 470.961C289.256 471.561 287.518 470.795 286.918 469.251L281.803 456.084C281.203 454.539 281.969 452.801 283.513 452.201L296.68 447.086ZM296.056 453.765L288.482 456.708L291.425 464.282L298.999 461.339L296.056 453.765Z" fill="#F04B17"/>
<path fill-rule="evenodd" clip-rule="evenodd" d="M377.752 555.9C377.032 556.694 375.943 557.043 374.896 556.817L357.645 553.082C356.598 552.856 355.751 552.087 355.423 551.067C355.096 550.046 355.338 548.928 356.058 548.134L367.917 535.062C368.638 534.269 369.727 533.919 370.774 534.146C371.822 534.373 372.669 535.141 372.996 536.162L378.387 552.968C378.714 553.989 378.473 555.106 377.752 555.9ZM368.87 542.942L363.993 548.318L371.087 549.853L368.87 542.942Z" fill="#416BE5"/>
<path fill-rule="evenodd" clip-rule="evenodd" d="M41.0924 506.185C40.069 505.866 39.2931 505.026 39.0571 503.981L35.1704 486.764C34.9344 485.718 35.274 484.626 36.0614 483.899C36.8488 483.172 37.9644 482.92 38.9878 483.239L55.8413 488.481C56.8647 488.799 57.6406 489.639 57.8766 490.685C58.1126 491.73 57.773 492.822 56.9856 493.55L44.0188 505.524C43.2314 506.251 42.1158 506.503 41.0924 506.185ZM49.0975 492.667L42.1673 490.511L43.7656 497.591L49.0975 492.667Z" fill="#416BE5"/>
<path fill-rule="evenodd" clip-rule="evenodd" d="M199.712 453.76C200.38 454.361 200.743 455.23 200.701 456.128L200.156 467.904C200.079 469.559 198.676 470.839 197.02 470.762C195.365 470.685 194.086 469.282 194.162 467.626L194.538 459.503L186.497 460.72C184.859 460.968 183.33 459.841 183.082 458.203C182.834 456.565 183.961 455.036 185.599 454.788L197.255 453.023C198.143 452.888 199.045 453.159 199.712 453.76Z" fill="#416BE5"/>
<path fill-rule="evenodd" clip-rule="evenodd" d="M276.756 665.132C277.423 665.733 277.786 666.602 277.745 667.499L277.199 679.276C277.123 680.931 275.719 682.21 274.064 682.134C272.409 682.057 271.129 680.653 271.206 678.998L271.582 670.874L263.541 672.092C261.903 672.34 260.374 671.213 260.126 669.575C259.878 667.937 261.004 666.408 262.643 666.16L274.299 664.395C275.187 664.26 276.089 664.531 276.756 665.132Z" fill="#416BE5"/>
<path fill-rule="evenodd" clip-rule="evenodd" d="M102.417 694.001C102.375 694.898 101.933 695.729 101.213 696.266L91.7582 703.308C90.4295 704.298 88.5499 704.023 87.5602 702.694C86.5705 701.366 86.8453 699.486 88.1741 698.496L94.6962 693.638L88.658 688.19C87.4278 687.081 87.3303 685.184 88.4402 683.953C89.5501 682.723 91.4471 682.626 92.6773 683.736L101.43 691.633C102.097 692.235 102.459 693.104 102.417 694.001Z" fill="#416BE5"/>
<path d="M-10.6365 229.388L-10.9999 121.767C-11.0181 116.393 -6.64886 111.995 -1.27488 111.976L335.923 110C341.297 109.982 345.696 114.351 345.714 119.725L345.715 119.867C345.733 125.24 341.364 129.639 335.99 129.657L321.141 129.708C315.767 129.726 311.397 134.125 311.415 139.499C311.434 144.873 315.833 149.242 321.206 149.224L387.391 149C392.765 148.982 397.164 153.351 397.182 158.725L397.183 158.867C397.201 164.241 392.832 168.639 387.458 168.658L340.435 168.746C335.061 168.764 330.692 173.163 330.71 178.537C330.728 183.911 335.127 188.28 340.501 188.262L348.845 188.234C354.219 188.215 358.618 192.585 358.636 197.959L358.636 198.1C358.654 203.474 354.285 207.873 348.911 207.891L340.567 207.919C335.193 207.937 330.824 212.336 330.842 217.71C330.861 223.084 335.259 227.453 340.633 227.435L375.706 227.317C381.08 227.299 385.478 231.668 385.497 237.042L385.497 237.183C385.515 242.557 381.146 246.956 375.772 246.974L-0.883027 248.942C-6.25701 248.961 -10.6558 244.591 -10.674 239.217L-10.6365 229.388Z" fill="#FFE69B"/>
<g opacity="0.3">
<path d="M386.915 3.10078C386.909 1.40372 385.49 -0.00571398 383.793 1.74185e-05L-29.2252 1.46558C-30.9223 1.47131 -32.3317 2.89028 -32.326 4.58733C-32.3202 6.28438 -30.9012 7.6938 -29.2042 7.68807L383.885 6.29297C385.582 6.14583 386.921 4.79784 386.915 3.10078Z" fill="#FFC000"/>
<path d="M286.312 29.6036C286.306 27.9065 284.887 26.4971 283.19 26.5028L-129.899 27.898C-131.596 27.9037 -133.006 29.3227 -133 31.0197C-132.994 32.7168 -131.575 34.1262 -129.878 34.1205L283.211 32.7254C284.908 32.7197 286.318 31.3007 286.312 29.6036Z" fill="#FFC000"/>
<path d="M325.722 15.894C325.717 14.1969 324.298 12.7875 322.601 12.7932L-90.4178 14.2588C-92.1149 14.2646 -93.5243 15.6835 -93.5185 17.3806C-93.5128 19.0776 -92.0938 20.4871 -90.3968 20.4813L322.693 19.0862C324.319 19.01 325.728 17.591 325.722 15.894Z" fill="#FFC000"/>
</g>
</svg>
