<svg width="300" height="240" viewBox="0 0 300 240" fill="none" xmlns="http://www.w3.org/2000/svg">
<path d="M274.234 111.571C272.389 108.917 269.968 106.871 265.32 102.622C253.393 91.6967 250.537 92.1129 249.162 88.0549C246.533 80.3377 256.005 76.2276 257.868 63.4291C259.696 50.8735 252.714 40.2255 249.51 35.335C247.682 32.5429 239.359 20.4555 218.553 12.166C172.5 -6.1819 86.6977 2.69724 55.2879 41.6822C50.256 47.9253 39.8963 60.7932 40.0008 78.5167C40.053 85.5229 40.9062 92.5118 44.0228 98.8763C51.144 113.409 67.1449 119.045 64.5158 137.757C63.593 144.365 61.051 150.608 59.1009 156.99C56.0714 166.944 54.7829 178.372 62.5832 186.506C69.5825 193.789 80.3252 194.691 89.8317 193.633C130.922 189.038 172.222 186.436 213.486 183.818C221.496 183.315 229.505 182.812 237.496 182.309C240.126 182.136 243.068 182.084 245.001 183.87C246.933 185.656 246.167 189.853 243.538 189.749C254.124 192.437 263.944 183.332 269.829 174.158C276.985 163.025 282.052 150.174 282 136.959C282 127.994 279.353 118.872 274.234 111.571Z" fill="url(#paint0_linear)"/>
<path d="M77.6258 213.346C78.7752 214.035 79.9599 214.652 81.1623 215.199C81.1093 215.023 81.0916 214.829 81.0916 214.635V199.915C81.0916 198.609 82.1525 197.55 83.461 197.55H138.86C140.169 197.55 141.229 198.609 141.229 199.915V213.752C143.546 212.834 145.845 211.828 148.073 210.734C155.888 206.869 163.509 201.662 171.944 199.156C172.262 198.221 173.146 197.55 174.19 197.55H229.589C230.101 197.55 230.579 197.726 230.985 197.991C235.247 196.915 239.402 195.485 243.416 193.685H66.0615C66.5389 201.998 69.8986 208.634 77.6258 213.346Z" fill="#939598"/>
<path d="M95.4145 219.082C107.332 220.812 119.604 220.053 131.257 217H85.9014C88.9958 217.97 92.214 218.623 95.4145 219.082Z" fill="#939598"/>
<path d="M85.9013 217H131.239C134.634 216.1 137.976 215.023 141.247 213.734V199.897C141.247 198.591 140.186 197.532 138.878 197.532H83.4788C82.1703 197.532 81.1094 198.591 81.1094 199.897V214.617C81.1094 214.811 81.1447 215.005 81.1801 215.182L85.9013 217ZM137.622 211.087C137.622 212.393 136.561 213.452 135.253 213.452H87.1037C85.7952 213.452 84.7343 212.393 84.7343 211.087V203.462C84.7343 202.156 85.7952 201.097 87.1037 201.097H135.235C136.544 201.097 137.605 202.156 137.605 203.462V211.087H137.622Z" fill="#808285"/>
<path d="M135.235 201.08H87.1038C85.7953 201.08 84.7344 202.139 84.7344 203.445V211.069C84.7344 212.375 85.7953 213.434 87.1038 213.434H135.235C136.544 213.434 137.605 212.375 137.605 211.069V203.445C137.622 202.139 136.544 201.08 135.235 201.08Z" fill="#A7A9AC"/>
<path d="M126.323 209.94H96.0332C95.3436 209.94 94.7954 209.393 94.7954 208.704V206.322C94.7954 205.633 95.3436 205.086 96.0332 205.086C96.7228 205.086 97.2709 205.633 97.2709 206.322V207.469H125.085V206.322C125.085 205.633 125.634 205.086 126.323 205.086C127.013 205.086 127.561 205.633 127.561 206.322V208.704C127.561 209.375 127.013 209.94 126.323 209.94Z" fill="#6D6E71"/>
<path d="M174.225 197.532C173.182 197.532 172.298 198.203 171.979 199.138C174.101 198.503 176.276 198.044 178.522 197.832C189.574 196.738 200.643 200.25 211.694 200.321C218.201 200.374 224.708 199.58 231.021 197.991C230.632 197.709 230.155 197.55 229.624 197.55H174.225V197.532Z" fill="#808285"/>
<path d="M268.826 182.018H57.3443H56.637C53.4188 182.018 50.8018 184.631 50.8018 187.843C50.8018 191.055 53.4188 193.667 56.637 193.667H56.8138H57.2205H264.653H268.667H268.844C271.956 193.667 274.502 191.231 274.679 188.178C274.679 188.072 274.697 187.949 274.697 187.843C274.679 184.631 272.062 182.018 268.826 182.018Z" fill="#58595B"/>
<path d="M19.8927 160.539C30.8792 160.539 39.7855 151.649 39.7855 140.684C39.7855 129.718 30.8792 120.828 19.8927 120.828C8.90628 120.828 0 129.718 0 140.684C0 151.649 8.90628 160.539 19.8927 160.539Z" fill="#6966E0"/>
<path d="M282.848 89.8532C292.311 89.8532 299.982 82.1962 299.982 72.7509C299.982 63.3056 292.311 55.6486 282.848 55.6486C273.385 55.6486 265.714 63.3056 265.714 72.7509C265.714 82.1962 273.385 89.8532 282.848 89.8532Z" fill="#FFC000"/>
<path d="M275.987 42.9763C279.903 42.9763 283.078 39.8076 283.078 35.8989C283.078 31.9901 279.903 28.8215 275.987 28.8215C272.071 28.8215 268.896 31.9901 268.896 35.8989C268.896 39.8076 272.071 42.9763 275.987 42.9763Z" fill="#FFC000"/>
<path d="M69.4937 101.512C70.4853 100.888 70.7826 99.5804 70.1579 98.5907C69.5331 97.6011 68.2229 97.3043 67.2314 97.9278C66.2398 98.5514 65.9425 99.8592 66.5672 100.849C67.1919 101.839 68.5022 102.135 69.4937 101.512Z" fill="white"/>
<path d="M92.516 67.0278C92.9043 66.7836 93.0208 66.2714 92.7761 65.8837C92.5314 65.4961 92.0183 65.3799 91.6299 65.6241C91.2416 65.8683 91.1251 66.3805 91.3698 66.7682C91.6145 67.1558 92.1277 67.272 92.516 67.0278Z" fill="white"/>
<path d="M135.244 60.8135C135.947 60.3718 136.157 59.4454 135.715 58.7444C135.272 58.0434 134.344 57.8331 133.642 58.2748C132.939 58.7165 132.729 59.6429 133.171 60.3439C133.614 61.0449 134.542 61.2552 135.244 60.8135Z" fill="white"/>
<path d="M77.2104 65.9204C78.6564 65.0111 79.0901 63.1038 78.179 61.6605C77.2679 60.2173 75.3572 59.7844 73.9112 60.6938C72.4652 61.6032 72.0315 63.5104 72.9426 64.9537C73.8537 66.397 75.7645 66.8298 77.2104 65.9204Z" fill="white"/>
<path d="M154.626 58.2931C156.072 57.3837 156.506 55.4765 155.595 54.0332C154.684 52.5899 152.773 52.1571 151.327 53.0665C149.881 53.9758 149.448 55.883 150.359 57.3263C151.27 58.7696 153.18 59.2024 154.626 58.2931Z" fill="white"/>
<path d="M116.651 58.4195C116.421 58.649 116.05 58.6666 115.802 58.4372L114.706 57.4135C114.476 57.1841 114.458 56.8134 114.688 56.5664C114.918 56.3369 115.289 56.3193 115.537 56.5487L116.633 57.5724C116.863 57.8018 116.881 58.1724 116.651 58.4195Z" fill="white"/>
<path d="M119.639 61.2258C119.409 61.4552 119.038 61.4729 118.791 61.2434L117.694 60.2198C117.464 59.9903 117.447 59.6197 117.677 59.3726C117.906 59.1432 118.278 59.1255 118.525 59.3549L119.622 60.3786C119.851 60.6257 119.869 60.9963 119.639 61.2258Z" fill="white"/>
<path d="M119.533 57.2724L118.508 58.3666C118.278 58.6137 117.907 58.6137 117.659 58.3843C117.429 58.1548 117.411 57.7842 117.641 57.5371L118.667 56.4428C118.897 56.2134 119.268 56.1958 119.516 56.4252C119.746 56.6546 119.763 57.0253 119.533 57.2724Z" fill="white"/>
<path d="M116.704 60.2551L115.679 61.3494C115.449 61.5788 115.078 61.5965 114.83 61.367C114.6 61.1376 114.582 60.7669 114.812 60.5198L115.838 59.4256C116.068 59.1961 116.439 59.1785 116.687 59.4079C116.917 59.6374 116.934 60.008 116.704 60.2551Z" fill="white"/>
<path d="M169.858 55.3838C169.628 55.6133 169.256 55.6309 169.009 55.4015L167.912 54.3778C167.683 54.1484 167.665 53.7777 167.895 53.5306C168.125 53.3012 168.496 53.2836 168.744 53.513L169.84 54.5367C170.07 54.7661 170.087 55.1368 169.858 55.3838Z" fill="white"/>
<path d="M172.846 58.1901C172.616 58.4195 172.245 58.4372 171.997 58.2077L170.901 57.1841C170.671 56.9546 170.653 56.584 170.883 56.3369C171.113 56.1075 171.484 56.0898 171.732 56.3193L172.828 57.3429C173.058 57.59 173.076 57.9607 172.846 58.1901Z" fill="white"/>
<path d="M172.739 54.2366L171.714 55.3309C171.484 55.5603 171.113 55.578 170.865 55.3485C170.635 55.1191 170.618 54.7485 170.847 54.5014L171.873 53.4071C172.103 53.1777 172.474 53.16 172.722 53.3895C172.952 53.6189 172.952 53.9895 172.739 54.2366Z" fill="white"/>
<path d="M169.91 57.2194L168.885 58.3136C168.655 58.5431 168.284 58.5607 168.036 58.3313C167.806 58.1019 167.788 57.7312 168.018 57.4841L169.044 56.3899C169.274 56.1428 169.645 56.1428 169.893 56.3722C170.123 56.6017 170.14 56.9723 169.91 57.2194Z" fill="white"/>
<path d="M63.8514 84.3289C63.427 84.3995 63.038 84.1171 62.9673 83.6935L62.649 81.7521C62.5783 81.3285 62.8612 80.9402 63.2856 80.8696C63.71 80.799 64.099 81.0814 64.1697 81.505L64.488 83.4464C64.5587 83.8524 64.2758 84.2583 63.8514 84.3289Z" fill="white"/>
<path d="M64.7 89.606C64.2757 89.6766 63.8867 89.3942 63.8159 88.9706L63.4976 87.0292C63.4269 86.6056 63.7098 86.2173 64.1342 86.1467C64.5586 86.0761 64.9476 86.3585 65.0183 86.7821L65.3366 88.7236C65.4073 89.1471 65.1244 89.5354 64.7 89.606Z" fill="white"/>
<path d="M67.7414 85.4232L65.7963 85.7408C65.3719 85.8114 64.9829 85.5291 64.9122 85.1055C64.8415 84.6819 65.1244 84.2936 65.5488 84.223L67.4938 83.9053C67.9182 83.8347 68.3072 84.1171 68.378 84.5407C68.4487 84.9466 68.1658 85.3526 67.7414 85.4232Z" fill="white"/>
<path d="M62.4367 86.2703L60.4916 86.588C60.0673 86.6586 59.6782 86.3762 59.6075 85.9526C59.5368 85.529 59.8197 85.1408 60.2441 85.0702L62.1891 84.7525C62.6135 84.6819 63.0025 84.9643 63.0733 85.3879C63.1617 85.7938 62.8611 86.1997 62.4367 86.2703Z" fill="white"/>
<path d="M135.253 43.0293C134.722 43.1175 134.227 42.7469 134.139 42.2174L133.75 39.7818C133.661 39.2523 134.033 38.7581 134.563 38.6699C135.094 38.5816 135.589 38.9523 135.677 39.4817L136.066 41.9174C136.137 42.4468 135.783 42.941 135.253 43.0293Z" fill="white"/>
<path d="M136.314 49.6654C135.783 49.7537 135.288 49.3831 135.2 48.8536L134.811 46.4179C134.722 45.8885 135.094 45.3943 135.624 45.306C136.155 45.2178 136.65 45.5884 136.738 46.1179L137.127 48.5535C137.198 49.0654 136.844 49.5772 136.314 49.6654Z" fill="white"/>
<path d="M140.116 44.4059L137.675 44.7942C137.145 44.8825 136.65 44.5118 136.561 43.9823C136.473 43.4528 136.844 42.9587 137.375 42.8704L139.815 42.4821C140.345 42.3939 140.841 42.7645 140.929 43.294C141.017 43.8235 140.646 44.3177 140.116 44.4059Z" fill="white"/>
<path d="M133.467 45.4649L131.027 45.8531C130.496 45.9414 130.001 45.5708 129.913 45.0413C129.825 44.5118 130.196 44.0176 130.726 43.9294L133.166 43.5411C133.697 43.4528 134.192 43.8235 134.281 44.353C134.369 44.8824 133.998 45.3766 133.467 45.4649Z" fill="white"/>
<path d="M95.7505 45.6414C95.3968 46.0473 94.7779 46.065 94.3713 45.712L92.55 44.0529C92.1433 43.6999 92.1256 43.0822 92.4792 42.6763C92.8329 42.2703 93.4518 42.2527 93.8585 42.6057L95.6797 44.2647C96.0864 44.6354 96.1218 45.2531 95.7505 45.6414Z" fill="white"/>
<path d="M100.737 50.1596C100.383 50.5656 99.7643 50.5832 99.3576 50.2302L97.5363 48.5712C97.1296 48.2182 97.1119 47.6005 97.4656 47.1945C97.8192 46.7886 98.4381 46.7709 98.8448 47.1239L100.666 48.783C101.073 49.136 101.108 49.7537 100.737 50.1596Z" fill="white"/>
<path d="M100.418 43.6823L98.7563 45.5002C98.4027 45.9061 97.7838 45.9237 97.3771 45.5708C96.9704 45.2178 96.9527 44.6 97.3064 44.1941L98.9685 42.3762C99.3222 41.9703 99.9411 41.9526 100.348 42.3056C100.754 42.6586 100.79 43.2763 100.418 43.6823Z" fill="white"/>
<path d="M95.9097 48.6594L94.2476 50.4773C93.8939 50.8832 93.275 50.9009 92.8683 50.5479C92.4616 50.1949 92.444 49.5772 92.7976 49.1712L94.4598 47.3533C94.8134 46.9474 95.4323 46.9297 95.839 47.2827C96.228 47.6357 96.2634 48.2535 95.9097 48.6594Z" fill="white"/>
<path d="M222.763 93.6654H98.9688V164.122H222.763V93.6654Z" fill="white"/>
<path d="M232.258 168.887V90.5239C232.258 86.341 228.863 82.9346 224.655 82.9346H97.0409C92.8502 82.9346 89.4375 86.3233 89.4375 90.5239V168.887V172.558H232.258V168.887ZM222.763 164.122H98.9683V93.6655H222.763V164.122Z" fill="url(#paint1_linear)"/>
<path d="M234.769 182.065H86.962C82.5413 182.065 78.7396 178.924 77.9262 174.582C77.5903 172.852 78.9341 171.246 80.7024 171.246H241.047C242.815 171.246 244.141 172.852 243.823 174.582C242.992 178.924 239.19 182.065 234.769 182.065Z" fill="#E1E1E5"/>
<g filter="url(#filter0_d)">
<rect x="32" y="113" width="237" height="34" rx="17" fill="white"/>
<rect x="33.5" y="114.5" width="234" height="31" rx="15.5" stroke="#BDBDBD" stroke-width="3"/>
</g>
<path d="M55.9042 123.48V135H54.0322V129.872H48.2482V135H46.3682V123.48H48.2482V128.52H54.0322V123.48H55.9042Z" fill="#828282"/>
<path d="M62.4707 131.432C61.8573 131.453 61.34 131.504 60.9187 131.584C60.4973 131.659 60.156 131.757 59.8947 131.88C59.6333 131.997 59.444 132.139 59.3267 132.304C59.2147 132.469 59.1587 132.651 59.1587 132.848C59.1587 133.04 59.188 133.205 59.2467 133.344C59.3107 133.477 59.396 133.589 59.5027 133.68C59.6147 133.765 59.7427 133.829 59.8867 133.872C60.036 133.909 60.1987 133.928 60.3747 133.928C60.8227 133.928 61.2067 133.845 61.5267 133.68C61.852 133.509 62.1667 133.264 62.4707 132.944V131.432ZM57.9107 127.976C58.8333 127.117 59.932 126.688 61.2067 126.688C61.676 126.688 62.092 126.765 62.4547 126.92C62.8227 127.069 63.1293 127.283 63.3747 127.56C63.6253 127.837 63.8147 128.168 63.9427 128.552C64.076 128.931 64.1427 129.352 64.1427 129.816V135H63.3747C63.2093 135 63.084 134.976 62.9987 134.928C62.9133 134.875 62.8413 134.771 62.7827 134.616L62.6147 133.952C62.4067 134.139 62.2013 134.307 61.9987 134.456C61.796 134.6 61.5853 134.723 61.3667 134.824C61.1533 134.925 60.9213 135 60.6707 135.048C60.4253 135.101 60.1533 135.128 59.8547 135.128C59.524 135.128 59.2147 135.083 58.9267 134.992C58.644 134.901 58.3987 134.765 58.1907 134.584C57.9827 134.397 57.8173 134.168 57.6947 133.896C57.5773 133.624 57.5187 133.304 57.5187 132.936C57.5187 132.621 57.6013 132.315 57.7667 132.016C57.9373 131.717 58.2147 131.451 58.5987 131.216C58.988 130.976 59.4973 130.779 60.1267 130.624C60.7613 130.469 61.5427 130.381 62.4707 130.36V129.816C62.4707 129.229 62.3453 128.792 62.0947 128.504C61.844 128.216 61.476 128.072 60.9907 128.072C60.66 128.072 60.3827 128.115 60.1587 128.2C59.9347 128.28 59.74 128.368 59.5747 128.464C59.4093 128.56 59.2627 128.651 59.1347 128.736C59.0067 128.816 58.8707 128.856 58.7267 128.856C58.6093 128.856 58.508 128.827 58.4227 128.768C58.3427 128.704 58.276 128.627 58.2227 128.536L57.9107 127.976Z" fill="#828282"/>
<path d="M73.1175 135H71.4055V128.136H67.8775V135H66.1575V126.84H73.1175V135Z" fill="#828282"/>
<path d="M76.94 132.952C77.18 133.261 77.4414 133.48 77.724 133.608C78.012 133.731 78.3294 133.792 78.676 133.792C79.348 133.792 79.8707 133.547 80.244 133.056C80.6227 132.565 80.812 131.835 80.812 130.864C80.812 130.363 80.7694 129.936 80.684 129.584C80.5987 129.227 80.476 128.936 80.316 128.712C80.156 128.488 79.9614 128.325 79.732 128.224C79.5027 128.123 79.244 128.072 78.956 128.072C78.5187 128.072 78.14 128.168 77.82 128.36C77.5054 128.547 77.212 128.816 76.94 129.168V132.952ZM76.852 128.024C77.1934 127.624 77.58 127.301 78.012 127.056C78.4494 126.811 78.956 126.688 79.532 126.688C79.9907 126.688 80.4067 126.781 80.78 126.968C81.1534 127.149 81.4734 127.416 81.74 127.768C82.0067 128.12 82.212 128.557 82.356 129.08C82.5054 129.597 82.58 130.192 82.58 130.864C82.58 131.467 82.4974 132.029 82.332 132.552C82.172 133.069 81.94 133.52 81.636 133.904C81.332 134.283 80.964 134.581 80.532 134.8C80.1 135.013 79.612 135.12 79.068 135.12C78.588 135.12 78.18 135.043 77.844 134.888C77.5134 134.733 77.212 134.52 76.94 134.248V137.712H75.22V126.84H76.26C76.4947 126.84 76.644 126.949 76.708 127.168L76.852 128.024Z" fill="#828282"/>
<path d="M88.6113 131.432C87.998 131.453 87.4806 131.504 87.0593 131.584C86.638 131.659 86.2966 131.757 86.0353 131.88C85.774 131.997 85.5846 132.139 85.4673 132.304C85.3553 132.469 85.2993 132.651 85.2993 132.848C85.2993 133.04 85.3286 133.205 85.3873 133.344C85.4513 133.477 85.5366 133.589 85.6433 133.68C85.7553 133.765 85.8833 133.829 86.0273 133.872C86.1766 133.909 86.3393 133.928 86.5153 133.928C86.9633 133.928 87.3473 133.845 87.6673 133.68C87.9926 133.509 88.3073 133.264 88.6113 132.944V131.432ZM84.0513 127.976C84.974 127.117 86.0726 126.688 87.3473 126.688C87.8166 126.688 88.2326 126.765 88.5953 126.92C88.9633 127.069 89.27 127.283 89.5153 127.56C89.766 127.837 89.9553 128.168 90.0833 128.552C90.2166 128.931 90.2833 129.352 90.2833 129.816V135H89.5153C89.35 135 89.2246 134.976 89.1393 134.928C89.054 134.875 88.982 134.771 88.9233 134.616L88.7553 133.952C88.5473 134.139 88.342 134.307 88.1393 134.456C87.9366 134.6 87.726 134.723 87.5073 134.824C87.294 134.925 87.062 135 86.8113 135.048C86.566 135.101 86.294 135.128 85.9953 135.128C85.6646 135.128 85.3553 135.083 85.0673 134.992C84.7846 134.901 84.5393 134.765 84.3313 134.584C84.1233 134.397 83.958 134.168 83.8353 133.896C83.718 133.624 83.6593 133.304 83.6593 132.936C83.6593 132.621 83.742 132.315 83.9073 132.016C84.078 131.717 84.3553 131.451 84.7393 131.216C85.1286 130.976 85.638 130.779 86.2673 130.624C86.902 130.469 87.6833 130.381 88.6113 130.36V129.816C88.6113 129.229 88.486 128.792 88.2353 128.504C87.9846 128.216 87.6166 128.072 87.1313 128.072C86.8006 128.072 86.5233 128.115 86.2993 128.2C86.0753 128.28 85.8806 128.368 85.7153 128.464C85.55 128.56 85.4033 128.651 85.2753 128.736C85.1473 128.816 85.0113 128.856 84.8673 128.856C84.75 128.856 84.6486 128.827 84.5633 128.768C84.4833 128.704 84.4166 128.627 84.3633 128.536L84.0513 127.976Z" fill="#828282"/>
<path d="M95.5382 133.808C96.0075 133.808 96.3782 133.696 96.6502 133.472C96.9275 133.243 97.0662 132.936 97.0662 132.552C97.0662 132.387 97.0422 132.232 96.9942 132.088C96.9462 131.944 96.8635 131.821 96.7462 131.72C96.6288 131.613 96.4715 131.531 96.2742 131.472C96.0822 131.413 95.8395 131.384 95.5462 131.384H93.9382V133.808H95.5382ZM93.9382 127.976V130.304H95.3542C95.5675 130.304 95.7622 130.275 95.9382 130.216C96.1195 130.152 96.2742 130.067 96.4022 129.96C96.5355 129.848 96.6368 129.717 96.7062 129.568C96.7808 129.413 96.8182 129.243 96.8182 129.056C96.8182 128.923 96.7942 128.792 96.7462 128.664C96.6982 128.531 96.6155 128.413 96.4982 128.312C96.3862 128.211 96.2368 128.131 96.0502 128.072C95.8635 128.008 95.6315 127.976 95.3542 127.976H93.9382ZM95.4102 126.84C95.9168 126.84 96.3542 126.891 96.7222 126.992C97.0902 127.088 97.3915 127.224 97.6262 127.4C97.8662 127.576 98.0422 127.784 98.1542 128.024C98.2662 128.264 98.3222 128.523 98.3222 128.8C98.3222 128.976 98.2982 129.16 98.2502 129.352C98.2022 129.544 98.1195 129.728 98.0022 129.904C97.8848 130.075 97.7248 130.232 97.5222 130.376C97.3248 130.52 97.0715 130.632 96.7622 130.712C97.3435 130.819 97.8022 131.032 98.1382 131.352C98.4795 131.667 98.6502 132.088 98.6502 132.616C98.6502 133.021 98.5675 133.373 98.4022 133.672C98.2368 133.971 98.0102 134.219 97.7222 134.416C97.4395 134.613 97.1088 134.76 96.7302 134.856C96.3568 134.952 95.9622 135 95.5462 135H92.2982V126.84H95.4102Z" fill="#828282"/>
<path d="M107.659 135H105.939V128.176H103.667C103.603 129.195 103.504 130.075 103.371 130.816C103.243 131.552 103.088 132.176 102.907 132.688C102.725 133.2 102.523 133.616 102.299 133.936C102.075 134.251 101.837 134.496 101.587 134.672C101.336 134.848 101.077 134.965 100.811 135.024C100.549 135.083 100.285 135.112 100.019 135.112C99.5012 135.112 99.2425 135.027 99.2425 134.856V133.776H99.6905C99.8665 133.776 100.045 133.747 100.227 133.688C100.413 133.629 100.592 133.515 100.763 133.344C100.933 133.168 101.096 132.923 101.251 132.608C101.411 132.293 101.555 131.88 101.683 131.368C101.816 130.851 101.931 130.224 102.027 129.488C102.123 128.747 102.197 127.864 102.251 126.84H107.659V135Z" fill="#828282"/>
<path d="M115.103 130C115.103 129.712 115.061 129.445 114.975 129.2C114.895 128.949 114.775 128.733 114.615 128.552C114.455 128.365 114.255 128.221 114.015 128.12C113.781 128.013 113.509 127.96 113.199 127.96C112.575 127.96 112.085 128.139 111.727 128.496C111.37 128.853 111.143 129.355 111.047 130H115.103ZM110.999 131.056C111.021 131.52 111.093 131.923 111.215 132.264C111.338 132.6 111.501 132.88 111.703 133.104C111.911 133.328 112.157 133.496 112.439 133.608C112.727 133.715 113.047 133.768 113.399 133.768C113.735 133.768 114.026 133.731 114.271 133.656C114.517 133.576 114.73 133.491 114.911 133.4C115.093 133.304 115.247 133.219 115.375 133.144C115.503 133.064 115.621 133.024 115.727 133.024C115.866 133.024 115.973 133.077 116.047 133.184L116.535 133.816C116.333 134.056 116.103 134.259 115.847 134.424C115.591 134.589 115.319 134.725 115.031 134.832C114.743 134.933 114.447 135.005 114.143 135.048C113.839 135.096 113.543 135.12 113.255 135.12C112.69 135.12 112.165 135.027 111.679 134.84C111.199 134.648 110.781 134.368 110.423 134C110.071 133.632 109.794 133.176 109.591 132.632C109.394 132.088 109.295 131.461 109.295 130.752C109.295 130.187 109.383 129.659 109.559 129.168C109.741 128.677 109.997 128.251 110.327 127.888C110.663 127.525 111.069 127.24 111.543 127.032C112.023 126.819 112.565 126.712 113.167 126.712C113.669 126.712 114.133 126.795 114.559 126.96C114.986 127.12 115.354 127.357 115.663 127.672C115.973 127.987 116.213 128.373 116.383 128.832C116.559 129.285 116.647 129.803 116.647 130.384C116.647 130.651 116.618 130.829 116.559 130.92C116.501 131.011 116.394 131.056 116.239 131.056H110.999Z" fill="#828282"/>
<path d="M125.211 126.84V135H123.499V131.296H119.971V135H118.251V126.84H119.971V130H123.499V126.84H125.211Z" fill="#828282"/>
<path d="M134.49 126.84V135H132.77V129.888C132.77 129.776 132.775 129.653 132.786 129.52C132.796 129.387 132.812 129.251 132.834 129.112C132.78 129.229 132.727 129.339 132.674 129.44C132.626 129.536 132.572 129.624 132.514 129.704L128.97 134.576C128.906 134.677 128.82 134.776 128.714 134.872C128.607 134.963 128.487 135.008 128.354 135.008H127.314V126.84H129.034V131.952C129.034 132.064 129.026 132.189 129.01 132.328C128.999 132.467 128.983 132.605 128.962 132.744C129.068 132.499 129.178 132.296 129.29 132.136L132.834 127.272C132.898 127.165 132.983 127.067 133.09 126.976C133.196 126.885 133.316 126.84 133.45 126.84H134.49Z" fill="#828282"/>
<path d="M141.931 130C141.931 129.712 141.889 129.445 141.803 129.2C141.723 128.949 141.603 128.733 141.443 128.552C141.283 128.365 141.083 128.221 140.843 128.12C140.609 128.013 140.337 127.96 140.027 127.96C139.403 127.96 138.913 128.139 138.555 128.496C138.198 128.853 137.971 129.355 137.875 130H141.931ZM137.827 131.056C137.849 131.52 137.921 131.923 138.043 132.264C138.166 132.6 138.329 132.88 138.531 133.104C138.739 133.328 138.985 133.496 139.267 133.608C139.555 133.715 139.875 133.768 140.227 133.768C140.563 133.768 140.854 133.731 141.099 133.656C141.345 133.576 141.558 133.491 141.739 133.4C141.921 133.304 142.075 133.219 142.203 133.144C142.331 133.064 142.449 133.024 142.555 133.024C142.694 133.024 142.801 133.077 142.875 133.184L143.363 133.816C143.161 134.056 142.931 134.259 142.675 134.424C142.419 134.589 142.147 134.725 141.859 134.832C141.571 134.933 141.275 135.005 140.971 135.048C140.667 135.096 140.371 135.12 140.083 135.12C139.518 135.12 138.993 135.027 138.507 134.84C138.027 134.648 137.609 134.368 137.251 134C136.899 133.632 136.622 133.176 136.419 132.632C136.222 132.088 136.123 131.461 136.123 130.752C136.123 130.187 136.211 129.659 136.387 129.168C136.569 128.677 136.825 128.251 137.155 127.888C137.491 127.525 137.897 127.24 138.371 127.032C138.851 126.819 139.393 126.712 139.995 126.712C140.497 126.712 140.961 126.795 141.387 126.96C141.814 127.12 142.182 127.357 142.491 127.672C142.801 127.987 143.041 128.373 143.211 128.832C143.387 129.285 143.475 129.803 143.475 130.384C143.475 130.651 143.446 130.829 143.387 130.92C143.329 131.011 143.222 131.056 143.067 131.056H137.827Z" fill="#828282"/>
<path d="M263.625 163.211C262.34 165.387 259.528 166.114 257.324 164.839L231.859 149.824L230.835 151.559L257.348 167.212C259.527 168.493 262.339 167.766 263.649 165.583C264.301 164.479 264.448 163.185 264.125 162.039C264.009 162.417 263.842 162.807 263.625 163.211Z" fill="#58595B"/>
<path d="M235.528 143.61L231.871 149.767L257.336 164.783C259.515 166.064 262.327 165.337 263.637 163.154C263.86 162.776 264.021 162.36 264.131 161.957C263.821 160.861 263.109 159.869 262.036 159.238L235.528 143.61Z" fill="#808285"/>
<path d="M235.616 146.02L232.989 150.467L222.657 144.371L225.308 139.917L235.616 146.02Z" fill="#58595B"/>
<path d="M239.515 144.424L233.473 154.619L231.2 153.282C230.056 152.589 229.674 151.11 230.345 149.975L233.928 143.943C234.623 142.801 236.104 142.419 237.241 143.087L239.515 144.424Z" fill="url(#paint2_linear)"/>
<path d="M216.965 109.811C205.426 102.984 190.508 106.813 183.666 118.364C176.817 129.89 180.639 144.78 192.203 151.601C203.742 158.428 218.659 154.599 225.502 143.047C232.344 131.496 228.529 116.632 216.965 109.811ZM222.369 141.184C216.551 151.001 203.868 154.252 194.066 148.446C184.238 142.647 180.993 129.987 186.817 120.196C192.635 110.379 205.318 107.128 215.121 112.934C224.948 118.733 228.187 131.368 222.369 141.184Z" fill="#58595B"/>
<path opacity="0.85" d="M222.371 141.203C228.185 131.395 224.938 118.746 215.119 112.95C205.301 107.154 192.628 110.407 186.814 120.215C181 130.023 184.246 142.672 194.065 148.468C203.884 154.263 216.557 151.011 222.371 141.203Z" fill="white"/>
<defs>
<filter id="filter0_d" x="10" y="95" width="281" height="78" filterUnits="userSpaceOnUse" color-interpolation-filters="sRGB">
<feFlood flood-opacity="0" result="BackgroundImageFix"/>
<feColorMatrix in="SourceAlpha" type="matrix" values="0 0 0 0 0 0 0 0 0 0 0 0 0 0 0 0 0 0 127 0"/>
<feOffset dy="4"/>
<feGaussianBlur stdDeviation="11"/>
<feColorMatrix type="matrix" values="0 0 0 0 0.65 0 0 0 0 0.65 0 0 0 0 0.65 0 0 0 1 0"/>
<feBlend mode="normal" in2="BackgroundImageFix" result="effect1_dropShadow"/>
<feBlend mode="normal" in="SourceGraphic" in2="effect1_dropShadow" result="shape"/>
</filter>
<linearGradient id="paint0_linear" x1="40.0055" y1="98.4996" x2="282.031" y2="98.4996" gradientUnits="userSpaceOnUse">
<stop stop-color="#6966E0"/>
<stop offset="0.9877" stop-color="#416BE5"/>
</linearGradient>
<linearGradient id="paint1_linear" x1="160.86" y1="196.144" x2="160.86" y2="167.007" gradientUnits="userSpaceOnUse">
<stop stop-color="#9D9E9F"/>
<stop offset="1" stop-color="#D1D3D4"/>
</linearGradient>
<linearGradient id="paint2_linear" x1="230.073" y1="145.736" x2="239.262" y2="151.184" gradientUnits="userSpaceOnUse">
<stop stop-color="#D1D3D4"/>
<stop offset="1" stop-color="#9D9E9F"/>
</linearGradient>
</defs>
</svg>
