<svg width="123" height="37" viewBox="0 0 123 37" fill="none" xmlns="http://www.w3.org/2000/svg">
<path fill-rule="evenodd" clip-rule="evenodd" d="M99.4563 36.2521C97.7542 36.543 96.1507 35.3243 95.8747 33.5299C95.5988 31.7356 96.7549 30.0452 98.457 29.7544L112.498 27.3548C77.7425 -0.343937 33.6555 -1.46581 5.41764 30.8053C4.2485 32.1414 2.27325 32.2254 1.00579 30.993C-0.261675 29.7605 -0.341387 27.6782 0.827745 26.3421C31.0901 -8.2426 77.4354 -7.14095 113.708 20.1264L110.652 9.55932C110.15 7.82056 111.079 5.98139 112.729 5.45143C114.378 4.92146 116.123 5.90139 116.626 7.64016L122.339 27.4016C122.653 27.8243 122.873 28.3339 122.96 28.9011C123.236 30.6954 122.08 32.3858 120.378 32.6767L99.4563 36.2521Z" fill="#F04B17"/>
</svg>
