<svg width="300" height="240" viewBox="0 0 300 240" fill="none" xmlns="http://www.w3.org/2000/svg">
<g clip-path="url(#clip0)">
<path d="M57.339 129.344C58.5416 126.409 60.0809 123.57 61.9569 120.875C66.703 114.075 73.5657 107.948 74.8965 100.041C76.6122 89.8086 68.6592 82.6073 64.2818 73.9304C52.0798 49.8564 71.7057 30.5138 94.4583 19.4632C140.252 -2.78235 197.831 -6.18254 247.249 10.4174C274.908 19.7038 281.049 40.7304 270.418 63.409C264.309 76.4324 257.382 89.1831 262.946 103.522C266.65 113.049 274.715 121.148 277.233 130.948C279.975 141.597 275.212 153.338 265.432 160.042C247.73 172.167 223.758 165.142 204.197 172.648C187.681 178.983 174.918 190.259 157.762 195.712C122.983 206.778 77.5261 201.598 59.9045 169.44C53.106 156.994 52.0798 142.191 57.339 129.344Z" fill="url(#paint0_linear)"/>
<path d="M34.9168 122.751C45.3642 122.751 53.8336 114.282 53.8336 103.836C53.8336 93.3891 45.3642 84.9205 34.9168 84.9205C24.4693 84.9205 16 93.3891 16 103.836C16 114.282 24.4693 122.751 34.9168 122.751Z" fill="#F04B17"/>
<path d="M244.79 192.944C246.646 200.555 233.45 210.278 215.324 214.694C197.197 219.092 181.012 216.498 179.174 208.887C177.318 201.276 190.514 191.552 208.64 187.137C226.75 182.739 242.934 185.35 244.79 192.944Z" fill="#FFC000"/>
<path d="M127.493 148.44C127.513 158.809 127.554 181.145 127.554 181.145H164.487C164.487 181.145 164.487 158.708 164.487 148.44H127.493Z" fill="url(#paint1_linear)"/>
<path d="M172.694 179.548H119.286L114.939 184.379H177.04L172.694 179.548Z" fill="url(#paint2_linear)"/>
<path d="M177.061 184.379H114.939V190.261H177.061V184.379Z" fill="url(#paint3_linear)"/>
<path d="M68 136.473V139.768C68 145.023 72.2654 149.288 77.5213 149.288H214.438C219.694 149.288 223.96 145.023 223.96 139.768V136.473H68Z" fill="url(#paint4_linear)"/>
<path d="M214.438 44.5026H189.533H77.5413C72.2854 44.5026 68.02 48.7676 68.02 54.0231V136.473H189.553H224V54.0231C223.98 48.7676 219.694 44.5026 214.438 44.5026Z" fill="url(#paint5_linear)"/>
<path d="M146.453 52.4343H109.654H83V136.443L109.654 136.425L146.453 136.407L209.947 136.354V52.4343H146.453Z" fill="white"/>
<path d="M208.677 48.9124C208.677 46.5123 206.737 44.5722 204.337 44.5722H105.283V51.4926H208.677V48.9124Z" fill="url(#paint6_linear)"/>
<path d="M88.1407 44.5722C85.3003 44.5722 83 46.5123 83 48.9124V51.4926H109.384V44.5722H88.1407Z" fill="url(#paint7_linear)"/>
<path d="M91.8212 46.1523C90.781 46.1523 89.9409 46.9924 89.9409 48.0324C89.9409 49.0725 90.781 49.9125 91.8212 49.9125C92.8613 49.9125 93.7014 49.0725 93.7014 48.0324C93.7014 46.9924 92.8613 46.1523 91.8212 46.1523Z" fill="white"/>
<path d="M100.602 46.1523C99.5623 46.1523 98.7222 46.9924 98.7222 48.0324C98.7222 49.0725 99.5623 49.9125 100.602 49.9125C101.643 49.9125 102.483 49.0725 102.483 48.0324C102.483 46.9924 101.623 46.1523 100.602 46.1523Z" fill="white"/>
<path d="M83 50H210V86.1928C210 106.077 191.544 120.82 172.152 116.427L83 96.2329V50Z" fill="#E8F0FE"/>
<rect x="137.5" y="60.5" width="138" height="41" rx="20.5" fill="white" stroke="#416BE5" stroke-width="5"/>
<path d="M171.147 88.48C171.747 88.48 172.251 88.408 172.659 88.264C173.067 88.12 173.391 87.928 173.631 87.688C173.879 87.448 174.055 87.168 174.159 86.848C174.271 86.528 174.327 86.188 174.327 85.828C174.327 85.452 174.267 85.116 174.147 84.82C174.027 84.516 173.839 84.26 173.583 84.052C173.327 83.836 172.995 83.672 172.587 83.56C172.187 83.448 171.703 83.392 171.135 83.392H167.883V88.48H171.147ZM167.883 76.144V81.16H170.451C171.555 81.16 172.387 80.96 172.947 80.56C173.515 80.16 173.799 79.524 173.799 78.652C173.799 77.748 173.543 77.104 173.031 76.72C172.519 76.336 171.719 76.144 170.631 76.144H167.883ZM170.631 73.648C171.767 73.648 172.739 73.756 173.547 73.972C174.355 74.188 175.015 74.496 175.527 74.896C176.047 75.296 176.427 75.78 176.667 76.348C176.907 76.916 177.027 77.556 177.027 78.268C177.027 78.676 176.967 79.068 176.847 79.444C176.727 79.812 176.539 80.16 176.283 80.488C176.035 80.808 175.715 81.1 175.323 81.364C174.939 81.628 174.479 81.852 173.943 82.036C176.327 82.572 177.519 83.86 177.519 85.9C177.519 86.636 177.379 87.316 177.099 87.94C176.819 88.564 176.411 89.104 175.875 89.56C175.339 90.008 174.679 90.36 173.895 90.616C173.111 90.872 172.215 91 171.207 91H164.655V73.648H170.631Z" fill="#416BE5"/>
<path d="M197 82.324C197 83.596 196.788 84.776 196.364 85.864C195.948 86.944 195.356 87.88 194.588 88.672C193.82 89.464 192.896 90.084 191.816 90.532C190.736 90.972 189.536 91.192 188.216 91.192C186.904 91.192 185.708 90.972 184.628 90.532C183.548 90.084 182.62 89.464 181.844 88.672C181.076 87.88 180.48 86.944 180.056 85.864C179.632 84.776 179.42 83.596 179.42 82.324C179.42 81.052 179.632 79.876 180.056 78.796C180.48 77.708 181.076 76.768 181.844 75.976C182.62 75.184 183.548 74.568 184.628 74.128C185.708 73.68 186.904 73.456 188.216 73.456C189.096 73.456 189.924 73.56 190.7 73.768C191.476 73.968 192.188 74.256 192.836 74.632C193.484 75 194.064 75.452 194.576 75.988C195.096 76.516 195.536 77.108 195.896 77.764C196.256 78.42 196.528 79.132 196.712 79.9C196.904 80.668 197 81.476 197 82.324ZM193.7 82.324C193.7 81.372 193.572 80.52 193.316 79.768C193.06 79.008 192.696 78.364 192.224 77.836C191.752 77.308 191.176 76.904 190.496 76.624C189.824 76.344 189.064 76.204 188.216 76.204C187.368 76.204 186.604 76.344 185.924 76.624C185.252 76.904 184.676 77.308 184.196 77.836C183.724 78.364 183.36 79.008 183.104 79.768C182.848 80.52 182.72 81.372 182.72 82.324C182.72 83.276 182.848 84.132 183.104 84.892C183.36 85.644 183.724 86.284 184.196 86.812C184.676 87.332 185.252 87.732 185.924 88.012C186.604 88.292 187.368 88.432 188.216 88.432C189.064 88.432 189.824 88.292 190.496 88.012C191.176 87.732 191.752 87.332 192.224 86.812C192.696 86.284 193.06 85.644 193.316 84.892C193.572 84.132 193.7 83.276 193.7 82.324Z" fill="#416BE5"/>
<path d="M214.462 73.648V91H211.222V80.128C211.222 79.72 211.23 79.292 211.246 78.844C211.27 78.396 211.318 77.92 211.39 77.416C211.23 77.864 211.054 78.28 210.862 78.664C210.678 79.04 210.498 79.372 210.322 79.66L203.686 90.004C203.614 90.124 203.526 90.244 203.422 90.364C203.326 90.484 203.218 90.592 203.098 90.688C202.978 90.776 202.846 90.852 202.702 90.916C202.558 90.972 202.41 91 202.258 91H199.834V73.648H203.074V84.52C203.074 84.928 203.062 85.36 203.038 85.816C203.022 86.264 202.978 86.74 202.906 87.244C203.066 86.796 203.238 86.38 203.422 85.996C203.614 85.612 203.802 85.276 203.986 84.988L210.61 74.644C210.682 74.524 210.766 74.404 210.862 74.284C210.966 74.164 211.078 74.06 211.198 73.972C211.318 73.876 211.446 73.8 211.582 73.744C211.726 73.68 211.878 73.648 212.038 73.648H214.462ZM207.298 71.14C207.594 71.14 207.842 71.112 208.042 71.056C208.242 71 208.402 70.904 208.522 70.768C208.642 70.624 208.726 70.432 208.774 70.192C208.822 69.952 208.846 69.648 208.846 69.28H210.598C210.806 69.28 210.958 69.368 211.054 69.544C211.158 69.72 211.21 69.912 211.21 70.12C211.21 70.528 211.118 70.888 210.934 71.2C210.75 71.512 210.486 71.772 210.142 71.98C209.798 72.188 209.386 72.348 208.906 72.46C208.426 72.564 207.89 72.616 207.298 72.616C206.706 72.616 206.17 72.564 205.69 72.46C205.21 72.348 204.798 72.188 204.454 71.98C204.11 71.772 203.846 71.512 203.662 71.2C203.478 70.888 203.386 70.528 203.386 70.12C203.386 69.912 203.434 69.72 203.53 69.544C203.634 69.368 203.79 69.28 203.998 69.28H205.75C205.75 69.648 205.774 69.952 205.822 70.192C205.87 70.432 205.954 70.624 206.074 70.768C206.194 70.904 206.35 71 206.542 71.056C206.742 71.112 206.994 71.14 207.298 71.14Z" fill="#416BE5"/>
<path d="M230.447 76.3H225.215V91H221.987V76.3H216.755V73.648H230.447V76.3Z" fill="#416BE5"/>
<path d="M247.345 73.648V91H244.105V80.128C244.105 79.72 244.113 79.292 244.129 78.844C244.153 78.396 244.201 77.92 244.273 77.416C244.113 77.864 243.937 78.28 243.745 78.664C243.561 79.04 243.381 79.372 243.205 79.66L236.569 90.004C236.497 90.124 236.409 90.244 236.305 90.364C236.209 90.484 236.101 90.592 235.981 90.688C235.861 90.776 235.729 90.852 235.585 90.916C235.441 90.972 235.293 91 235.141 91H232.717V73.648H235.957V84.52C235.957 84.928 235.945 85.36 235.921 85.816C235.905 86.264 235.861 86.74 235.789 87.244C235.949 86.796 236.121 86.38 236.305 85.996C236.497 85.612 236.685 85.276 236.869 84.988L243.493 74.644C243.565 74.524 243.649 74.404 243.745 74.284C243.849 74.164 243.961 74.06 244.081 73.972C244.201 73.876 244.329 73.8 244.465 73.744C244.609 73.68 244.761 73.648 244.921 73.648H247.345Z" fill="#416BE5"/>
</g>
<path d="M149.354 124.126L153.198 92.4024L123.965 104.908L131.895 110.911L133.084 111.811L132.191 113.005L123.634 124.451L130.795 129.891L139.338 118.464L140.24 117.258L141.443 118.165L149.354 124.126Z" fill="white" stroke="#58595B" stroke-width="3"/>
<defs>
<linearGradient id="paint0_linear" x1="56.2075" y1="96.1271" x2="279.424" y2="106.112" gradientUnits="userSpaceOnUse">
<stop stop-color="#F04B17"/>
<stop offset="1" stop-color="#FFC000"/>
</linearGradient>
<linearGradient id="paint1_linear" x1="145.861" y1="181.053" x2="146.268" y2="129.021" gradientUnits="userSpaceOnUse">
<stop stop-color="#D1D3D4"/>
<stop offset="1" stop-color="#9D9E9F"/>
</linearGradient>
<linearGradient id="paint2_linear" x1="145.988" y1="177.512" x2="145.988" y2="189.275" gradientUnits="userSpaceOnUse">
<stop stop-color="#D1D3D4"/>
<stop offset="1" stop-color="#9D9E9F"/>
</linearGradient>
<linearGradient id="paint3_linear" x1="145.988" y1="180.78" x2="145.988" y2="200.835" gradientUnits="userSpaceOnUse">
<stop stop-color="#D1D3D4"/>
<stop offset="1" stop-color="#9D9E9F"/>
</linearGradient>
<linearGradient id="paint4_linear" x1="95.9885" y1="173.103" x2="142.481" y2="142.981" gradientUnits="userSpaceOnUse">
<stop stop-color="#9D9E9F"/>
<stop offset="1" stop-color="#D1D3D4"/>
</linearGradient>
<linearGradient id="paint5_linear" x1="145.988" y1="174.871" x2="145.988" y2="25.0866" gradientUnits="userSpaceOnUse">
<stop stop-color="#BBBBBB"/>
<stop offset="0.045404" stop-color="#CCCDCD"/>
<stop offset="0.1083" stop-color="#DDDEDE"/>
<stop offset="0.1866" stop-color="#E8E9E9"/>
<stop offset="0.2966" stop-color="#EFF0F0"/>
<stop offset="0.6017" stop-color="#F1F2F2"/>
<stop offset="1" stop-color="white"/>
</linearGradient>
<linearGradient id="paint6_linear" x1="87.2295" y1="48.0344" x2="119.502" y2="48.0344" gradientUnits="userSpaceOnUse">
<stop stop-color="#582D7F"/>
<stop offset="0.2125" stop-color="#4B5194"/>
<stop offset="0.7538" stop-color="#2AA7C8"/>
<stop offset="1" stop-color="#1DC9DC"/>
</linearGradient>
<linearGradient id="paint7_linear" x1="129.982" y1="15.6358" x2="112.635" y2="32.9841" gradientUnits="userSpaceOnUse">
<stop stop-color="#582D7F"/>
<stop offset="0.2125" stop-color="#4B5194"/>
<stop offset="0.7538" stop-color="#2AA7C8"/>
<stop offset="1" stop-color="#1DC9DC"/>
</linearGradient>
<clipPath id="clip0">
<rect x="16" width="267" height="217" fill="white"/>
</clipPath>
</defs>
</svg>
