<svg width="300" height="240" viewBox="0 0 300 240" fill="none" xmlns="http://www.w3.org/2000/svg">
<path d="M41.3807 111.455C43.1348 108.926 45.435 106.977 49.8532 102.928C61.1885 92.5173 63.9024 92.9139 65.2097 89.0471C67.7084 81.6935 58.7064 77.7771 56.9357 65.5817C55.1982 53.6177 61.8339 43.4714 64.8787 38.8114C66.6162 36.1509 74.5261 24.633 94.3008 16.7341C138.07 -0.749242 219.618 7.71151 249.47 44.8595C254.253 50.8084 264.099 63.0699 263.999 79.9584C263.95 86.6344 263.139 93.294 260.177 99.3586C253.409 113.206 238.201 118.577 240.7 136.407C241.577 142.703 243.993 148.652 245.846 154.734C248.726 164.219 249.95 175.109 242.537 182.859C235.884 189.799 225.674 190.659 216.639 189.651C177.586 185.272 138.335 182.793 99.1163 180.298C91.5042 179.818 83.8922 179.339 76.2968 178.86C73.798 178.695 71.0014 178.645 69.1646 180.347C67.3278 182.049 68.0559 186.048 70.5546 185.949C60.4935 188.51 51.1605 179.835 45.5673 171.093C38.7662 160.484 33.9507 148.239 34.0004 135.647C34.0004 127.104 36.5157 118.412 41.3807 111.455Z" fill="url(#paint0_linear)"/>
<path d="M222.374 213.346C221.225 214.035 220.04 214.652 218.838 215.199C218.891 215.023 218.908 214.829 218.908 214.635V199.915C218.908 198.609 217.847 197.55 216.539 197.55H161.14C159.831 197.55 158.771 198.609 158.771 199.915V213.752C156.454 212.834 154.155 211.828 151.927 210.734C144.112 206.869 136.491 201.662 128.056 199.156C127.738 198.221 126.854 197.55 125.81 197.55H70.4114C69.8986 197.55 69.4212 197.726 69.0145 197.991C64.753 196.915 60.5977 195.485 56.5838 193.685H233.938C233.461 201.998 230.101 208.634 222.374 213.346Z" fill="#939598"/>
<path d="M204.585 219.082C192.668 220.812 180.396 220.053 168.743 217H214.099C211.004 217.97 207.786 218.623 204.585 219.082Z" fill="#939598"/>
<path d="M214.099 217H168.761C165.366 216.1 162.024 215.023 158.753 213.734V199.897C158.753 198.591 159.814 197.532 161.122 197.532H216.521C217.83 197.532 218.891 198.591 218.891 199.897V214.617C218.891 214.811 218.855 215.005 218.82 215.182L214.099 217ZM162.378 211.087C162.378 212.393 163.439 213.452 164.747 213.452H212.896C214.205 213.452 215.266 212.393 215.266 211.087V203.462C215.266 202.156 214.205 201.097 212.896 201.097H164.765C163.456 201.097 162.395 202.156 162.395 203.462V211.087H162.378Z" fill="#808285"/>
<path d="M164.765 201.08H212.896C214.205 201.08 215.266 202.139 215.266 203.445V211.069C215.266 212.375 214.205 213.434 212.896 213.434H164.765C163.456 213.434 162.395 212.375 162.395 211.069V203.445C162.378 202.139 163.456 201.08 164.765 201.08Z" fill="#A7A9AC"/>
<path d="M173.677 209.94H203.967C204.656 209.94 205.205 209.393 205.205 208.704V206.322C205.205 205.633 204.656 205.086 203.967 205.086C203.277 205.086 202.729 205.633 202.729 206.322V207.469H174.915V206.322C174.915 205.633 174.366 205.086 173.677 205.086C172.987 205.086 172.439 205.633 172.439 206.322V208.704C172.439 209.375 172.987 209.94 173.677 209.94Z" fill="#6D6E71"/>
<path d="M125.775 197.532C126.818 197.532 127.702 198.203 128.021 199.138C125.899 198.503 123.724 198.044 121.478 197.832C110.426 196.738 99.3573 200.25 88.3058 200.321C81.7987 200.374 75.2915 199.58 68.9789 197.991C69.3679 197.709 69.8453 197.55 70.3758 197.55H125.775V197.532Z" fill="#808285"/>
<path d="M48.4014 182H242.98H243.631C246.592 182 249 184.691 249 188C249 191.309 246.592 194 243.631 194H243.468H243.094H52.2409H48.5478H48.3851C45.5217 194 43.1789 191.491 43.0163 188.345C43.0163 188.236 43 188.109 43 188C43.0163 184.691 45.4241 182 48.4014 182Z" fill="#58595B"/>
<path d="M278.107 160.539C267.121 160.539 258.215 151.649 258.215 140.684C258.215 129.718 267.121 120.828 278.107 120.828C289.094 120.828 298 129.718 298 140.684C298 151.649 289.094 160.539 278.107 160.539Z" fill="#504DC1"/>
<path d="M17.1519 89.8532C7.68886 89.8532 0.0175781 82.1962 0.0175781 72.7509C0.0175781 63.3056 7.68886 55.6486 17.1519 55.6486C26.6149 55.6486 34.2861 63.3056 34.2861 72.7509C34.2861 82.1962 26.6149 89.8532 17.1519 89.8532Z" fill="#416BE5"/>
<path d="M279.5 107C274.806 107 271 103.194 271 98.5C271 93.8056 274.806 90 279.5 90C284.194 90 288 93.8056 288 98.5C288 103.194 284.194 107 279.5 107Z" fill="#504DC1"/>
<g clip-path="url(#clip0)">
<path d="M208.541 63H198.491L191.357 69.9727H208.541C210.465 69.9727 212.027 71.5351 212.027 73.459V78.7702C212.027 85.7973 209.61 92.6883 205.218 98.1765C201.469 102.865 196.478 106.344 190.786 108.241L185.87 109.878C184.045 110.488 183.057 112.462 183.663 114.291C184.15 115.752 185.512 116.674 186.973 116.674C187.337 116.674 187.708 116.616 188.076 116.497L192.992 114.855C199.961 112.534 206.072 108.271 210.665 102.534C216.038 95.8142 219 87.3734 219 78.7702V73.459C219 67.692 214.308 63 208.541 63Z" fill="#FF7816"/>
<path d="M133.13 109.878L128.214 108.244C122.521 106.344 117.531 102.865 113.782 98.1765C109.389 92.6883 106.973 85.7973 106.973 78.7702V73.459C106.973 71.5351 108.535 69.9727 110.459 69.9727H128.475L120.509 63H110.459C104.692 63 100 67.692 100 73.459V78.7702C100 87.3734 102.962 95.8142 108.335 102.534C112.928 108.271 119.039 112.534 126.008 114.859L130.924 116.497C131.292 116.616 131.663 116.674 132.027 116.674C133.488 116.674 134.85 115.752 135.336 114.291C135.943 112.462 134.955 110.488 133.13 109.878Z" fill="#FF9F00"/>
<path d="M170.191 131.053V136.213C170.191 138.165 171.725 139.699 173.678 139.699C179.466 139.699 184.137 144.37 184.137 150.158V157.131C184.137 159.083 182.603 160.617 180.65 160.617H138.35C136.397 160.617 134.863 159.083 134.863 157.131V150.158C134.863 144.37 139.535 139.699 145.322 139.699C147.275 139.699 148.809 138.165 148.809 136.213V131.053C135.839 126.939 126.357 115.504 124.823 101.907L120.5 63H198.501L194.177 101.907C192.643 115.504 183.161 126.939 170.191 131.053Z" fill="#FFD400"/>
<path d="M180.65 160.617H159.5V63H198.501L194.177 101.907C192.643 115.504 183.161 126.939 170.191 131.053V136.213C170.191 138.165 171.725 139.699 173.678 139.699C179.466 139.699 184.137 144.37 184.137 150.158V157.131C184.137 159.083 182.603 160.617 180.65 160.617Z" fill="#FF9F00"/>
<path d="M176.792 89.2864C176.373 87.9618 175.258 87.0557 173.934 86.8469L166.124 85.731L162.638 78.8274C162.01 77.6426 160.755 77.0842 159.5 77.0842C158.245 77.0842 156.99 77.6426 156.362 78.8274L152.876 85.731L145.066 86.8459C143.741 87.0557 142.627 87.9618 142.208 89.2864C141.859 90.542 142.208 91.9356 143.184 92.8426L148.762 98.2119L147.438 105.742C147.228 106.998 147.716 108.322 148.832 109.159C149.878 109.926 151.342 110.065 152.457 109.438L159.5 105.812L166.542 109.438C167.727 110.065 169.122 109.926 170.169 109.159C171.283 108.322 171.772 106.998 171.562 105.742L170.238 98.2119L175.816 92.8426C176.792 91.9365 177.141 90.542 176.792 89.2864Z" fill="#F04B17"/>
<path d="M191.109 157.131V178.235H127.891V157.131C127.891 155.178 129.424 153.645 131.377 153.645H187.623C189.576 153.645 191.109 155.178 191.109 157.131Z" fill="#EC5569"/>
<path d="M191.109 157.131V178.235H159.5V153.645H187.623C189.576 153.645 191.109 155.178 191.109 157.131Z" fill="#F04B17"/>
<path d="M198.082 178.514C198.082 180.466 196.549 182 194.596 182H124.404C122.451 182 120.918 180.466 120.918 178.514C120.918 176.561 122.451 175.027 124.404 175.027H194.596C196.549 175.027 198.082 176.561 198.082 178.514Z" fill="#697C86"/>
<path d="M198.082 178.514C198.082 180.466 196.549 182 194.596 182H159.5V175.027H194.596C196.549 175.027 198.082 176.561 198.082 178.514Z" fill="#465A61"/>
</g>
<circle cx="76" cy="169" r="40.5" fill="white" stroke="#FFC000" stroke-width="7"/>
<path d="M58.2901 174.548V166.188C58.2901 165.675 58.3048 165.125 58.3341 164.538C58.3781 163.937 58.4368 163.313 58.5101 162.668L50.0401 174.548H58.2901ZM67.5301 174.548V178.376C67.5301 178.713 67.4128 179.007 67.1781 179.256C66.9581 179.505 66.6355 179.63 66.2101 179.63H64.2301V187H58.2901V179.63H45.3981C44.9728 179.63 44.5841 179.498 44.2321 179.234C43.8948 178.97 43.6821 178.64 43.5941 178.244L42.8901 174.878L57.7181 154.946H64.2301V174.548H67.5301Z" fill="#F04B17"/>
<path d="M69.9096 183.546C69.9096 183.018 70.0049 182.527 70.1956 182.072C70.4009 181.617 70.6722 181.221 71.0096 180.884C71.3616 180.547 71.7722 180.283 72.2416 180.092C72.7109 179.887 73.2242 179.784 73.7816 179.784C74.3242 179.784 74.8302 179.887 75.2996 180.092C75.7689 180.283 76.1796 180.547 76.5316 180.884C76.8836 181.221 77.1549 181.617 77.3456 182.072C77.5509 182.527 77.6536 183.018 77.6536 183.546C77.6536 184.074 77.5509 184.573 77.3456 185.042C77.1549 185.497 76.8836 185.893 76.5316 186.23C76.1796 186.567 75.7689 186.831 75.2996 187.022C74.8302 187.213 74.3242 187.308 73.7816 187.308C73.2242 187.308 72.7109 187.213 72.2416 187.022C71.7722 186.831 71.3616 186.567 71.0096 186.23C70.6722 185.893 70.4009 185.497 70.1956 185.042C70.0049 184.573 69.9096 184.074 69.9096 183.546Z" fill="#F04B17"/>
<path d="M87.2569 164.736C87.2569 167.933 88.7383 169.532 91.7009 169.532C93.1529 169.532 94.2676 169.099 95.0449 168.234C95.8369 167.354 96.2329 166.188 96.2329 164.736C96.2329 163.959 96.1156 163.277 95.8809 162.69C95.6609 162.089 95.3456 161.59 94.9349 161.194C94.5389 160.798 94.0549 160.497 93.4829 160.292C92.9109 160.087 92.2876 159.984 91.6129 159.984C90.9236 159.984 90.3076 160.109 89.7649 160.358C89.2369 160.593 88.7822 160.923 88.4009 161.348C88.0343 161.773 87.7483 162.279 87.5429 162.866C87.3523 163.438 87.2569 164.061 87.2569 164.736ZM92.7129 174.856C92.9183 174.607 93.1163 174.365 93.3069 174.13C93.4976 173.895 93.6736 173.661 93.8349 173.426C92.4856 174.145 90.9529 174.504 89.2369 174.504C88.1956 174.504 87.1543 174.321 86.1129 173.954C85.0716 173.573 84.1256 173.001 83.2749 172.238C82.4389 171.475 81.7569 170.515 81.2289 169.356C80.7009 168.197 80.4369 166.826 80.4369 165.242C80.4369 163.79 80.7009 162.419 81.2289 161.128C81.7716 159.837 82.5343 158.708 83.5169 157.74C84.5143 156.772 85.7023 156.009 87.0809 155.452C88.4596 154.88 89.9996 154.594 91.7009 154.594C93.4316 154.594 94.9789 154.858 96.3429 155.386C97.7069 155.914 98.8583 156.655 99.7969 157.608C100.75 158.561 101.476 159.698 101.975 161.018C102.488 162.323 102.745 163.768 102.745 165.352C102.745 167.449 102.43 169.327 101.799 170.984C101.168 172.641 100.325 174.203 99.2689 175.67L92.3609 185.482C92.0529 185.907 91.5836 186.267 90.9529 186.56C90.3369 186.853 89.6329 187 88.8409 187H82.5489L92.7129 174.856Z" fill="#F04B17"/>
<defs>
<linearGradient id="paint0_linear" x1="122.623" y1="52.6691" x2="215.409" y2="79.3626" gradientUnits="userSpaceOnUse">
<stop offset="0.00789" stop-color="#3B7BF7"/>
<stop offset="0.473958" stop-color="#416BE5"/>
<stop offset="1" stop-color="#6966E0"/>
</linearGradient>
<clipPath id="clip0">
<rect x="100" y="63" width="119" height="119" fill="white"/>
</clipPath>
</defs>
</svg>
