<svg width="123" height="37" viewBox="0 0 123 37" fill="none" xmlns="http://www.w3.org/2000/svg">
<path fill-rule="evenodd" clip-rule="evenodd" d="M99.4558 0.36707C97.7537 0.0761815 96.1502 1.29495 95.8742 3.08926C95.5983 4.88357 96.7544 6.57396 98.4565 6.86485L112.497 9.26441C77.742 36.9631 33.655 38.085 5.41715 5.81394C4.24801 4.47782 2.27276 4.39379 1.0053 5.62625C-0.262164 6.85871 -0.341875 8.94096 0.827256 10.2771C31.0897 44.8618 77.435 43.7602 113.707 16.4929L110.652 27.0599C110.149 28.7986 111.079 30.6378 112.728 31.1678C114.378 31.6977 116.122 30.7178 116.625 28.979L122.339 9.21759C122.652 8.79494 122.872 8.28527 122.959 7.71809C123.235 5.92378 122.079 4.23339 120.377 3.9425L99.4558 0.36707Z" fill="#FFC000"/>
</svg>
