<svg width="32" height="32" viewBox="0 0 32 32" fill="none" xmlns="http://www.w3.org/2000/svg">
<path d="M27.6878 0H4.3121C1.93064 0 0 1.93056 0 4.3121V27.688C0 30.0695 1.93056 32.0001 4.3121 32.0001H15.8409L15.8605 20.565H12.8897C12.5036 20.565 12.1903 20.2528 12.1888 19.8667L12.1745 16.1807C12.173 15.7925 12.4873 15.477 12.8755 15.477H15.841V11.9154C15.841 7.7822 18.3653 5.53163 22.0524 5.53163H25.0779C25.465 5.53163 25.7789 5.84546 25.7789 6.23264V9.3407C25.7789 9.72772 25.4653 10.0415 25.0783 10.0417L23.2216 10.0426C21.2164 10.0426 20.8282 10.9954 20.8282 12.3937V15.4771H25.2342C25.654 15.4771 25.9797 15.8437 25.9303 16.2606L25.4934 19.9466C25.4516 20.2994 25.1525 20.5651 24.7973 20.5651H20.8478L20.8282 32.0002H27.688C30.0694 32.0002 32 30.0697 32 27.6882V4.3121C31.9999 1.93056 30.0694 0 27.6878 0Z" fill="white"/>
</svg>
