<svg width="64" height="50" viewBox="0 0 64 50" fill="none" xmlns="http://www.w3.org/2000/svg">
<path fill-rule="evenodd" clip-rule="evenodd" d="M13 16.8202C16.6282 14.6506 22.3751 11.8327 29.9112 10.5141C34.0485 9.7914 38.2626 9.59871 42.4496 9.94072L45.6666 25.9923C45.6666 25.9923 39.4044 30.0688 34.9432 32.1352C31.8285 33.577 27.0617 35.2095 20.3422 35.4927L13 16.8202ZM13 8.04689C17.3929 6.73828 23.947 5.38965 31.843 5.95111C35.2867 6.19693 38.6968 6.78426 42.0221 7.70426L42.3334 8.65149C37.0568 7.6575 31.6485 7.55308 26.3367 8.34262C22.2276 8.95666 18.218 10.1038 14.4115 11.7545L13 8.04689ZM13.8058 0.442184C18.2525 -0.121775 24.912 -0.423137 32.6697 1.29625C37.2482 2.31257 41.6742 3.91233 45.8372 6.05552L48.8496 23.2213L46.7857 24.8481L43.3186 7.07278C39.6391 5.33448 35.7367 4.1026 31.7199 3.41141C24.6511 2.19846 18.7059 2.92123 14.9205 3.69652L13.8058 0.442184ZM25.6666 44.181C30.1066 42.974 34.4516 41.4472 38.6667 39.613C42.3165 38.0246 45.8607 36.2082 49.2777 34.1747L50.333 37.9812C47.4503 40.2874 44.3851 42.3607 41.167 44.181C36.9227 46.5802 32.4351 48.5306 27.7785 50L25.6666 44.181ZM50.9999 32.7279L52.3779 31.5369L53 35.5646L51.4445 36.812L50.9999 32.7279Z" fill="white"/>
<path fill-rule="evenodd" clip-rule="evenodd" d="M6.63339 27.7494C5.01039 24.4966 7.00641 19.9917 11.531 15.362L11.3684 15C2.91754 21.248 -1.58902 27.7946 0.512514 32.008C3.66109 38.3205 20.4479 37.004 38.008 29.0683C45.7289 25.579 52.3128 21.3904 57 17.256C53.0309 20.3031 48.0998 23.2506 42.5208 25.7715C25.9022 33.2823 9.83472 34.1681 6.63339 27.75" fill="#FFC000"/>
<path fill-rule="evenodd" clip-rule="evenodd" d="M63.5204 13.3027C61.839 10.0311 56.0167 9.23952 48.4996 10.7087L48.621 11.3676C52.9639 11.3056 56.1241 12.3615 57.2826 14.6141C59.9946 19.8892 50.7078 29.7228 36.5398 36.5786C32.5785 38.4949 28.6563 39.9754 25 41C30.236 40.3023 36.5494 38.3597 42.9573 35.259C57.0441 28.4427 66.251 18.6129 63.5204 13.3027Z" fill="#FFC000"/>
</svg>
