<svg width="23" height="21" viewBox="0 0 23 21" fill="none" xmlns="http://www.w3.org/2000/svg">
<path d="M10.9186 0.596885C11.277 -0.174847 12.3742 -0.174848 12.7325 0.596884L15.2249 5.96362C15.3706 6.27737 15.6681 6.49353 16.0115 6.53516L21.8858 7.2471C22.7305 7.34948 23.0695 8.39292 22.4463 8.97226L18.1124 13.001C17.8591 13.2366 17.7454 13.5863 17.812 13.9258L18.9501 19.7325C19.1138 20.5675 18.2262 21.2124 17.4826 20.7987L12.3118 17.9219C12.0095 17.7537 11.6417 17.7537 11.3394 17.9219L6.16857 20.7987C5.42501 21.2124 4.5374 20.5675 4.70107 19.7325L5.83921 13.9258C5.90574 13.5863 5.7921 13.2366 5.53873 13.001L1.20484 8.97226C0.581629 8.39292 0.920664 7.34948 1.76538 7.2471L7.63962 6.53516C7.98304 6.49353 8.28056 6.27737 8.42627 5.96362L10.9186 0.596885Z" fill="#FFE69B"/>
</svg>
