<svg width="22" height="21" viewBox="0 0 22 21" fill="none" xmlns="http://www.w3.org/2000/svg">
<path d="M10.1425 0.596885C10.5009 -0.174847 11.598 -0.174848 11.9564 0.596884L14.4488 5.96362C14.5945 6.27737 14.892 6.49353 15.2354 6.53516L21.1097 7.2471C21.9544 7.34948 22.2934 8.39292 21.6702 8.97226L17.3363 13.001C17.0829 13.2366 16.9693 13.5863 17.0358 13.9258L18.174 19.7325C18.3376 20.5675 17.45 21.2124 16.7065 20.7987L11.5356 17.9219C11.2333 17.7537 10.8656 17.7537 10.5633 17.9219L5.39245 20.7987C4.64889 21.2124 3.76128 20.5675 3.92494 19.7325L5.06308 13.9258C5.12962 13.5863 5.01598 13.2366 4.76261 13.001L0.428717 8.97226C-0.194494 8.39292 0.144541 7.34948 0.989253 7.2471L6.8635 6.53516C7.20692 6.49353 7.50444 6.27737 7.65015 5.96362L10.1425 0.596885Z" fill="white"/>
</svg>
