<svg width="312" height="276" viewBox="0 0 312 276" fill="none" xmlns="http://www.w3.org/2000/svg">
<g filter="url(#filter0_d)">
<path d="M273.061 118.992C272.337 118.757 265.767 116.685 258.265 116.685C253.568 116.685 249.449 117.511 245.981 119.135C245.912 117.934 245.826 116.737 245.709 115.542C251.595 113.875 259.617 110.515 264.177 103.994C271.538 93.4655 268.077 77.248 267.66 75.4336C266.836 71.8664 263.457 69.4982 259.827 69.9401C258.07 70.1545 243.144 72.243 235.36 81.5201C234.828 80.5317 234.279 79.5472 233.707 78.5775C233.67 78.5122 233.629 78.4488 233.59 78.3854C238.22 74.38 244.067 67.943 245.446 60.1074C247.675 47.4478 237.698 34.2175 236.554 32.75C234.301 29.8652 230.239 29.1473 227.136 31.0866C225.636 32.0265 212.979 40.2443 209.844 51.9567C207.042 49.8626 204.121 47.9195 201.085 46.1592C197.667 44.1789 193.295 45.3481 191.318 48.7698C189.341 52.1935 190.508 56.5737 193.926 58.5541C203.179 63.9189 211.041 71.1149 217.171 79.5211C217.474 79.9574 217.735 80.3154 217.94 80.5914C223.895 89.061 228.113 98.7091 230.245 108.937C230.459 110.263 230.66 111.19 230.742 111.548C230.744 111.553 230.745 111.559 230.747 111.565C231.47 115.758 231.846 120.038 231.846 124.366C231.846 130.201 231.183 135.882 229.934 141.342C229.481 142.884 229.234 143.988 229.148 144.391C229.137 144.447 229.132 144.505 229.12 144.561C226.348 154.623 221.557 163.853 215.211 171.786C214.764 172.315 214.407 172.757 214.161 173.073C207.576 180.949 199.434 187.474 190.208 192.162C188.875 192.755 187.985 193.217 187.706 193.366C187.68 193.379 187.658 193.396 187.634 193.409C178 197.855 167.285 200.34 156 200.34C144.715 200.34 133.998 197.855 124.363 193.407C124.338 193.394 124.318 193.379 124.294 193.366C124.015 193.217 123.128 192.757 121.796 192.164C112.57 187.474 104.423 180.949 97.8391 173.071C97.5934 172.757 97.2359 172.315 96.7892 171.788C90.445 163.853 85.6533 154.625 82.8796 144.563C82.8702 144.505 82.8647 144.449 82.8516 144.391C82.766 143.988 82.5184 142.884 82.0642 141.342C80.8169 135.882 80.1542 130.201 80.1542 124.366C80.1542 120.04 80.5303 115.762 81.2525 111.568C81.2525 111.561 81.2563 111.555 81.2581 111.548C81.34 111.19 81.543 110.263 81.7552 108.935C83.8867 98.7147 88.0994 89.0741 94.0489 80.6082C94.2593 80.3266 94.5292 79.9555 94.8438 79.5024C100.972 71.1037 108.828 63.9152 118.078 58.5541C121.494 56.5756 122.663 52.1954 120.686 48.7717C118.709 45.3481 114.336 44.1789 110.918 46.1592C107.88 47.9195 104.96 49.8644 102.158 51.9585C99.0249 40.2443 86.3663 32.0265 84.864 31.0866C81.7626 29.1473 77.6988 29.8652 75.4463 32.75C74.3015 34.2175 64.3253 47.4478 66.5536 60.1093C67.9331 67.9448 73.7802 74.3819 78.4099 78.3854C78.3727 78.4507 78.3318 78.5122 78.2927 78.5775C77.7212 79.5472 77.1739 80.5317 76.6415 81.5219C68.8564 72.243 53.9304 70.1545 52.1749 69.9401C48.5467 69.4963 45.1643 71.8645 44.3414 75.4354C43.9226 77.2498 40.4638 93.4655 47.8244 103.994C52.3834 110.515 60.4049 113.875 66.2912 115.544C66.1739 116.737 66.0882 117.936 66.0175 119.137C62.5513 117.513 58.4335 116.687 53.7349 116.687C46.2347 116.687 39.6633 118.757 38.9392 118.992C35.4618 120.125 33.3973 123.706 34.1568 127.288C34.544 129.11 38.2504 145.269 49.3639 151.699C53.1411 153.883 57.8229 154.99 63.2754 154.99C63.2773 154.99 63.2773 154.99 63.2791 154.99C66.0529 154.99 68.6982 154.707 70.9693 154.338C71.3695 155.473 71.7884 156.6 72.2314 157.713C72.2277 157.713 72.224 157.713 72.2202 157.713C60.1219 157.713 48.8818 167.892 47.6401 169.052C44.9669 171.551 44.6058 175.668 46.8062 178.596C47.925 180.082 58.1021 193.159 70.8874 194.28C71.4942 194.334 72.116 194.36 72.7378 194.36C72.7396 194.36 72.7378 194.36 72.7396 194.36C80.0072 194.36 86.962 190.689 91.6289 187.506C92.4703 188.367 93.3267 189.212 94.2016 190.038C83.2072 195.147 77.3098 209.092 76.6452 210.738C75.2751 214.136 76.688 218.02 79.9159 219.741C80.9528 220.293 90.324 225.136 100.071 225.136C100.071 225.136 100.071 225.136 100.073 225.136C103.068 225.136 105.857 224.673 108.359 223.761C115.827 221.039 121.142 214.147 124.273 208.881C126.842 209.852 129.465 210.708 132.138 211.443C127.978 215.682 124.167 221.076 120.824 227.547C119.009 231.058 120.381 235.379 123.888 237.197C127.393 239.015 131.707 237.642 133.522 234.129C139.914 221.757 148.107 214.662 156.002 214.662C163.895 214.662 172.089 221.757 178.48 234.129C179.752 236.589 182.248 237.999 184.836 237.999C185.941 237.999 187.066 237.741 188.116 237.197C191.621 235.379 192.993 231.058 191.178 227.545C187.835 221.074 184.024 215.68 179.863 211.443C182.537 210.708 185.16 209.852 187.727 208.881C190.86 214.145 196.174 221.039 203.645 223.761C206.145 224.673 208.934 225.136 211.931 225.136C221.678 225.136 231.047 220.293 232.084 219.739C235.314 218.02 236.725 214.136 235.355 210.738C234.692 209.092 228.795 195.145 217.8 190.038C218.675 189.21 219.531 188.365 220.373 187.506C225.04 190.689 231.995 194.36 239.262 194.36C239.884 194.36 240.508 194.334 241.114 194.28C253.9 193.159 264.077 180.082 265.194 178.596C267.394 175.668 267.035 171.551 264.36 169.052C263.12 167.892 251.878 157.713 239.78 157.713C239.776 157.713 239.772 157.713 239.769 157.713C240.213 156.6 240.632 155.473 241.031 154.338C243.302 154.707 245.949 154.99 248.724 154.99C254.179 154.99 258.859 153.883 262.638 151.699C273.75 145.269 277.458 129.112 277.843 127.29C278.603 123.704 276.54 120.125 273.061 118.992Z" fill="url(#paint0_linear)"/>
</g>
<defs>
<filter id="filter0_d" x="0" y="0" width="312" height="276" filterUnits="userSpaceOnUse" color-interpolation-filters="sRGB">
<feFlood flood-opacity="0" result="BackgroundImageFix"/>
<feColorMatrix in="SourceAlpha" type="matrix" values="0 0 0 0 0 0 0 0 0 0 0 0 0 0 0 0 0 0 127 0"/>
<feOffset dy="4"/>
<feGaussianBlur stdDeviation="17"/>
<feColorMatrix type="matrix" values="0 0 0 0 0.302689 0 0 0 0 0.29908 0 0 0 0 0.445833 0 0 0 1 0"/>
<feBlend mode="normal" in2="BackgroundImageFix" result="effect1_dropShadow"/>
<feBlend mode="normal" in="SourceGraphic" in2="effect1_dropShadow" result="shape"/>
</filter>
<linearGradient id="paint0_linear" x1="156" y1="30" x2="156" y2="238" gradientUnits="userSpaceOnUse">
<stop stop-color="#FFC000"/>
<stop offset="1" stop-color="#EF1717"/>
</linearGradient>
</defs>
</svg>
