<svg width="452" height="347" viewBox="0 0 452 347" fill="none" xmlns="http://www.w3.org/2000/svg">
<path d="M252.156 235.253C252.196 247.273 242.471 257.064 230.451 257.105L76.8679 257.624C64.8471 257.664 55.0562 247.939 55.0156 235.919C54.975 223.898 64.7 214.107 76.7208 214.066L230.303 213.548C242.395 213.577 252.115 223.232 252.156 235.253Z" fill="#FFE69B"/>
<path d="M430.101 250.613L448.152 249.177" stroke="#6966E0" stroke-width="6" stroke-linecap="round"/>
<path d="M438.408 240.87L439.845 258.921" stroke="#6966E0" stroke-width="6" stroke-linecap="round"/>
<path d="M131 191.627L149.051 190.19" stroke="#6966E0" stroke-width="6" stroke-linecap="round"/>
<path d="M139.307 181.883L140.744 199.934" stroke="#6966E0" stroke-width="6" stroke-linecap="round"/>
<path fill-rule="evenodd" clip-rule="evenodd" d="M224.799 264.571C226.076 265.626 226.255 267.517 225.199 268.794L216.199 279.681C215.144 280.958 213.253 281.138 211.976 280.082L201.089 271.082C199.812 270.026 199.632 268.135 200.688 266.858L209.688 255.971C210.744 254.694 212.635 254.515 213.912 255.571L224.799 264.571ZM218.663 267.284L212.401 262.106L207.224 268.369L213.486 273.546L218.663 267.284Z" fill="#F04B17"/>
<path fill-rule="evenodd" clip-rule="evenodd" d="M140.081 28.0863C141.625 27.4864 143.363 28.252 143.963 29.7964L149.078 42.9633C149.678 44.5077 148.912 46.246 147.368 46.846L134.201 51.9608C132.657 52.5607 130.918 51.7951 130.318 50.2507L125.204 37.0838C124.604 35.5394 125.369 33.8011 126.914 33.2011L140.081 28.0863ZM139.457 34.7655L131.883 37.7077L134.825 45.2817L142.399 42.3395L139.457 34.7655Z" fill="#F04B17"/>
<path d="M248.941 339.241L231.691 335.507L243.55 322.435L248.941 339.241Z" stroke="#416BE5" stroke-width="6" stroke-linecap="round" stroke-linejoin="round"/>
<path d="M87.7306 244.488L83.8438 227.271L100.697 232.513L87.7306 244.488Z" stroke="#416BE5" stroke-width="6" stroke-linecap="round" stroke-linejoin="round"/>
<path fill-rule="evenodd" clip-rule="evenodd" d="M316.664 263.66C317.332 264.261 317.694 265.13 317.653 266.027L317.108 277.803C317.031 279.459 315.627 280.738 313.972 280.662C312.317 280.585 311.037 279.181 311.114 277.526L311.49 269.402L303.449 270.62C301.811 270.868 300.282 269.741 300.034 268.103C299.786 266.465 300.913 264.935 302.551 264.687L314.207 262.922C315.095 262.788 315.997 263.058 316.664 263.66Z" fill="#416BE5"/>
<path fill-rule="evenodd" clip-rule="evenodd" d="M107.286 105.047C107.739 104.271 108.516 103.74 109.403 103.598L121.045 101.739C122.681 101.478 124.219 102.592 124.48 104.229C124.741 105.865 123.627 107.403 121.991 107.664L113.96 108.946L116.786 116.572C117.362 118.126 116.569 119.852 115.015 120.428C113.462 121.004 111.735 120.211 111.16 118.657L107.063 107.603C106.751 106.761 106.833 105.823 107.286 105.047Z" fill="#416BE5"/>
<path fill-rule="evenodd" clip-rule="evenodd" d="M153.451 324.921C153.409 325.818 152.967 326.649 152.246 327.186L142.792 334.228C141.463 335.218 139.584 334.943 138.594 333.614C137.604 332.286 137.879 330.406 139.208 329.416L145.73 324.558L139.692 319.11C138.462 318 138.364 316.103 139.474 314.873C140.584 313.643 142.481 313.546 143.711 314.655L152.464 322.553C153.131 323.154 153.493 324.023 153.451 324.921Z" fill="#416BE5"/>
<path fill-rule="evenodd" clip-rule="evenodd" d="M297.401 3.00004C302.837 3.04142 307.273 7.44746 307.291 12.8243L307.659 121.676L307.752 131.533C307.711 136.97 303.305 141.406 297.928 141.424L12.8913 142.757C7.45455 142.716 3.01865 138.31 3.00047 132.933L3.00004 132.813C3.04143 127.376 7.44747 122.941 12.8243 122.922L71.7346 122.413C77.171 122.335 81.577 117.899 81.5589 112.522C81.4808 107.085 77.0449 102.679 71.668 102.698L63.1846 102.726C57.7478 102.685 53.3118 98.2788 53.2937 92.9019L53.2933 92.7825C53.3347 87.3457 57.7407 82.9098 63.1176 82.8916L71.601 82.863C77.0374 82.7849 81.4435 78.349 81.4253 72.9721C81.3472 67.5357 76.9113 63.1297 71.5344 63.1479L24.0987 63.308C18.6619 63.2666 14.226 58.8606 14.2078 53.4838L14.2074 53.3643C14.2488 47.9275 18.6548 43.4916 24.0317 43.4735L90.8241 43.2479C96.2605 43.1698 100.667 38.7339 100.648 33.357C100.57 27.9206 96.1344 23.5146 90.7575 23.5327L75.7024 23.5836C70.2656 23.5422 65.8297 19.1362 65.8115 13.7593L65.8111 13.6398C65.8525 8.20305 70.2585 3.76715 75.6354 3.74898L297.401 3.00004ZM97.6484 33.3834C97.5847 29.5676 94.4643 26.5202 90.7677 26.5327L75.696 26.5836L75.6795 26.5835C68.6298 26.5299 62.8353 20.8211 62.8115 13.7695L62.8111 13.6335L62.8112 13.617C62.8649 6.56727 68.5736 0.772824 75.6252 0.749009L297.407 0L297.423 0.000123382C304.473 0.0537864 310.268 5.76252 310.291 12.8142L310.659 121.647L310.659 121.666L310.752 131.53L310.752 131.556C310.698 138.605 304.99 144.4 297.938 144.424L12.8852 145.757L12.8685 145.757C5.81893 145.703 0.0245766 139.995 0.000481606 132.943L0 132.807L0.000137806 132.79C0.0537988 125.741 5.76252 119.946 12.8142 119.922L71.6915 119.413C71.6966 119.413 71.7017 119.413 71.7067 119.413C75.5173 119.35 78.562 116.239 78.5589 112.549C78.4955 108.733 75.375 105.685 71.6781 105.698L63.1782 105.726L63.1617 105.726C56.112 105.672 50.3175 99.9637 50.2937 92.9121L50.2932 92.7762L50.2934 92.7596C50.347 85.7099 56.0558 79.9155 63.1074 79.8916L71.5579 79.8633C71.5627 79.8632 71.5675 79.8632 71.5723 79.8631C75.3833 79.8006 78.4285 76.6892 78.4254 72.9992C78.3619 69.1831 75.2414 66.1354 71.5446 66.1478L24.0923 66.3081L24.0758 66.3079C17.0261 66.2543 11.2317 60.5456 11.2078 53.4939L11.2074 53.3582L11.2075 53.3415C11.2612 46.2917 16.9699 40.4973 24.0215 40.4735L90.781 40.2482C90.7861 40.2481 90.7911 40.248 90.7962 40.2479C94.6071 40.185 97.652 37.0734 97.6484 33.3834Z" fill="#6966E0"/>
</svg>
