<svg width="531" height="382" viewBox="0 0 531 382" fill="none" xmlns="http://www.w3.org/2000/svg">
<path d="M122.364 362.388L122 254.767C121.982 249.393 126.351 244.995 131.725 244.976L468.923 243C474.297 242.982 478.696 247.351 478.714 252.725L478.715 252.867C478.733 258.24 474.364 262.639 468.99 262.657L454.141 262.708C448.767 262.726 444.397 267.125 444.415 272.499C444.434 277.873 448.833 282.242 454.206 282.224L520.391 282C525.765 281.982 530.164 286.351 530.182 291.725L530.183 291.867C530.201 297.241 525.832 301.639 520.458 301.658L473.435 301.746C468.061 301.764 463.692 306.163 463.71 311.537C463.728 316.911 468.127 321.28 473.501 321.262L481.845 321.234C487.219 321.215 491.618 325.585 491.636 330.959L491.636 331.1C491.654 336.474 487.285 340.873 481.911 340.891L473.567 340.919C468.193 340.937 463.824 345.336 463.842 350.71C463.861 356.084 468.259 360.453 473.633 360.435L508.706 360.317C514.08 360.299 518.478 364.668 518.497 370.042L518.497 370.183C518.515 375.557 514.146 379.956 508.772 379.974L132.117 381.942C126.743 381.961 122.344 377.591 122.326 372.217L122.364 362.388Z" fill="#FFE69B"/>
<path fill-rule="evenodd" clip-rule="evenodd" d="M434.658 225.851C434.526 224.2 435.758 222.754 437.41 222.623L455.461 221.186C457.112 221.055 458.558 222.287 458.689 223.939C458.821 225.59 457.589 227.036 455.937 227.167L437.886 228.604C436.234 228.736 434.789 227.503 434.658 225.851Z" fill="#6966E0"/>
<path fill-rule="evenodd" clip-rule="evenodd" d="M445.717 212.879C444.065 213.011 442.833 214.456 442.964 216.108L444.401 234.159C444.533 235.81 445.978 237.043 447.63 236.911C449.281 236.78 450.514 235.334 450.382 233.683L448.946 215.632C448.814 213.98 447.369 212.748 445.717 212.879Z" fill="#6966E0"/>
<path fill-rule="evenodd" clip-rule="evenodd" d="M114.413 218.467C114.282 216.816 115.514 215.37 117.165 215.239L135.216 213.802C136.868 213.671 138.313 214.903 138.445 216.555C138.576 218.206 137.344 219.652 135.692 219.783L117.641 221.22C115.99 221.351 114.544 220.119 114.413 218.467Z" fill="#6966E0"/>
<path fill-rule="evenodd" clip-rule="evenodd" d="M125.472 205.495C123.821 205.627 122.588 207.072 122.72 208.724L124.157 226.775C124.288 228.427 125.734 229.659 127.385 229.527C129.037 229.396 130.269 227.95 130.138 226.299L128.701 208.248C128.569 206.596 127.124 205.364 125.472 205.495Z" fill="#6966E0"/>
<path fill-rule="evenodd" clip-rule="evenodd" d="M320.197 244.684C321.474 245.739 321.653 247.63 320.597 248.907L311.597 259.794C310.541 261.071 308.65 261.251 307.373 260.195L296.487 251.195C295.21 250.139 295.03 248.248 296.086 246.971L305.086 236.084C306.142 234.807 308.033 234.628 309.31 235.684L320.197 244.684ZM314.061 247.397L307.799 242.219L302.622 248.482L308.884 253.659L314.061 247.397Z" fill="#F04B17"/>
<path fill-rule="evenodd" clip-rule="evenodd" d="M410.68 1.08633C412.225 0.486383 413.963 1.25203 414.563 2.79645L419.678 15.9633C420.278 17.5077 419.512 19.246 417.968 19.846L404.801 24.9608C403.256 25.5607 401.518 24.7951 400.918 23.2507L395.803 10.0838C395.203 8.53943 395.969 6.80108 397.513 6.20113L410.68 1.08633ZM410.056 7.76547L402.482 10.7077L405.425 18.2817L412.999 15.3395L410.056 7.76547Z" fill="#F04B17"/>
<path fill-rule="evenodd" clip-rule="evenodd" d="M491.752 109.9C491.032 110.694 489.943 111.043 488.896 110.817L471.645 107.082C470.598 106.856 469.751 106.087 469.423 105.067C469.096 104.046 469.338 102.928 470.058 102.134L481.917 89.0623C482.638 88.2685 483.727 87.9192 484.774 88.146C485.822 88.3727 486.669 89.1411 486.996 90.1617L492.387 106.968C492.714 107.989 492.473 109.106 491.752 109.9ZM482.87 96.9422L477.993 102.318L485.087 103.853L482.87 96.9422Z" fill="#416BE5"/>
<path fill-rule="evenodd" clip-rule="evenodd" d="M72.7099 159.084C71.9897 159.877 70.9008 160.227 69.8533 160L52.6028 156.266C51.5553 156.039 50.7083 155.27 50.3809 154.25C50.0536 153.229 50.2955 152.112 51.0157 151.318L62.8749 138.246C63.5951 137.452 64.684 137.103 65.7316 137.329C66.7791 137.556 67.6261 138.324 67.9535 139.345L73.3446 156.152C73.672 157.172 73.4301 158.29 72.7099 159.084ZM63.8274 146.126L58.9508 151.501L66.0442 153.036L63.8274 146.126Z" fill="#416BE5"/>
<path fill-rule="evenodd" clip-rule="evenodd" d="M155.092 60.1846C154.069 59.8662 153.293 59.0261 153.057 57.9806L149.17 40.7638C148.934 39.7183 149.274 38.6264 150.061 37.8992C150.849 37.1721 151.964 36.9202 152.988 37.2386L169.841 42.481C170.865 42.7993 171.641 43.6395 171.877 44.6849C172.113 45.7304 171.773 46.8224 170.986 47.5496L158.019 59.5239C157.231 60.2511 156.116 60.5029 155.092 60.1846ZM163.098 46.6668L156.167 44.5112L157.766 51.5907L163.098 46.6668Z" fill="#416BE5"/>
<path fill-rule="evenodd" clip-rule="evenodd" d="M313.712 7.76013C314.38 8.36146 314.743 9.23022 314.701 10.1276L314.156 21.9039C314.079 23.559 312.676 24.8386 311.02 24.762C309.365 24.6854 308.086 23.2815 308.162 21.6265L308.538 13.5025L300.497 14.7202C298.859 14.9682 297.33 13.8413 297.082 12.2031C296.834 10.565 297.961 9.03586 299.599 8.78778L311.255 7.02269C312.143 6.88819 313.045 7.1588 313.712 7.76013Z" fill="#416BE5"/>
<path fill-rule="evenodd" clip-rule="evenodd" d="M390.756 219.132C391.423 219.733 391.786 220.602 391.745 221.499L391.199 233.276C391.123 234.931 389.719 236.21 388.064 236.134C386.409 236.057 385.129 234.653 385.206 232.998L385.582 224.874L377.541 226.092C375.903 226.34 374.374 225.213 374.126 223.575C373.878 221.937 375.004 220.408 376.643 220.16L388.299 218.395C389.187 218.26 390.089 218.531 390.756 219.132Z" fill="#416BE5"/>
<path fill-rule="evenodd" clip-rule="evenodd" d="M94.5809 28.1053C95.0341 27.3297 95.811 26.798 96.6981 26.6563L108.34 24.7974C109.976 24.5362 111.514 25.6507 111.775 27.2868C112.036 28.923 110.922 30.4611 109.286 30.7224L101.255 32.0047L104.081 39.6306C104.656 41.1842 103.864 42.9104 102.31 43.4861C100.756 44.0619 99.0303 43.2691 98.4546 41.7155L94.3581 30.6612C94.0459 29.8189 94.1277 28.881 94.5809 28.1053Z" fill="#416BE5"/>
<path fill-rule="evenodd" clip-rule="evenodd" d="M216.417 248.001C216.375 248.898 215.933 249.729 215.213 250.266L205.758 257.308C204.429 258.298 202.55 258.023 201.56 256.694C200.57 255.366 200.845 253.486 202.174 252.496L208.696 247.638L202.658 242.19C201.428 241.08 201.33 239.184 202.44 237.953C203.55 236.723 205.447 236.626 206.677 237.736L215.43 245.633C216.097 246.234 216.459 247.103 216.417 248.001Z" fill="#416BE5"/>
<g opacity="0.3">
<path d="M519.915 137.101C519.909 135.404 518.49 133.994 516.793 134L103.775 135.466C102.078 135.471 100.668 136.89 100.674 138.587C100.68 140.284 102.099 141.694 103.796 141.688L516.885 140.293C518.582 140.146 519.921 138.798 519.915 137.101Z" fill="#FFC000"/>
<path d="M419.312 163.604C419.306 161.907 417.887 160.497 416.19 160.503L3.10076 161.898C1.40371 161.904 -0.00571393 163.323 1.74182e-05 165.02C0.00574876 166.717 1.42474 168.126 3.12178 168.12L416.211 166.725C417.908 166.72 419.318 165.301 419.312 163.604Z" fill="#FFC000"/>
<path d="M458.722 149.894C458.717 148.197 457.298 146.787 455.601 146.793L42.5822 148.259C40.8851 148.265 39.4757 149.684 39.4815 151.381C39.4872 153.078 40.9062 154.487 42.6032 154.481L455.693 153.086C457.319 153.01 458.728 151.591 458.722 149.894Z" fill="#FFC000"/>
</g>
</svg>
