<svg width="172" height="147" viewBox="0 0 172 147" fill="none" xmlns="http://www.w3.org/2000/svg">
<path d="M168.316 62.8602C167.806 62.695 163.181 61.2389 157.899 61.2389C154.592 61.2389 151.691 61.8195 149.25 62.9611C149.201 62.117 149.141 61.2756 149.058 60.4354C153.203 59.2637 158.85 56.9018 162.061 52.3184C167.244 44.9183 164.807 33.5194 164.514 32.2441C163.933 29.7368 161.554 28.0722 158.998 28.3828C157.761 28.5336 147.252 30.0015 141.772 36.5221C141.397 35.8275 141.011 35.1354 140.608 34.4539C140.582 34.408 140.553 34.3635 140.526 34.3189C143.785 31.5036 147.902 26.9791 148.873 21.4716C150.442 12.5735 143.418 3.27422 142.612 2.24272C141.026 0.215099 138.167 -0.289511 135.982 1.07359C134.925 1.73417 126.014 7.51032 123.807 15.7427C121.834 14.2708 119.778 12.9051 117.64 11.6678C115.234 10.2758 112.155 11.0976 110.763 13.5027C109.371 15.9091 110.193 18.9879 112.599 20.3799C119.115 24.1507 124.65 29.2086 128.966 35.1171C129.179 35.4238 129.363 35.6754 129.507 35.8694C133.7 41.8225 136.67 48.604 138.17 55.793C138.321 56.7249 138.463 57.3763 138.52 57.628C138.522 57.6319 138.523 57.6358 138.524 57.6398C139.033 60.5875 139.298 63.5955 139.298 66.6375C139.298 70.7386 138.831 74.7323 137.952 78.5699C137.633 79.6539 137.459 80.4298 137.398 80.7129C137.391 80.7522 137.387 80.7928 137.379 80.8322C135.427 87.9046 132.054 94.3924 127.585 99.968C127.271 100.34 127.019 100.651 126.846 100.872C122.21 106.409 116.477 110.995 109.982 114.29C109.043 114.707 108.417 115.032 108.22 115.136C108.202 115.146 108.186 115.157 108.169 115.167C101.386 118.291 93.8421 120.038 85.8968 120.038C77.9515 120.038 70.4059 118.291 63.6218 115.165C63.6048 115.156 63.5904 115.146 63.5733 115.136C63.3767 115.032 62.7529 114.708 61.8144 114.291C55.3187 110.995 49.5832 106.409 44.9473 100.871C44.7743 100.651 44.5227 100.34 44.2081 99.9693C39.7413 94.3924 36.3676 87.9059 34.4147 80.8335C34.4082 80.7928 34.4043 80.7535 34.3951 80.7129C34.3348 80.4298 34.1605 79.6539 33.8407 78.5699C32.9625 74.7323 32.4959 70.7386 32.4959 66.6375C32.4959 63.5968 32.7607 60.5901 33.2692 57.6424C33.2692 57.6371 33.2718 57.6332 33.2731 57.628C33.3308 57.3763 33.4737 56.7249 33.6231 55.7917C35.1238 48.6079 38.0899 41.8317 42.2788 35.8812C42.4269 35.6833 42.6169 35.4225 42.8385 35.104C47.1532 29.2007 52.6842 24.148 59.197 20.3799C61.6021 18.9892 62.4252 15.9104 61.0333 13.504C59.6413 11.0976 56.5625 10.2758 54.1561 11.6678C52.0171 12.9051 49.9607 14.2721 47.9881 15.744C45.7822 7.51032 36.8696 1.73417 35.8119 1.07359C33.6283 -0.289511 30.7671 0.215099 29.1812 2.24272C28.3751 3.27422 21.3512 12.5735 22.9201 21.473C23.8913 26.9804 28.0082 31.5049 31.2678 34.3189C31.2416 34.3648 31.2128 34.408 31.1852 34.4539C30.7829 35.1354 30.3975 35.8275 30.0227 36.5234C24.5414 30.0015 14.0324 28.5336 12.7964 28.3828C10.2419 28.0709 7.86044 29.7355 7.28112 32.2454C6.98622 33.5207 4.55098 44.9183 9.7334 52.3184C12.9432 56.9018 18.5909 59.2637 22.7353 60.4367C22.6527 61.2756 22.5924 62.1183 22.5426 62.9624C20.1022 61.8208 17.2029 61.2402 13.8948 61.2402C8.61408 61.2402 3.98739 62.695 3.47754 62.8602C1.0292 63.6571 -0.424341 66.1736 0.110414 68.6914C0.383035 69.9719 2.99259 81.3302 10.8173 85.8494C13.4767 87.3842 16.773 88.1628 20.612 88.1628C20.6133 88.1628 20.6133 88.1628 20.6146 88.1628C22.5675 88.1628 24.43 87.9636 26.029 87.704C26.3108 88.5022 26.6057 89.2939 26.9177 90.0764C26.915 90.0764 26.9124 90.0764 26.9098 90.0764C18.3917 90.0764 10.4779 97.2313 9.60364 98.0466C7.72151 99.8029 7.46724 102.697 9.01646 104.755C9.80417 105.799 16.9696 114.991 25.9714 115.779C26.3986 115.817 26.8364 115.835 27.2742 115.835C27.2755 115.835 27.2742 115.835 27.2755 115.835C32.3924 115.835 37.2891 113.254 40.5749 111.017C41.1673 111.623 41.7702 112.216 42.3863 112.797C34.6454 116.388 30.4932 126.189 30.0253 127.347C29.0606 129.735 30.0554 132.465 32.3281 133.675C33.0582 134.063 39.6561 137.466 46.5188 137.466C46.5188 137.466 46.5188 137.466 46.5201 137.466C48.629 137.466 50.5924 137.141 52.354 136.501C57.6124 134.587 61.3544 129.743 63.5589 126.041C65.3677 126.724 67.2144 127.326 69.0965 127.842C66.1672 130.821 63.4842 134.613 61.1302 139.161C59.8523 141.629 60.8183 144.666 63.2876 145.944C65.7556 147.222 68.7925 146.257 70.0704 143.788C74.5712 135.092 80.3395 130.104 85.8981 130.104C91.4554 130.104 97.225 135.092 101.725 143.788C102.62 145.517 104.377 146.508 106.199 146.508C106.978 146.508 107.769 146.327 108.509 145.944C110.977 144.666 111.943 141.629 110.665 139.16C108.311 134.612 105.628 130.82 102.698 127.842C104.58 127.326 106.427 126.724 108.235 126.041C110.44 129.741 114.182 134.587 119.442 136.501C121.202 137.141 123.166 137.466 125.276 137.466C132.139 137.466 138.735 134.063 139.465 133.673C141.739 132.465 142.733 129.735 141.768 127.347C141.302 126.189 137.149 116.387 129.409 112.797C130.025 112.215 130.628 111.621 131.22 111.017C134.506 113.254 139.403 115.835 144.519 115.835C144.957 115.835 145.396 115.817 145.824 115.779C154.825 114.991 161.991 105.799 162.777 104.755C164.326 102.697 164.073 99.8029 162.19 98.0466C161.317 97.2313 153.402 90.0764 144.884 90.0764C144.881 90.0764 144.879 90.0764 144.876 90.0764C145.189 89.2939 145.484 88.5022 145.765 87.704C147.364 87.9636 149.227 88.1628 151.182 88.1628C155.022 88.1628 158.317 87.3842 160.978 85.8494C168.801 81.3302 171.412 69.9732 171.683 68.6927C172.218 66.1722 170.766 63.6571 168.316 62.8602Z" fill="#FFC000"/>
</svg>
