<svg width="24" height="25" viewBox="0 0 24 25" fill="none" xmlns="http://www.w3.org/2000/svg">
<path d="M12 0.975586C5.37097 0.975586 0 6.21524 0 12.6822C0 19.1491 5.37097 24.3888 12 24.3888C18.629 24.3888 24 19.1491 24 12.6822C24 6.21524 18.629 0.975586 12 0.975586ZM6.96774 19.4796H6.58065C5.72419 19.4796 5.03226 18.8046 5.03226 17.969V17.5914H6.96774V19.4796ZM6.96774 16.8361H5.03226V16.4585C5.03226 15.623 5.72419 14.948 6.58065 14.948H6.96774V16.8361ZM6.58065 10.4164C6.58065 9.58088 7.27258 8.90587 8.12903 8.90587C8.98548 8.90587 9.67742 9.58088 9.67742 10.4164C9.67742 11.2519 8.98548 11.9269 8.12903 11.9269C7.27258 11.9269 6.58065 11.2519 6.58065 10.4164ZM10.0645 19.4796H7.74194V17.5914H10.0645V19.4796ZM10.0645 16.8361H7.74194V14.948H10.0645V16.8361ZM13.1613 19.4796H10.8387V17.5914H13.1613V19.4796ZM13.1613 16.8361H10.8387V14.948H13.1613V16.8361ZM16.2581 19.4796H13.9355V17.5914H16.2581V19.4796ZM16.2581 16.8361H13.9355V14.948H16.2581V16.8361ZM15.871 11.9269C15.0145 11.9269 14.3226 11.2519 14.3226 10.4164C14.3226 9.58088 15.0145 8.90587 15.871 8.90587C16.7274 8.90587 17.4194 9.58088 17.4194 10.4164C17.4194 11.2519 16.7274 11.9269 15.871 11.9269ZM18.9677 17.969C18.9677 18.8046 18.2758 19.4796 17.4194 19.4796H17.0323V17.5914H18.9677V17.969ZM18.9677 16.8361H17.0323V14.948H17.4194C18.2758 14.948 18.9677 15.623 18.9677 16.4585V16.8361Z" fill="white"/>
</svg>
