<svg width="32" height="21" viewBox="0 0 32 21" fill="none" xmlns="http://www.w3.org/2000/svg">
<path d="M8.8 10.4376C11.0055 10.4376 12.8 8.61406 12.8 6.37283C12.8 4.13161 11.0055 2.30804 8.8 2.30804C6.5945 2.30804 4.8 4.13161 4.8 6.37283C4.8 8.61406 6.5945 10.4376 8.8 10.4376ZM26.4 3.93396H15.2C14.758 3.93396 14.4 4.29776 14.4 4.74692V12.0635H3.2V1.49509C3.2 1.04593 2.842 0.682129 2.4 0.682129H0.8C0.358 0.682129 0 1.04593 0 1.49509V19.3802C0 19.8293 0.358 20.1931 0.8 20.1931H2.4C2.842 20.1931 3.2 19.8293 3.2 19.3802V16.9413H28.8V19.3802C28.8 19.8293 29.158 20.1931 29.6 20.1931H31.2C31.642 20.1931 32 19.8293 32 19.3802V9.62466C32 6.48157 29.493 3.93396 26.4 3.93396Z" fill="white"/>
</svg>
