<svg width="60" height="60" viewBox="0 0 60 60" fill="none" xmlns="http://www.w3.org/2000/svg">
<path d="M29.9566 25.3523L31.2598 28.6332L34.6479 28.9066L32.0417 31.1849L32.9104 34.6481L29.9566 32.8254L27.0897 34.6481L27.9585 31.1849L25.3522 28.9066L28.7404 28.6332L29.9566 25.3523Z" fill="#FDFDFD"/>
<path d="M21.3574 25.6594L22.1256 27.5834L24.123 27.7437L22.5866 29.1065L23.0475 31.1908L21.3574 30.0685L19.6672 31.1908L20.1282 29.1065L18.5917 27.7437L20.5891 27.5834L21.3574 25.6594Z" fill="#FDFDFD"/>
<path d="M38.2971 25.6594L39.1613 27.5834L41.4085 27.7437L39.6799 29.1065L40.1985 31.1908L38.2971 30.0685L36.3957 31.1908L36.9142 29.1065L35.1857 27.7437L37.4328 27.5834L38.2971 25.6594Z" fill="#FDFDFD"/>
<path d="M58.9815 29.6732L58.9816 29.6732C59.745 28.6699 59.6525 27.2254 58.7878 26.3113L58.9815 29.6732ZM58.9815 29.6732L58.975 29.6822L57.1461 32.2003C57.1459 32.2006 57.1456 32.2009 57.1454 32.2012C56.4234 33.1877 56.2202 34.4472 56.6204 35.5825L56.6214 35.5854L57.6508 38.4487C58.0855 39.6576 57.5999 41.0016 56.5043 41.6229C56.5037 41.6232 56.5031 41.6236 56.5025 41.6239L53.8186 43.1106L53.8109 43.1148L53.8034 43.1193C52.8241 43.7077 52.0871 44.7623 52.0178 45.9776L51.7895 49.0071C51.693 50.2631 50.6756 51.3156 49.4473 51.4102L49.4473 51.4101L49.4387 51.4109L46.4169 51.6964C45.2008 51.7678 44.1459 52.5099 43.5595 53.5536L43.5594 53.5535L43.5539 53.5639L42.1242 56.2554L42.124 56.2553L42.1184 56.2666C41.5539 57.397 40.2224 57.8927 39.0036 57.5036C39.0027 57.5033 39.0018 57.503 39.001 57.5027L36.0942 56.5325C34.9652 56.135 33.7003 56.3331 32.7631 57.0705L30.367 58.9557C30.366 58.9564 30.3651 58.9572 30.3641 58.9579C29.3488 59.7303 27.9102 59.6716 27.0111 58.8187L27.0111 58.8187L27.0063 58.8143L24.777 56.7537C23.8452 55.8873 22.6437 55.6258 21.4685 55.8874L21.4684 55.8872L21.4556 55.8904L18.4863 56.6337C17.2218 56.9238 15.933 56.2849 15.4619 55.1525L15.4599 55.1479L14.2617 52.3485C14.2612 52.3474 14.2607 52.3462 14.2603 52.3451C13.795 51.2168 12.7976 50.4158 11.5995 50.2139L8.57341 49.6422L8.57174 49.6419C7.27343 49.4011 6.40908 48.2992 6.40704 47.0456L6.46414 43.958H6.46423V43.9488C6.46423 42.7538 5.86861 41.6243 4.87165 40.9576C4.87086 40.9571 4.87007 40.9565 4.86928 40.956L2.35724 39.2409C1.29637 38.5167 0.917548 37.1739 1.44336 36.0252L1.44495 36.0217L2.69905 33.2247C3.2278 32.1571 3.16361 30.8302 2.49744 29.8224L0.901257 27.1966L0.901342 27.1965L0.895997 27.1881C0.224587 26.1317 0.422412 24.6922 1.36998 23.8857L1.37001 23.8858L1.3754 23.8811L3.65914 21.8801C3.6598 21.8795 3.66046 21.879 3.66111 21.8784C4.60089 21.0706 4.99006 19.8702 4.85986 18.6968L4.85997 18.6968L4.85862 18.6866L4.45885 15.6557C4.31649 14.4039 5.0885 13.1995 6.28708 12.8148C6.28751 12.8146 6.28794 12.8145 6.28837 12.8144L9.20233 11.899L9.21076 11.8963L9.21909 11.8934C10.3309 11.5005 11.2564 10.5832 11.591 9.44404L12.4489 6.5235L12.449 6.52353L12.452 6.51241C12.7856 5.27181 13.9785 4.50147 15.2288 4.64592L15.2299 4.64605L18.2609 4.98964L18.2619 4.98976C19.4557 5.12257 20.6481 4.65757 21.4422 3.72993L21.4435 3.72835L23.388 1.43773L23.3881 1.43782L23.3956 1.4285C24.1993 0.434382 25.5812 0.227174 26.7032 0.860172L29.3261 2.40173C29.3269 2.40217 29.3276 2.40261 29.3283 2.40305C30.3289 3.0031 31.651 3.07026 32.7202 2.53674L35.4617 1.22136L35.4618 1.22142L35.4693 1.21765C36.6271 0.637957 38.0099 0.981015 38.7211 2.02549L38.721 2.02552L38.7254 2.0318L40.4983 4.55148L40.4982 4.55153L40.5038 4.55919C41.2186 5.5352 42.343 6.14633 43.5609 6.08036L46.6351 5.96635C47.9514 5.97028 49.0433 6.84495 49.2806 8.08016C49.2806 8.08021 49.2806 8.08027 49.2806 8.08032L49.8522 11.1137L49.8543 11.1246L49.8568 11.1355C50.1205 12.2577 50.9113 13.2512 52.0402 13.7167L52.0449 13.7186L54.8978 14.8612C54.8988 14.8616 54.8999 14.8621 54.9009 14.8625C56.0519 15.3445 56.72 16.5933 56.4331 17.8379L55.7474 20.8137C55.7473 20.8139 55.7472 20.8141 55.7472 20.8144C55.4805 21.9503 55.8116 23.2133 56.6761 24.0825L58.7876 26.311L58.9815 29.6732ZM13.2164 41.6562L13.2163 41.6562L13.2206 41.6622L13.2314 41.6774C13.5052 42.0612 13.8055 42.4821 14.169 42.8504C14.6317 43.4281 15.0965 43.951 15.6187 44.4739L15.6215 44.4767C19.3695 48.1711 24.4691 50.4617 30.0983 50.4617C41.4127 50.4617 50.5576 41.3038 50.5576 29.976C50.5576 26.9821 49.9124 24.163 48.74 21.5803L48.7362 21.5719L48.732 21.5637C48.685 21.4695 48.6381 21.3697 48.5902 21.2676C48.4902 21.0548 48.3854 20.8317 48.2643 20.6275C47.4494 19.0565 46.4589 17.597 45.2911 16.3085C45.0468 16.0048 44.75 15.7076 44.5288 15.4861L44.5208 15.4781L44.518 15.4753C40.77 11.7809 35.6704 9.49032 30.0412 9.49032C18.7267 9.49032 9.5819 18.6482 9.5819 29.976C9.5819 32.9646 10.2248 35.8374 11.3949 38.4188C11.459 38.5775 11.5363 38.7323 11.6035 38.8668L11.6076 38.8751C11.6809 39.0219 11.7427 39.1462 11.7908 39.2667L11.7985 39.286L11.8078 39.3046C12.2211 40.1323 12.6917 40.8973 13.2164 41.6562Z" stroke="white"/>
<path d="M24.3413 47.324C23.5835 47.324 22.952 47.1976 22.6573 47.1555C22.8257 46.9026 23.373 46.397 24.3834 46.1441C25.478 45.8913 26.9514 45.7649 27.4987 45.7649C27.5408 45.7649 27.5408 45.7649 27.5829 45.7649C27.4566 46.102 27.0777 46.7341 26.0252 47.1133C25.5201 47.1976 24.9728 47.324 24.3413 47.324Z" fill="#FDFDFD"/>
<path d="M27.5828 45.2173C27.0776 45.1752 25.6042 44.9223 24.8043 44.1638C24.2991 43.7003 24.0465 43.1104 24.0886 42.4783C24.4675 42.6468 25.4779 43.1104 26.3199 43.7003C27.1197 44.2481 27.4565 44.9223 27.5828 45.2173Z" fill="#FDFDFD"/>
<path d="M21.1418 45.8076C20.0473 45.8076 18.8685 45.1755 18.4896 44.9227C18.7001 44.7541 19.2474 44.417 20.1736 44.417H20.2999C21.3102 44.4591 22.5732 44.7962 23.0363 44.8805H23.0784C22.8679 45.1755 22.3627 45.6812 21.3944 45.7654C21.2681 45.8076 21.1839 45.8076 21.1418 45.8076Z" fill="#FDFDFD"/>
<path d="M23.2048 44.459C22.7838 44.2483 21.6471 43.6162 21.2262 42.6892C20.8473 41.9307 20.9315 41.2564 21.0578 40.8772C21.3525 41.1722 22.0681 41.8464 22.6154 42.647C23.1206 43.4477 23.1627 44.164 23.2048 44.459ZM21.4788 41.5514C21.3946 41.5514 21.3525 41.5936 21.3525 41.6778C21.3525 41.7621 21.3946 41.8043 21.4788 41.8043C21.563 41.8043 21.605 41.7621 21.605 41.6778C21.605 41.5936 21.5209 41.5514 21.4788 41.5514Z" fill="#FDFDFD"/>
<path d="M18.237 43.3631C18.0686 43.3631 17.8581 43.321 17.6897 43.2789C16.6372 43.026 15.6268 41.9726 15.3322 41.6354C15.5005 41.5933 15.7531 41.509 16.132 41.509C16.4688 41.509 16.8056 41.5512 17.1003 41.6776C18.0265 42.0147 19.0368 42.6889 19.4157 42.9418C19.2052 43.1103 18.8263 43.3631 18.237 43.3631Z" fill="#FDFDFD"/>
<path d="M19.6683 42.5205C19.3315 42.2255 18.5316 41.2985 18.4053 40.2872C18.279 39.4444 18.5316 38.8123 18.7421 38.5173C19.1631 39.318 19.4999 40.0343 19.6683 40.6664C19.8788 41.5092 19.7525 42.2255 19.6683 42.5205ZM18.9105 39.2758C18.8263 39.2758 18.7842 39.318 18.7842 39.4023C18.7842 39.4865 18.8263 39.5287 18.9105 39.5287C18.9947 39.5287 19.0368 39.4865 19.0368 39.4023C19.0368 39.318 18.9947 39.2758 18.9105 39.2758Z" fill="#FDFDFD"/>
<path d="M16.048 40.1606C15.7112 40.1606 15.3744 40.0763 14.9955 39.8656C14.0694 39.3178 13.3537 38.0115 13.1432 37.5901C13.1853 37.5901 13.2274 37.5901 13.2274 37.5901C13.5221 37.5901 14.1115 37.6744 14.785 38.18C15.5849 38.8121 16.3848 39.7392 16.6374 40.0763C16.4269 40.1184 16.2164 40.1606 16.048 40.1606Z" fill="#FDFDFD"/>
<path d="M17.0583 39.655C16.8478 39.2336 16.3427 38.138 16.4269 37.1267C16.5111 36.2839 16.8899 35.7361 17.1425 35.5254C17.353 36.4103 17.4793 37.2109 17.4793 37.843C17.4793 38.7279 17.1846 39.4022 17.0583 39.655Z" fill="#FDFDFD"/>
<path d="M14.6587 36.4101C14.3219 36.4101 13.8167 36.2837 13.2694 35.7359C12.5117 34.9352 12.1328 33.4604 12.0065 32.9968C12.2591 33.0811 12.8905 33.2918 13.4799 34.0503C14.1114 34.8931 14.6587 36.0308 14.8271 36.4522C14.785 36.3679 14.7429 36.4101 14.6587 36.4101Z" fill="#FDFDFD"/>
<path d="M15.2902 36.1573C15.1639 35.6938 14.9534 34.4718 15.2481 33.5447C15.5007 32.7441 16.0059 32.3648 16.3006 32.1963C16.3427 33.334 16.2164 34.1347 16.1322 34.5561C15.9217 35.3988 15.5007 35.9466 15.2902 36.1573Z" fill="#FDFDFD"/>
<path d="M13.9009 32.3229C13.5641 32.2807 13.0168 32.0279 12.5537 31.1851C12.0064 30.2159 11.9222 28.6568 11.9222 28.1511C12.1748 28.2775 12.7221 28.6989 13.101 29.5838C13.3957 30.3002 13.6904 31.2273 13.9009 32.3229Z" fill="#FDFDFD"/>
<path d="M14.3639 32.2386C14.3639 31.7751 14.406 30.5109 14.9112 29.6682C15.3322 28.9518 15.8794 28.7411 16.2162 28.699C16.0478 29.626 15.7952 30.3424 15.5427 30.9323C15.1638 31.733 14.6165 32.1122 14.3639 32.2386Z" fill="#FDFDFD"/>
<path d="M13.8587 28.151C13.564 27.9824 13.0588 27.6032 12.7641 26.6761C12.4273 25.5805 12.6799 24.0635 12.8062 23.5579C13.0167 23.7686 13.4377 24.3164 13.6482 25.3277C13.8166 26.0441 13.8587 26.9711 13.8587 28.151Z" fill="#FDFDFD"/>
<path d="M14.3218 28.1933C14.406 27.7719 14.7007 26.5499 15.3742 25.8757C15.8373 25.4122 16.3425 25.3279 16.6372 25.3279C16.7214 25.3279 16.8056 25.3279 16.8477 25.3279C16.4688 26.1707 16.0899 26.8449 15.711 27.3084C15.1638 27.9405 14.5744 28.1512 14.3218 28.1933Z" fill="#FDFDFD"/>
<path d="M14.7005 24.0637C14.4479 23.8109 14.027 23.2631 13.9849 22.2939C13.9007 21.114 14.49 19.7655 14.7005 19.302C14.8689 19.597 15.1636 20.2291 15.1215 21.2825C15.0794 22.336 14.8268 23.558 14.7005 24.0637Z" fill="#FDFDFD"/>
<path d="M15.248 24.2742C15.2059 24.2742 15.1217 24.2742 15.0796 24.2742C15.2059 23.9793 15.7953 22.7994 16.6372 22.3358C16.9319 22.1673 17.2266 22.083 17.5213 22.083C17.6897 22.083 17.9423 22.1251 18.237 22.2516C17.6897 22.9679 17.1845 23.4736 16.6793 23.8107C16.09 24.1899 15.5427 24.2742 15.248 24.2742Z" fill="#FDFDFD"/>
<path d="M16.427 20.3551C16.2165 20.018 15.9639 19.3859 16.1323 18.4167C16.3428 17.2368 17.269 16.0991 17.6057 15.762C17.6899 16.0569 17.8162 16.8154 17.5215 17.7846C17.2269 18.8381 16.6375 19.9337 16.427 20.3551Z" fill="#FDFDFD"/>
<path d="M17.648 20.8183C17.2691 20.8183 16.9323 20.734 16.806 20.6498C17.0586 20.3548 17.8585 19.4277 18.7847 19.2592C18.911 19.217 19.0373 19.217 19.2057 19.217C19.7529 19.217 20.1739 19.4699 20.3844 19.6384C20.0897 19.8491 19.2478 20.3969 18.4479 20.6919C18.1953 20.7762 17.9427 20.8183 17.648 20.8183Z" fill="#FDFDFD"/>
<path d="M19.0789 17.3214C18.9526 16.9422 18.8684 16.268 19.2894 15.3831C19.7946 14.2875 21.1417 13.4868 21.5627 13.2761C21.5627 13.6132 21.4364 14.3717 20.8891 15.2145C20.2576 16.0994 19.4157 16.9843 19.0789 17.3214Z" fill="#FDFDFD"/>
<path d="M20.973 18.2907C20.1311 18.2907 19.5417 17.9114 19.3312 17.7429C19.6259 17.5322 20.552 16.9844 21.4782 16.9844C21.5624 16.9844 21.6466 16.9844 21.6887 16.9844C22.5307 17.0687 22.9938 17.5743 23.2043 17.8693C22.8675 17.9957 21.8571 18.2485 20.973 18.2907Z" fill="#FDFDFD"/>
<path d="M21.6469 15.8887C22.0257 15.5094 22.8677 14.8352 24.1307 14.5402C24.5096 14.456 24.9305 14.4138 25.3936 14.4138C26.2356 14.4138 26.9513 14.5824 27.3723 14.7088C26.825 14.8773 25.6883 15.2566 24.5096 15.5094C23.2887 15.7201 22.1941 15.8465 21.6469 15.8887Z" fill="#FDFDFD"/>
<path d="M35.75 47.3239C35.1185 47.3239 34.5292 47.2397 34.0661 47.0711C33.0136 46.6918 32.6347 46.0598 32.5084 45.7227C32.5505 45.7227 32.5505 45.7227 32.5926 45.7227C33.1399 45.7648 34.6134 45.8491 35.7079 46.1019C36.7183 46.3547 37.2656 46.9025 37.434 47.1132C37.1393 47.1975 36.5078 47.3239 35.75 47.3239Z" fill="#FDFDFD"/>
<path d="M32.5085 45.2168C32.6348 44.9218 32.9716 44.2476 33.7715 43.6998C34.6135 43.1099 35.6238 42.6463 36.0027 42.4778C36.0027 43.1099 35.7501 43.6998 35.2871 44.1633C34.4872 44.9218 33.0137 45.1325 32.5085 45.2168ZM35.2029 42.8992C35.1187 42.8992 35.0766 42.9413 35.0766 43.0256C35.0766 43.1099 35.1187 43.152 35.2029 43.152C35.2871 43.152 35.3292 43.1099 35.3292 43.0256C35.3292 42.9835 35.2871 42.8992 35.2029 42.8992Z" fill="#FDFDFD"/>
<path d="M38.95 45.8067C38.8658 45.8067 38.7816 45.8067 38.7395 45.8067C37.7291 45.7224 37.266 45.2167 37.0555 44.9218H37.0976C37.5607 44.7954 38.8237 44.5004 39.8341 44.4583H39.9604C40.8444 44.4583 41.4338 44.7954 41.6443 44.9639C41.2654 45.1746 40.0866 45.8067 38.95 45.8067Z" fill="#FDFDFD"/>
<path d="M36.8867 44.4585C36.8867 44.1635 36.9709 43.4472 37.4761 42.6465C38.0234 41.8459 38.7391 41.1717 39.0338 40.8767C39.16 41.2981 39.2442 41.9302 38.8654 42.6887C38.4444 43.6157 37.3077 44.29 36.8867 44.4585ZM38.6128 41.5509C38.5286 41.5509 38.4865 41.5931 38.4865 41.6773C38.4865 41.7616 38.5286 41.8038 38.6128 41.8038C38.697 41.8038 38.7391 41.7616 38.7391 41.6773C38.7391 41.5931 38.697 41.5509 38.6128 41.5509Z" fill="#FDFDFD"/>
<path d="M41.8542 43.3629C41.2648 43.3629 40.8859 43.1101 40.6754 42.9415C41.0543 42.6887 42.0647 42.0145 42.9908 41.6773C43.3276 41.5509 43.6644 41.5088 43.9591 41.5088C44.338 41.5088 44.5906 41.5931 44.759 41.6352C44.4643 41.9723 43.4539 43.0679 42.4015 43.2786C42.2331 43.3208 42.0226 43.3629 41.8542 43.3629Z" fill="#FDFDFD"/>
<path d="M40.4232 42.5199C40.339 42.225 40.2127 41.5086 40.4653 40.6237C40.6337 39.9916 40.9705 39.2752 41.3914 38.4746C41.6019 38.8539 41.8545 39.4438 41.7282 40.2444C41.5177 41.2979 40.7179 42.225 40.4232 42.5199Z" fill="#FDFDFD"/>
<path d="M44.0435 40.1602C43.8751 40.1602 43.6225 40.1181 43.412 40.0338C43.6646 39.6967 44.4645 38.7696 45.2643 38.1376C45.9379 37.6319 46.5273 37.5476 46.822 37.5476C46.8641 37.5476 46.9062 37.5476 46.9062 37.5476C46.6957 37.969 45.98 39.3174 45.0538 39.8231C44.7591 40.0338 44.3803 40.1602 44.0435 40.1602Z" fill="#FDFDFD"/>
<path d="M43.033 39.6543C42.8646 39.3593 42.5699 38.7272 42.5699 37.8423C42.5699 37.1681 42.6962 36.4096 42.9067 35.5247C43.2014 35.8196 43.5803 36.3253 43.6224 37.1259C43.7487 38.1373 43.2435 39.275 43.033 39.6543Z" fill="#FDFDFD"/>
<path d="M45.3906 36.4097C45.3064 36.4097 45.2643 36.4097 45.2222 36.4097C45.3906 35.9883 45.9378 34.8506 46.5693 34.0078C47.1587 33.2493 47.7481 33.0386 48.0428 32.9543C47.9586 33.46 47.5376 34.9349 46.7798 35.6934C46.2746 36.2833 45.7694 36.4097 45.3906 36.4097Z" fill="#FDFDFD"/>
<path d="M44.8012 36.1571C44.5907 35.9464 44.1697 35.3986 43.9593 34.5558C43.833 34.0923 43.7488 33.3338 43.7909 32.196C44.0855 32.3646 44.5907 32.7439 44.8433 33.5445C45.138 34.4715 44.9275 35.6936 44.8012 36.1571Z" fill="#FDFDFD"/>
<path d="M46.1908 32.3222C46.4013 31.1845 46.696 30.2996 46.9907 29.6253C47.4117 28.7404 47.9168 28.319 48.1694 28.1926C48.1694 28.6983 48.0852 30.2153 47.538 31.2266C47.0749 32.0273 46.5276 32.2801 46.1908 32.3222Z" fill="#FDFDFD"/>
<path d="M45.7275 32.2379C45.4749 32.1115 44.9276 31.6901 44.5487 30.9316C44.3382 30.5102 44.0856 29.7939 43.8751 28.6982C44.2119 28.7404 44.7592 28.9511 45.1802 29.6674C45.6854 30.5102 45.7275 31.7744 45.7275 32.2379Z" fill="#FDFDFD"/>
<path d="M46.2325 28.1507C46.2325 27.0129 46.2746 26.0437 46.443 25.2852C46.6535 24.316 47.0745 23.7682 47.285 23.5154C47.4113 24.021 47.6639 25.4959 47.3271 26.6337C47.0324 27.5607 46.5272 27.9821 46.2325 28.1507Z" fill="#FDFDFD"/>
<path d="M45.7695 28.1928C45.5169 28.1086 44.8854 27.8979 44.3802 27.3079C44.0013 26.8444 43.5803 26.1702 43.2435 25.3274C43.2856 25.3274 43.3698 25.3274 43.454 25.3274C43.7908 25.3274 44.2539 25.4117 44.717 25.8752C45.3906 26.5073 45.6853 27.7714 45.7695 28.1928Z" fill="#FDFDFD"/>
<path d="M45.3909 24.063C45.2646 23.5994 45.012 22.3774 44.9699 21.2818C44.9278 20.2705 45.2225 19.5962 45.3909 19.3013C45.6435 19.7648 46.1908 21.1132 46.1066 22.2931C46.0645 23.2623 45.6435 23.8101 45.3909 24.063Z" fill="#FDFDFD"/>
<path d="M44.8435 24.2735C44.5488 24.2735 44.0015 24.2314 43.4121 23.81C42.907 23.4729 42.4018 22.9251 41.8545 22.2508C42.1492 22.1244 42.4018 22.0823 42.5702 22.0823C42.8649 22.0823 43.1595 22.1666 43.4542 22.3351C44.2541 22.7565 44.8435 23.8942 45.0119 24.2735C44.9277 24.2735 44.8856 24.2735 44.8435 24.2735Z" fill="#FDFDFD"/>
<path d="M43.6646 20.3549C43.4541 19.9335 42.8647 18.8379 42.57 17.7844C42.2753 16.8152 42.4016 16.0567 42.4858 15.7617C42.8226 16.141 43.7488 17.2366 43.9592 18.4165C44.1276 19.3857 43.8329 20.0599 43.6646 20.3549Z" fill="#FDFDFD"/>
<path d="M42.4438 20.8181C42.1912 20.8181 41.8965 20.7759 41.6439 20.6917C40.8441 20.4388 40.0442 19.8489 39.7074 19.6382C39.96 19.4275 40.3389 19.2168 40.8862 19.2168C41.0125 19.2168 41.1388 19.2168 41.3071 19.2589C42.2333 19.4275 43.0753 20.3545 43.2858 20.6917C43.1595 20.7338 42.8227 20.8181 42.4438 20.8181Z" fill="#FDFDFD"/>
<path d="M41.0123 17.3209C40.6755 16.9838 39.8335 16.0988 39.202 15.1718C38.6126 14.329 38.5284 13.5705 38.5284 13.2334C38.9073 13.4441 40.2966 14.2447 40.8018 15.3403C41.2228 16.2674 41.1386 16.9416 41.0123 17.3209Z" fill="#FDFDFD"/>
<path d="M39.1182 18.2899C38.2341 18.2899 37.2237 17.995 36.8448 17.8686C37.0553 17.5314 37.5184 17.0679 38.3604 16.9836C38.4446 16.9836 38.5288 16.9836 38.5709 16.9836C39.4971 16.9836 40.4232 17.5314 40.7179 17.7421C40.5916 17.8686 40.0023 18.2899 39.1182 18.2899Z" fill="#FDFDFD"/>
<path d="M38.4445 15.8881C37.8973 15.846 36.8027 15.7195 35.6239 15.4667C34.4031 15.2139 33.3085 14.8346 32.7612 14.6661C33.1401 14.5396 33.8558 14.3711 34.7399 14.3711C35.1609 14.3711 35.5818 14.4132 36.0028 14.4975C37.2237 14.8346 38.0236 15.5088 38.4445 15.8881Z" fill="#FDFDFD"/>
<path d="M53.5845 29.9998C53.5845 43.0252 43.0254 53.5843 30 53.5843C16.9747 53.5843 6.41553 43.0252 6.41553 29.9998C6.41553 16.9744 16.9747 6.41528 30 6.41528C43.0254 6.41528 53.5845 16.9744 53.5845 29.9998Z" stroke="#FDFDFD"/>
</svg>
