<svg width="22" height="25" viewBox="0 0 22 25" fill="none" xmlns="http://www.w3.org/2000/svg">
<path d="M0 19.4394V21.392C0 23.0062 3.69531 24.3187 8.25 24.3187C12.8047 24.3187 16.5 23.0062 16.5 21.392V19.4394C14.7254 20.7701 11.4812 21.392 8.25 21.392C5.01875 21.392 1.77461 20.7701 0 19.4394ZM13.75 6.7588C18.3047 6.7588 22 5.44639 22 3.83216C22 2.21793 18.3047 0.905518 13.75 0.905518C9.19531 0.905518 5.5 2.21793 5.5 3.83216C5.5 5.44639 9.19531 6.7588 13.75 6.7588ZM0 14.6424V17.0021C0 18.6163 3.69531 19.9287 8.25 19.9287C12.8047 19.9287 16.5 18.6163 16.5 17.0021V14.6424C14.7254 16.1972 11.477 17.0021 8.25 17.0021C5.02305 17.0021 1.77461 16.1972 0 14.6424ZM17.875 15.1455C20.3371 14.6379 22 13.6959 22 12.6121V10.6595C21.0031 11.4094 19.5379 11.9216 17.875 12.2371V15.1455ZM8.25 8.22213C3.69531 8.22213 0 9.85922 0 11.8804C0 13.9016 3.69531 15.5387 8.25 15.5387C12.8047 15.5387 16.5 13.9016 16.5 11.8804C16.5 9.85922 12.8047 8.22213 8.25 8.22213ZM17.673 10.7967C20.2512 10.3028 22 9.33334 22 8.22213V6.26951C20.4746 7.4173 17.8535 8.03464 15.0949 8.18097C16.3625 8.83489 17.2949 9.71288 17.673 10.7967Z" fill="white"/>
</svg>
