<svg width="60" height="60" viewBox="0 0 60 60" fill="none" xmlns="http://www.w3.org/2000/svg">
<path d="M29.6509 1.20566C29.7688 1.0607 29.8869 0.915626 30.005 0.77034C30.1509 0.956142 30.297 1.14157 30.4432 1.32557C30.5615 1.47567 30.6906 1.63136 30.8166 1.78321C30.5431 2.1318 30.2712 2.47907 29.9955 2.83116C29.722 2.48267 29.4511 2.13633 29.1783 1.78675C29.3357 1.59302 29.4931 1.39955 29.6507 1.20588L29.6509 1.20566Z" stroke="white"/>
<mask id="path-2-inside-1" fill="white">
<path d="M29.9504 45.1605C30.3825 44.7854 30.7794 44.4052 31.2165 44.0801C31.6586 43.755 32.181 43.635 32.7337 43.635C33.5124 43.635 34.2911 43.65 35.0698 43.62C35.964 43.585 36.7226 42.9147 36.8934 42.0594C36.9236 41.9044 36.9236 41.7443 36.9236 41.5893C36.9286 40.639 36.9236 39.6886 36.9236 38.7383C36.9236 38.6483 36.9236 38.5583 36.9236 38.3932C37.3456 38.4382 37.7525 38.4532 38.1494 38.5282C39.6063 38.7983 40.6462 39.7987 40.9125 41.1841C41.1034 42.1695 40.9075 43.1148 40.5006 44.0101C40.1991 44.6653 39.8173 45.2855 39.4556 45.9107C39.2747 46.2209 39.2597 46.3059 39.6013 46.4309C40.164 46.636 40.7367 46.8261 41.3245 46.9411C41.9223 47.0561 42.5352 47.0711 43.1431 47.1312C43.3189 47.1462 43.4043 47.0861 43.4596 46.9061C43.6857 46.2008 44.1278 45.6507 44.7256 45.2105C44.8964 45.0855 45.007 45.0755 45.1727 45.2155C45.7404 45.6807 46.3232 46.1258 46.911 46.586C47.2426 46.3259 47.5641 46.0758 47.8856 45.8257C48.2072 45.5756 48.5287 45.3205 48.8452 45.0755C50.4779 45.9558 51.1813 48.2015 49.8248 49.8921C48.3227 51.7677 45.3536 51.7077 43.9118 49.7871C43.5852 49.3519 43.118 49.1018 42.6407 48.8717C41.1737 48.1665 39.6113 47.8164 37.9886 47.7764C37.3757 47.7614 37.0743 47.6363 37.3657 46.9161C37.5365 46.4909 37.5616 46.0408 37.446 45.5906C37.1949 44.6203 36.2504 44.0801 35.2155 44.3002C34.7231 44.4052 34.2911 44.6353 33.8992 44.9454C33.0301 45.6357 32.0956 47.0811 31.8093 48.1965C31.96 48.2365 32.1107 48.2765 32.2614 48.3216C34.3614 48.9168 36.3307 49.7971 38.074 51.1275C38.7774 51.6627 39.3953 52.2779 39.8424 53.0532C40.2644 53.7934 40.2895 54.3536 39.5661 55.1589C39.1843 55.584 38.702 55.8591 38.1393 55.9942C38.0188 56.0242 37.9535 56.0092 37.9233 55.8791C37.3807 53.5033 35.8686 51.8328 33.9344 50.4723C33.2059 49.9621 32.4272 49.547 31.5631 49.3019C31.5179 49.2869 31.4677 49.2819 31.3973 49.2619C31.3421 49.4069 31.2868 49.542 31.2315 49.692C31.4677 49.8221 31.6937 49.9371 31.9148 50.0722C33.8238 51.2375 35.2355 52.8081 35.9941 54.9388C36.386 56.0392 36.1097 56.7344 35.1853 57.4397C34.8939 57.6647 34.5372 57.8148 34.1956 57.9698C33.9293 58.0899 33.8942 58.0549 33.8741 57.7748C33.7987 56.7244 33.5877 55.6991 33.2561 54.6987C32.804 53.3433 32.1861 52.0778 31.2416 50.9875C31.1612 50.8924 31.0708 50.8074 30.9452 50.6674C30.905 51.0075 30.8146 51.2826 30.915 51.5827C31.3672 52.9181 31.749 54.2736 31.9751 55.6641C32.0856 56.3443 32.1308 57.0345 32.1861 57.7247C32.2162 58.1149 32.0504 58.455 31.8093 58.7551C31.3521 59.3203 30.7492 59.6954 30.0911 59.9805C30.0258 60.0105 29.9203 60.0055 29.86 59.9705C29.428 59.7004 28.9859 59.4453 28.584 59.1402C27.9007 58.6201 27.7751 57.8998 27.8555 57.0795C28.0263 55.3139 28.4483 53.6034 29.0009 51.9228C29.1316 51.5226 29.1969 51.1375 29.0662 50.6774C28.8804 50.8874 28.6995 51.0775 28.5387 51.2826C27.3782 52.7981 26.695 54.5187 26.3383 56.3743C26.2428 56.8645 26.1976 57.3646 26.1424 57.8598C26.1223 58.0249 26.067 58.0649 25.9163 58.0148C25.1527 57.7498 24.4996 57.3346 24.0776 56.6294C23.8465 56.2492 23.7862 55.8441 23.9017 55.404C24.4393 53.3983 25.635 51.8578 27.2778 50.6373C27.745 50.2872 28.2574 50.0071 28.7799 49.677C28.7397 49.567 28.6844 49.4219 28.6191 49.2519C28.3378 49.3469 28.0715 49.4219 27.8254 49.532C25.5797 50.5373 23.8012 52.0628 22.6709 54.2636C22.4247 54.7487 22.2891 55.2889 22.1182 55.8091C22.068 55.9742 22.0278 56.0492 21.8319 55.9942C21.1085 55.7891 20.5307 55.389 20.1338 54.7537C19.8424 54.2936 19.7972 53.8134 20.0484 53.3083C20.4704 52.448 21.1185 51.7777 21.862 51.1975C23.6706 49.7921 25.7204 48.8868 27.9208 48.2815C28.0112 48.2565 28.0966 48.2315 28.177 48.2115C28.1871 48.1865 28.2021 48.1665 28.1971 48.1565C27.7651 46.9661 27.1823 45.8657 26.2026 45.0304C25.5998 44.5153 24.9165 44.1952 24.0926 44.2752C23.2637 44.3552 22.5754 45.0154 22.5302 45.8407C22.5101 46.2359 22.5804 46.656 22.6859 47.0411C22.8266 47.5663 22.7211 47.7564 22.1685 47.7664C20.5709 47.8064 19.0336 48.1265 17.5717 48.7767C17.2552 48.9168 16.9537 49.1018 16.6221 49.2819C17.1446 49.7671 17.6319 50.2172 18.1193 50.6724C18.491 51.0175 18.5362 51.3576 18.2599 51.6477C17.9786 51.9428 17.5516 51.9328 17.2049 51.6177C16.7678 51.2175 16.3257 50.8174 15.8987 50.4073C15.7631 50.2772 15.6676 50.2372 15.4717 50.3272C14.5825 50.7424 13.5375 50.5423 12.8743 49.8671C12.2564 49.2369 12.1258 48.3416 12.5428 47.5613C12.5679 47.5113 12.598 47.4613 12.6282 47.4013C12.4423 47.2262 12.2614 47.0511 12.0806 46.8811C10.3725 45.2705 8.65933 43.665 6.96127 42.0444C6.75529 41.8494 6.60959 41.7994 6.34835 41.9444C5.84597 42.2145 5.29837 42.0294 5.03713 41.5493C4.33379 41.8644 3.64049 41.8094 2.97734 41.4292C2.46491 41.1341 2.03788 40.5239 1.96252 40.0037C2.16348 40.0037 2.35941 40.0037 2.56036 40.0037C2.75127 40.0037 2.94218 40.0037 3.1783 40.0037C3.09289 39.8287 3.02256 39.6836 2.95222 39.5386C2.75629 39.1084 2.61563 38.6683 2.66586 38.1881C2.72113 37.658 3.03261 37.3478 3.56514 37.2778C4.10771 37.2128 4.6101 37.3528 5.10244 37.5529C5.18784 37.5879 5.26822 37.6229 5.40387 37.678C5.37875 37.2628 5.35865 36.8827 5.33856 36.4976C6.88088 36.6976 7.60432 38.2532 7.11198 39.3735C7.66461 39.6936 7.80527 40.0938 7.5993 40.689C7.5792 40.754 7.5993 40.869 7.64953 40.9141C9.62893 42.7747 11.6134 44.6303 13.5978 46.4759C13.653 46.526 13.7786 46.551 13.854 46.531C14.6829 46.3209 15.4265 46.4759 16.0796 47.0361C16.1449 47.0911 16.2403 47.1262 16.3207 47.1312C17.647 47.1912 18.9381 46.9811 20.1891 46.541C20.2293 46.526 20.2695 46.5109 20.3046 46.4959C20.7568 46.2909 20.7719 46.2359 20.5006 45.8357C19.8274 44.8304 19.2848 43.77 19.0889 42.5596C18.7523 40.4739 20.0333 38.7483 22.1383 38.4832C22.4398 38.4432 22.7513 38.4382 23.0828 38.4132C23.0828 38.5483 23.0828 38.6383 23.0828 38.7283C23.0828 39.6786 23.0828 40.629 23.0828 41.5793C23.0828 42.7597 23.8917 43.6 25.0773 43.64C25.7153 43.66 26.3534 43.675 26.9864 43.64C28.2072 43.575 29.1064 44.1251 29.85 45.0204C29.8801 45.0705 29.9304 45.1355 29.9504 45.1605Z"/>
</mask>
<path d="M29.9504 45.1605C30.3825 44.7854 30.7794 44.4052 31.2165 44.0801C31.6586 43.755 32.181 43.635 32.7337 43.635C33.5124 43.635 34.2911 43.65 35.0698 43.62C35.964 43.585 36.7226 42.9147 36.8934 42.0594C36.9236 41.9044 36.9236 41.7443 36.9236 41.5893C36.9286 40.639 36.9236 39.6886 36.9236 38.7383C36.9236 38.6483 36.9236 38.5583 36.9236 38.3932C37.3456 38.4382 37.7525 38.4532 38.1494 38.5282C39.6063 38.7983 40.6462 39.7987 40.9125 41.1841C41.1034 42.1695 40.9075 43.1148 40.5006 44.0101C40.1991 44.6653 39.8173 45.2855 39.4556 45.9107C39.2747 46.2209 39.2597 46.3059 39.6013 46.4309C40.164 46.636 40.7367 46.8261 41.3245 46.9411C41.9223 47.0561 42.5352 47.0711 43.1431 47.1312C43.3189 47.1462 43.4043 47.0861 43.4596 46.9061C43.6857 46.2008 44.1278 45.6507 44.7256 45.2105C44.8964 45.0855 45.007 45.0755 45.1727 45.2155C45.7404 45.6807 46.3232 46.1258 46.911 46.586C47.2426 46.3259 47.5641 46.0758 47.8856 45.8257C48.2072 45.5756 48.5287 45.3205 48.8452 45.0755C50.4779 45.9558 51.1813 48.2015 49.8248 49.8921C48.3227 51.7677 45.3536 51.7077 43.9118 49.7871C43.5852 49.3519 43.118 49.1018 42.6407 48.8717C41.1737 48.1665 39.6113 47.8164 37.9886 47.7764C37.3757 47.7614 37.0743 47.6363 37.3657 46.9161C37.5365 46.4909 37.5616 46.0408 37.446 45.5906C37.1949 44.6203 36.2504 44.0801 35.2155 44.3002C34.7231 44.4052 34.2911 44.6353 33.8992 44.9454C33.0301 45.6357 32.0956 47.0811 31.8093 48.1965C31.96 48.2365 32.1107 48.2765 32.2614 48.3216C34.3614 48.9168 36.3307 49.7971 38.074 51.1275C38.7774 51.6627 39.3953 52.2779 39.8424 53.0532C40.2644 53.7934 40.2895 54.3536 39.5661 55.1589C39.1843 55.584 38.702 55.8591 38.1393 55.9942C38.0188 56.0242 37.9535 56.0092 37.9233 55.8791C37.3807 53.5033 35.8686 51.8328 33.9344 50.4723C33.2059 49.9621 32.4272 49.547 31.5631 49.3019C31.5179 49.2869 31.4677 49.2819 31.3973 49.2619C31.3421 49.4069 31.2868 49.542 31.2315 49.692C31.4677 49.8221 31.6937 49.9371 31.9148 50.0722C33.8238 51.2375 35.2355 52.8081 35.9941 54.9388C36.386 56.0392 36.1097 56.7344 35.1853 57.4397C34.8939 57.6647 34.5372 57.8148 34.1956 57.9698C33.9293 58.0899 33.8942 58.0549 33.8741 57.7748C33.7987 56.7244 33.5877 55.6991 33.2561 54.6987C32.804 53.3433 32.1861 52.0778 31.2416 50.9875C31.1612 50.8924 31.0708 50.8074 30.9452 50.6674C30.905 51.0075 30.8146 51.2826 30.915 51.5827C31.3672 52.9181 31.749 54.2736 31.9751 55.6641C32.0856 56.3443 32.1308 57.0345 32.1861 57.7247C32.2162 58.1149 32.0504 58.455 31.8093 58.7551C31.3521 59.3203 30.7492 59.6954 30.0911 59.9805C30.0258 60.0105 29.9203 60.0055 29.86 59.9705C29.428 59.7004 28.9859 59.4453 28.584 59.1402C27.9007 58.6201 27.7751 57.8998 27.8555 57.0795C28.0263 55.3139 28.4483 53.6034 29.0009 51.9228C29.1316 51.5226 29.1969 51.1375 29.0662 50.6774C28.8804 50.8874 28.6995 51.0775 28.5387 51.2826C27.3782 52.7981 26.695 54.5187 26.3383 56.3743C26.2428 56.8645 26.1976 57.3646 26.1424 57.8598C26.1223 58.0249 26.067 58.0649 25.9163 58.0148C25.1527 57.7498 24.4996 57.3346 24.0776 56.6294C23.8465 56.2492 23.7862 55.8441 23.9017 55.404C24.4393 53.3983 25.635 51.8578 27.2778 50.6373C27.745 50.2872 28.2574 50.0071 28.7799 49.677C28.7397 49.567 28.6844 49.4219 28.6191 49.2519C28.3378 49.3469 28.0715 49.4219 27.8254 49.532C25.5797 50.5373 23.8012 52.0628 22.6709 54.2636C22.4247 54.7487 22.2891 55.2889 22.1182 55.8091C22.068 55.9742 22.0278 56.0492 21.8319 55.9942C21.1085 55.7891 20.5307 55.389 20.1338 54.7537C19.8424 54.2936 19.7972 53.8134 20.0484 53.3083C20.4704 52.448 21.1185 51.7777 21.862 51.1975C23.6706 49.7921 25.7204 48.8868 27.9208 48.2815C28.0112 48.2565 28.0966 48.2315 28.177 48.2115C28.1871 48.1865 28.2021 48.1665 28.1971 48.1565C27.7651 46.9661 27.1823 45.8657 26.2026 45.0304C25.5998 44.5153 24.9165 44.1952 24.0926 44.2752C23.2637 44.3552 22.5754 45.0154 22.5302 45.8407C22.5101 46.2359 22.5804 46.656 22.6859 47.0411C22.8266 47.5663 22.7211 47.7564 22.1685 47.7664C20.5709 47.8064 19.0336 48.1265 17.5717 48.7767C17.2552 48.9168 16.9537 49.1018 16.6221 49.2819C17.1446 49.7671 17.6319 50.2172 18.1193 50.6724C18.491 51.0175 18.5362 51.3576 18.2599 51.6477C17.9786 51.9428 17.5516 51.9328 17.2049 51.6177C16.7678 51.2175 16.3257 50.8174 15.8987 50.4073C15.7631 50.2772 15.6676 50.2372 15.4717 50.3272C14.5825 50.7424 13.5375 50.5423 12.8743 49.8671C12.2564 49.2369 12.1258 48.3416 12.5428 47.5613C12.5679 47.5113 12.598 47.4613 12.6282 47.4013C12.4423 47.2262 12.2614 47.0511 12.0806 46.8811C10.3725 45.2705 8.65933 43.665 6.96127 42.0444C6.75529 41.8494 6.60959 41.7994 6.34835 41.9444C5.84597 42.2145 5.29837 42.0294 5.03713 41.5493C4.33379 41.8644 3.64049 41.8094 2.97734 41.4292C2.46491 41.1341 2.03788 40.5239 1.96252 40.0037C2.16348 40.0037 2.35941 40.0037 2.56036 40.0037C2.75127 40.0037 2.94218 40.0037 3.1783 40.0037C3.09289 39.8287 3.02256 39.6836 2.95222 39.5386C2.75629 39.1084 2.61563 38.6683 2.66586 38.1881C2.72113 37.658 3.03261 37.3478 3.56514 37.2778C4.10771 37.2128 4.6101 37.3528 5.10244 37.5529C5.18784 37.5879 5.26822 37.6229 5.40387 37.678C5.37875 37.2628 5.35865 36.8827 5.33856 36.4976C6.88088 36.6976 7.60432 38.2532 7.11198 39.3735C7.66461 39.6936 7.80527 40.0938 7.5993 40.689C7.5792 40.754 7.5993 40.869 7.64953 40.9141C9.62893 42.7747 11.6134 44.6303 13.5978 46.4759C13.653 46.526 13.7786 46.551 13.854 46.531C14.6829 46.3209 15.4265 46.4759 16.0796 47.0361C16.1449 47.0911 16.2403 47.1262 16.3207 47.1312C17.647 47.1912 18.9381 46.9811 20.1891 46.541C20.2293 46.526 20.2695 46.5109 20.3046 46.4959C20.7568 46.2909 20.7719 46.2359 20.5006 45.8357C19.8274 44.8304 19.2848 43.77 19.0889 42.5596C18.7523 40.4739 20.0333 38.7483 22.1383 38.4832C22.4398 38.4432 22.7513 38.4382 23.0828 38.4132C23.0828 38.5483 23.0828 38.6383 23.0828 38.7283C23.0828 39.6786 23.0828 40.629 23.0828 41.5793C23.0828 42.7597 23.8917 43.6 25.0773 43.64C25.7153 43.66 26.3534 43.675 26.9864 43.64C28.2072 43.575 29.1064 44.1251 29.85 45.0204C29.8801 45.0705 29.9304 45.1355 29.9504 45.1605Z" stroke="white" stroke-width="2" mask="url(#path-2-inside-1)"/>
<path d="M47.0185 39.5589C46.8928 39.6319 46.7555 39.6898 46.6063 39.7363L46.6056 39.7365C45.474 40.0912 44.1416 39.6336 43.3505 38.5528L43.3502 38.5524C42.7526 37.7377 42.4152 36.7894 42.1335 35.7563C42.0263 35.3587 41.9454 34.9623 41.8603 34.5458C41.8338 34.4157 41.8068 34.2836 41.7785 34.1488L41.7785 34.1488C41.7659 34.0856 41.73 33.9058 41.5913 33.762C41.4149 33.579 41.1915 33.5591 41.0395 33.5734C39.8067 33.6694 38.6183 34.0193 37.6319 34.9172L37.6314 34.9176C37.5599 34.9829 37.4916 35.0504 37.4263 35.12C37.426 34.654 37.426 34.1878 37.426 33.7214V33.7211C37.426 32.9595 37.426 32.1973 37.4245 31.435C38.5672 31.7269 39.7509 31.8213 40.9651 31.5376L47.0185 39.5589ZM47.0185 39.5589C47.1684 39.4718 47.3018 39.3633 47.4196 39.2271C45.4165 37.8754 43.7994 36.2369 43.1932 33.7715C43.4696 33.6564 43.7157 33.5564 43.9669 33.4563C44.0219 33.5409 44.0669 33.6107 44.1119 33.6803L44.1126 33.6814C44.6703 34.5467 45.3183 35.342 46.0568 36.0622M47.0185 39.5589C45.0182 38.1869 43.343 36.4746 42.7077 33.8908L42.6054 33.4746L43.0011 33.3099C43.2799 33.1938 43.5284 33.0928 43.7819 32.9918L44.1628 32.8402L44.3861 33.1839C44.4419 33.2696 44.4874 33.3402 44.5327 33.4102L44.5329 33.4106L49.6428 37.3903M55.896 10.5204C53.6294 14.0754 51.1147 17.4482 48.1643 20.4947L48.1642 20.4948C46.6512 22.0562 45.0114 23.5118 43.1427 24.6985C43.8023 25.3743 44.2147 26.1954 44.2992 27.1659L44.2993 27.1665C44.4845 29.3267 42.9382 31.0798 40.9655 31.5375L55.896 10.5204ZM55.896 10.5204C56.3723 11.0575 56.6781 11.6846 56.8198 12.401M55.896 10.5204L56.8198 12.401M56.1194 10.1532C56.1196 10.1528 56.1196 10.1527 56.1196 10.1526L56.1194 10.1532ZM56.1194 10.1532C56.1227 10.1462 56.126 10.1392 56.1291 10.1322L55.8635 10.0136L56.1194 10.1532ZM56.8198 12.401C57.1833 14.2429 56.6686 15.8616 55.4843 17.332L56.8198 12.401ZM50.0709 35.6071L49.8862 36.0717C49.8861 36.0717 49.886 36.0716 49.8859 36.0716C48.4209 35.4892 47.0437 34.6967 45.9448 33.4639L45.9447 33.4638C45.7626 33.2593 45.5897 33.0254 45.449 32.8349C45.3956 32.7627 45.3468 32.6966 45.3039 32.6409L45.0507 32.3118L45.3276 32.0025C45.4095 31.911 45.4855 31.8262 45.5574 31.746C45.6673 31.6234 45.7677 31.5115 45.8647 31.4028L46.1503 31.0829L46.51 31.3164C46.6776 31.4253 46.836 31.5314 46.9901 31.6347C47.2845 31.8319 47.5635 32.0189 47.8629 32.1952L47.8632 32.1954C49.4226 33.115 50.9839 33.8599 52.7323 34.0341C53.6312 34.1227 54.4705 34.0258 55.2336 33.6241L55.235 33.6234C55.8765 33.2882 56.237 32.7877 56.3664 32.1055C56.1697 32.1107 55.9764 32.1107 55.7906 32.1107H55.783H55.7808C53.5373 32.1006 51.295 31.8571 49.1277 31.0758L49.1267 31.0754C48.7162 30.9265 48.3029 30.7413 47.9047 30.5629C47.7132 30.4771 47.5252 30.3929 47.3427 30.315L46.8636 30.1106L47.0874 29.6403C47.1647 29.4779 47.2407 29.3224 47.3109 29.179C47.3608 29.0771 47.4077 28.9813 47.4499 28.8934L47.6206 28.538L48.006 28.6211C49.8084 29.0099 51.5795 29.344 53.3726 29.4765C54.4027 29.5512 55.3613 29.5784 56.2904 29.3189C57.9697 28.8421 58.9621 27.6047 59.0181 25.9783C55.6571 27.3895 52.1849 27.888 48.5472 27.4353L48.0279 27.3707L48.1161 26.8549C48.1335 26.7533 48.1493 26.6698 48.1633 26.5961C48.1873 26.4702 48.2058 26.3727 48.2171 26.2627L48.218 26.254L48.2192 26.2453C48.2364 26.1209 48.2829 25.9407 48.4369 25.7956C48.5849 25.6561 48.76 25.6188 48.8651 25.6038L48.8699 25.6032L48.8699 25.6032C48.9735 25.5895 49.077 25.5758 49.1803 25.5622C50.0225 25.4512 50.8533 25.3417 51.68 25.2008L51.6816 25.2005C53.223 24.9431 54.7269 24.605 56.1579 24.0429L56.1582 24.0428C57.2264 23.6242 58.1127 23.0893 58.6934 22.187L58.6944 22.1855C59.4715 20.9875 59.7092 19.7576 59.307 18.4565C56.4208 21.3449 53.0408 23.3612 48.9915 24.2855L48.4362 24.4123L48.3825 23.8452C48.3716 23.7308 48.3648 23.6367 48.3588 23.5541C48.3485 23.4109 48.3406 23.3019 48.3185 23.18C48.285 23.005 48.2942 22.8063 48.4077 22.6195C48.506 22.4576 48.6507 22.3632 48.733 22.3124L48.7358 22.3106L48.7358 22.3106C48.9149 22.2016 49.0936 22.0931 49.2721 21.9849C50.2451 21.3943 51.2076 20.8101 52.1458 20.1903C53.4036 19.3537 54.5683 18.4672 55.4843 17.3321L51.9141 36.6895C52.0211 36.5828 52.1226 36.4633 52.2185 36.3305C52.2252 36.3203 52.2351 36.3032 52.2529 36.2673C52.2558 36.2613 52.2596 36.2537 52.2638 36.2449C51.5093 36.12 50.7842 35.8911 50.0709 35.6071ZM50.0709 35.6071C48.6492 35.0419 47.348 34.2866 46.3181 33.1312L50.0709 35.6071ZM49.5936 37.8878C50.7602 38.0012 51.7612 37.6955 52.4993 36.7859L49.6428 37.3903M49.5936 37.8878L49.6428 37.3903M49.5936 37.8878L49.642 37.3902C49.6423 37.3902 49.6425 37.3902 49.6428 37.3903M49.5936 37.8878C48.1769 37.7478 47.0516 37.0276 46.0568 36.0622M46.0568 36.0622L46.4059 35.7043C46.4058 35.7041 46.4056 35.704 46.4054 35.7038C46.4053 35.7037 46.4052 35.7035 46.4051 35.7034L46.0568 36.0622ZM48.8803 23.7981C49.0452 23.7604 49.209 23.7209 49.3718 23.6795C49.3738 23.7041 49.3758 23.7279 49.378 23.7509L48.8803 23.7981ZM48.8803 23.7981C48.8721 23.7118 48.866 23.6298 48.8602 23.5508C48.8537 23.4621 48.8474 23.3773 48.8388 23.2946C48.8155 23.2999 48.7923 23.3053 48.769 23.3106L48.8803 23.7981ZM48.609 26.9391C48.6224 26.8607 48.6363 26.7867 48.6498 26.7157C48.6675 26.6218 48.6842 26.5332 48.6974 26.4463C48.6885 26.4452 48.6796 26.4441 48.6707 26.443L48.609 26.9391ZM48.609 26.9391L49.1018 27.0234C49.1034 27.0141 49.105 27.0047 49.1067 26.9951C48.9412 26.9785 48.7752 26.9598 48.609 26.9391ZM59.4845 25.3827C59.499 25.4644 59.5125 25.54 59.5158 25.6137L58.9882 25.4478C59.1459 25.3801 59.3033 25.3104 59.4605 25.2386C59.4677 25.289 59.4763 25.3368 59.4845 25.3827ZM56.4108 31.7638C56.4108 31.7637 56.4108 31.7642 56.4107 31.7653C56.4107 31.7644 56.4107 31.7639 56.4108 31.7638ZM55.4665 34.0666C54.5924 34.5267 53.6479 34.6267 52.6833 34.5317L55.4665 34.0666ZM59.1026 17.9525C59.2227 17.8302 59.342 17.7064 59.4605 17.581C59.4815 17.6163 59.5019 17.6486 59.5214 17.6792C59.5625 17.744 59.599 17.8016 59.6263 17.8661C59.652 17.9293 59.6763 17.9924 59.6993 18.0554L59.1026 17.9525Z" stroke="white"/>
<path d="M22.5432 31.4512V31.4591V31.4706V31.482V31.4934V31.5048V31.5163V31.5277V31.5391V31.5505V31.562V31.5734V31.5848V31.5962V31.6076V31.6191V31.6305V31.6419V31.6533V31.6647V31.6761V31.6876V31.699V31.7104V31.7218V31.7332V31.7446V31.7561V31.7675V31.7789V31.7903V31.8017V31.8131V31.8245V31.836V31.8474V31.8588V31.8702V31.8816V31.893V31.9044V31.9158V31.9272V31.9387V31.9501V31.9615V31.9729V31.9843V31.9957V32.0071V32.0185V32.0299V32.0413V32.0527V32.0641V32.0755V32.0869V32.0984V32.1098V32.1212V32.1326V32.144V32.1554V32.1668V32.1782V32.1896V32.201V32.2124V32.2238V32.2352V32.2466V32.258V32.2694V32.2808V32.2922V32.3036V32.315V32.3264V32.3378V32.3492V32.3606V32.372V32.3834V32.3948V32.4062V32.4176V32.429V32.4404V32.4518V32.4632V32.4746V32.486V32.4974V32.5088V32.5202V32.5316V32.543V32.5544V32.5658V32.5772V32.5886V32.6V32.6114V32.6228V32.6342V32.6456V32.657V32.6684V32.6798V32.6912V32.7026V32.714V32.7254V32.7368V32.7482V32.7596V32.771V32.7824V32.7938V32.8051V32.8165V32.8279V32.8393V32.8507V32.8621V32.8735V32.8849V32.8963V32.9077V32.9191V32.9305V32.9419V32.9533V32.9647V32.9761V32.9875V32.9989V33.0103V33.0217V33.0331V33.0445V33.0559V33.0673V33.0787V33.0901V33.1015V33.1129V33.1243V33.1357V33.1471V33.1585V33.1699V33.1813V33.1927V33.2041V33.2155V33.2269V33.2383V33.2497V33.2611V33.2725V33.2838V33.2952V33.3067V33.318V33.3294V33.3408V33.3522V33.3637V33.3751V33.3865V33.3979V33.4093V33.4207V33.4321V33.4435V33.4549V33.4663V33.4777V33.4891V33.5005V33.5119V33.5233V33.5347V33.5461V33.5575V33.5689V33.5803V33.5917V33.6031V33.6145V33.6259V33.6373V33.6487V33.6601V33.6715V33.6829V33.6944V33.7058V33.7172V33.7286V33.74V33.7514V33.7628V33.7742V33.7856V33.797V33.8084V33.8199V33.8313V33.8427V33.8541V33.8655V33.8769V33.8883V33.8997V33.9111V33.9226V33.934V33.9454V33.9568V33.9682V33.9796V33.991V34.0025V34.0139V34.0253V34.0367V34.0481V34.0595V34.071V34.0824V34.0938V34.1052V34.1166V34.1281V34.1395V34.1509V34.1623V34.1737V34.1852V34.1966V34.208V34.2194V34.2309V34.2423V34.2537V34.2651V34.2766V34.288V34.2994V34.3108V34.3223V34.3337V34.3451V34.3566V34.368V34.3794V34.3909V34.4023V34.4137V34.4251V34.4366V34.448V34.4594V34.4709V34.4823V34.4938V34.5052V34.5166V34.5281V34.5395V34.5509V34.5624V34.5738V34.5853V34.5967V34.6081V34.6196V34.631V34.6425V34.6539V34.6654V34.6768V34.6882V34.6997V34.7111V34.7226V34.734V34.7455V34.7569V34.7684V34.7798V34.7913V34.8027V34.8142V34.8256V34.8371V34.8485V34.86V34.8715V34.8829V34.8944V34.9058V34.9173V34.9287V34.9402V34.9517V34.9631V34.9746V34.9861V34.9975V35.009V35.0204V35.0319V35.0434V35.0548V35.0663V35.0778V35.0892V35.0925C21.6997 34.177 20.5379 33.7727 19.2966 33.6061L19.2938 33.6057C19.2015 33.5939 19.112 33.5868 19.0343 33.5811C19.0203 33.5801 19.0067 33.5791 18.9935 33.5782C18.9302 33.5736 18.8766 33.5697 18.8241 33.5643L18.3897 33.5196L18.2869 33.944C18.225 34.1997 18.1684 34.4461 18.1132 34.6867C18.0108 35.1326 17.9129 35.5588 17.7939 35.9882C17.5091 37.0048 17.1498 37.9324 16.5254 38.7038L16.5252 38.7041C15.7533 39.6592 14.4523 40.0675 13.4032 39.7239C13.2739 39.6809 13.1434 39.6158 13.0074 39.5344C14.1113 38.8014 15.0957 37.9212 15.9028 36.8419L15.9035 36.841C16.5573 35.9625 17.0448 34.9863 17.278 33.8632L17.3619 33.4594L16.9814 33.3003C16.8944 33.2639 16.8096 33.2288 16.7257 33.194C16.5613 33.1259 16.4002 33.0592 16.2322 32.987L15.8561 32.8255L15.6235 33.1623C15.5662 33.2453 15.5143 33.3228 15.4645 33.3971L15.4637 33.3983L15.4637 33.3983L15.4603 33.4035C14.6822 34.5971 13.7923 35.6547 12.6621 36.4726L12.6603 36.4739C11.8104 37.0947 10.8874 37.4293 9.86064 37.3982L9.86006 37.3982C9.13775 37.3771 8.54294 37.1461 8.07787 36.6767C10.6959 36.071 13.0624 34.9479 14.7484 32.5921L15.0019 32.2379L14.6859 31.9382C14.4833 31.7461 14.3039 31.5725 14.128 31.4023L14.1119 31.3866L13.8293 31.1132L13.497 31.3232C13.3275 31.4303 13.1613 31.5374 12.9965 31.6435C12.5831 31.9098 12.1788 32.1702 11.7539 32.4114L11.7516 32.4127C10.5446 33.1064 9.30019 33.6556 7.96352 33.9266C6.93392 34.1335 5.94999 34.1163 5.02215 33.7344C4.57183 33.548 4.24399 33.2968 4.01797 32.991C3.837 32.7463 3.7084 32.4491 3.64328 32.0886C5.93122 32.1451 8.20318 31.9261 10.4274 31.2276C11.2046 30.9835 11.9625 30.6697 12.7024 30.2435L13.1048 30.0117L12.9034 29.5934L12.8701 29.5242C12.7668 29.3095 12.667 29.102 12.5753 28.915L12.4102 28.5781L12.0406 28.6424C11.6234 28.715 11.2124 28.7888 10.8051 28.8619C9.99507 29.0073 9.19935 29.1502 8.39708 29.2762C7.17953 29.4641 5.97808 29.5874 4.78415 29.4967L4.78368 29.4967C3.42191 29.3945 2.31497 28.9132 1.55465 27.8242C1.16589 27.2638 0.98764 26.6466 0.979678 25.9706C2.5146 26.6295 4.10701 27.0774 5.75177 27.3428L5.7522 27.3429C7.63754 27.6455 9.5252 27.6816 11.4538 27.4249L11.9749 27.3555L11.8795 26.8385C11.8699 26.7865 11.8602 26.7266 11.8498 26.6618C11.8214 26.4862 11.7872 26.2749 11.7335 26.0885C11.6932 25.945 11.6056 25.8545 11.5579 25.8118C11.5038 25.7633 11.4481 25.7295 11.4056 25.707C11.3216 25.6626 11.2278 25.6303 11.1438 25.6136L11.1354 25.6119L11.1269 25.6105C10.6359 25.5302 10.1504 25.4566 9.66805 25.3834C8.77469 25.2479 7.89221 25.114 7.00645 24.9428L7.00637 24.9428C5.53084 24.6578 4.11178 24.25 2.80535 23.5566L2.80284 23.5553C1.00442 22.6138 0.091853 20.3304 0.67619 18.459C3.55664 21.344 6.935 23.3624 10.9945 24.2955L11.5491 24.423L11.6041 23.8566C11.612 23.7753 11.6214 23.6906 11.6311 23.6039C11.6544 23.3942 11.6789 23.1728 11.6865 22.9608L11.6869 22.9519V22.9429C11.6869 22.7857 11.6207 22.6705 11.5829 22.6148C11.5412 22.5535 11.4945 22.507 11.4612 22.4768C11.3942 22.4161 11.3216 22.368 11.2806 22.3417L11.2806 22.3417L11.2754 22.3384C10.884 22.0947 10.4953 21.8574 10.1089 21.6216C9.39348 21.1849 8.68608 20.7532 7.98486 20.2942C6.78568 19.5049 5.66561 18.6522 4.73229 17.6081L22.5432 31.4512ZM22.5432 31.4512C21.2862 31.7616 19.9861 31.8448 18.666 31.4385L18.6657 31.4384C16.8939 30.8917 15.6395 29.2363 15.6858 27.4266C15.7133 26.3529 16.1394 25.4475 16.861 24.7061C15.0281 23.5402 13.415 22.1247 11.9236 20.5905M22.5432 31.4512L11.9236 20.5905M11.9236 20.5905C8.93553 17.5217 6.38924 14.1195 4.1042 10.5308C3.4313 11.2925 3.10321 12.2023 3.0656 13.2427L3.06555 13.2439C3.001 14.9149 3.60848 16.348 4.73222 17.608L11.9236 20.5905ZM9.84549 37.898C11.001 37.933 12.0309 37.5528 12.9553 36.8776C14.1509 36.0123 15.0804 34.9019 15.8792 33.6765C15.9294 33.6015 15.9796 33.5265 16.0349 33.4465C16.2057 33.5198 16.3721 33.5887 16.5385 33.6577C16.6216 33.6921 16.7048 33.7266 16.7885 33.7616C16.5724 34.8019 16.1203 35.7122 15.5024 36.5425C14.6533 37.6779 13.5933 38.5882 12.3876 39.3384C12.1414 39.4885 12.1213 39.5435 12.3574 39.7036C12.6337 39.8986 12.9301 40.0937 13.2466 40.1987C14.5127 40.6139 16.0248 40.1187 16.9141 39.0183C17.6023 38.1681 17.9841 37.1627 18.2755 36.1224C18.3974 35.6829 18.4999 35.2369 18.6041 34.7831C18.6589 34.5448 18.7141 34.3044 18.7729 34.0617C18.8336 34.0679 18.8961 34.0724 18.9596 34.077L9.84549 37.898ZM9.84549 37.898C8.89755 37.8703 8.10283 37.5207 7.51618 36.7983L9.84549 37.898ZM6.91156 25.4337C5.40943 25.1436 3.93744 24.7235 2.57095 23.9983C0.482374 22.9049 -0.539241 20.211 0.285863 18.0596L6.91156 25.4337Z" stroke="white"/>
<path d="M34.6366 17.6785L35.0731 17.252L34.5692 16.9079C33.8119 16.3908 33.2564 15.8873 32.9027 15.4291C32.7751 15.2638 32.6784 15.1107 32.6078 14.9702C32.7277 14.9977 32.8485 15.0236 32.9688 15.0462L32.9692 15.0463C34.1872 15.2749 35.4101 15.2892 36.5876 15.3029C36.6445 15.3036 36.7013 15.3042 36.7579 15.3049L36.7579 15.3049C37.0919 15.3089 37.4239 15.3112 37.7543 15.3134C38.6702 15.3196 39.5746 15.3257 40.4776 15.3694L40.4779 15.3694C41.0673 15.3976 41.6694 15.4964 42.2446 15.6526L42.2447 15.6526C42.9296 15.8384 43.3142 16.1698 43.4877 16.5405C43.6436 16.8737 43.6678 17.322 43.4698 17.8814C43.2079 17.6205 42.9054 17.4422 42.5753 17.3296C42.0219 17.1409 41.424 17.1489 40.8928 17.1872L40.8912 17.1873C38.9279 17.3352 37.4284 18.3474 36.2304 19.7292L36.23 19.7297C35.1504 20.9784 34.4251 22.426 34.189 24.0982L34.189 24.0984C33.9792 25.5872 34.2089 26.9893 35.1262 28.1661C34.8694 28.1713 34.5729 28.1761 34.2451 28.1804C33.103 28.1954 31.5895 28.205 30.0706 28.2078C28.5517 28.2106 27.0293 28.2067 25.8692 28.1949C25.5171 28.1913 25.1992 28.1871 24.9255 28.182C25.653 27.2666 25.9953 26.1707 25.9243 24.9591C25.738 21.7 24.137 19.2538 21.2363 17.7332L21.2358 17.733C20.2343 17.2094 19.1381 17.0581 18.0325 17.2106C17.6315 17.2652 17.2401 17.3844 16.8945 17.6167C16.7816 17.6926 16.6765 17.7786 16.5794 17.8751C16.475 17.5747 16.4305 17.2736 16.4581 16.9711C16.4868 16.6564 16.5929 16.4253 16.7484 16.2433C16.9089 16.0557 17.1425 15.8969 17.4568 15.7674C18.1132 15.497 18.8232 15.3835 19.5625 15.3597C20.4095 15.3352 21.2499 15.3259 22.0954 15.3165C22.6273 15.3106 23.1613 15.3046 23.7002 15.2949C24.9107 15.2767 26.1794 15.2553 27.432 14.9732C27.0561 15.7275 26.4638 16.3097 25.7024 16.7738L25.7024 16.7738L25.6951 16.7784C25.6689 16.795 25.6554 16.8022 25.6349 16.8131C25.6148 16.8238 25.588 16.8381 25.5357 16.8684L25.4799 16.9009L25.4714 16.9093L24.9127 17.1874L25.4181 17.6791C27.9746 20.1669 29.0618 23.3332 29.5211 26.8586L30.5124 26.8615C30.9917 23.3441 32.0741 20.1817 34.6366 17.6785Z" stroke="white"/>
<path d="M27.5188 9.95679C27.3938 10.416 27.2167 10.8207 26.9944 11.1759C27.0982 11.0434 27.1964 10.9024 27.2889 10.7526C27.4545 10.4806 27.576 10.2083 27.7141 9.89869C27.789 9.73083 27.8687 9.55199 27.9631 9.35628L28.0995 9.07343H28.4135H28.4143C29.4185 9.07343 30.4755 9.07343 31.533 9.08346C31.6792 9.0847 31.7887 9.14331 31.84 9.17485C31.9012 9.21241 31.9508 9.25602 31.9878 9.29356C32.0543 9.36095 32.1349 9.46463 32.1798 9.58967L32.1822 9.5965L32.1845 9.6034C32.3766 10.1922 32.6489 10.7088 32.9921 11.1448C32.7735 10.791 32.5996 10.3887 32.4772 9.93326L32.4751 9.9253L32.4751 9.92528C32.4084 9.65961 32.4737 9.37051 32.5818 9.17313L32.5833 9.17052C32.69 8.97846 32.8068 8.78741 32.9172 8.60677C32.9483 8.55595 32.9789 8.50595 33.0085 8.45699C33.1475 8.2278 33.2734 8.01195 33.3775 7.79345C33.6172 7.28641 33.8273 6.80337 33.9398 6.31512L33.9402 6.3132C34.0525 5.83464 33.9972 5.47585 33.8583 5.22354C33.7216 4.97505 33.47 4.76791 33.0644 4.65252L33.0632 4.65218C32.8783 4.59907 32.6708 4.57532 32.4318 4.5564C32.1934 4.82503 31.963 5.09634 31.7289 5.37206C31.6305 5.48791 31.5315 5.60454 31.4309 5.72208M27.5188 9.95679L27.7903 4.78558C28.2054 5.32798 28.6603 5.8471 29.11 6.36033C29.2822 6.55683 29.4536 6.75247 29.6217 6.94822L30.0006 7.38928L30.3799 6.94865C30.7422 6.52792 31.0892 6.12234 31.4309 5.72208M27.5188 9.95679C27.5985 9.67078 27.5165 9.36921 27.4235 9.18397L27.4201 9.17719L27.4164 9.17051C27.2684 8.89679 27.1222 8.64695 26.981 8.40541C26.7561 8.021 26.5435 7.65762 26.3552 7.2524L27.5188 9.95679ZM31.4309 5.72208L31.051 5.39702L31.4313 5.72167C31.4311 5.72181 31.431 5.72194 31.4309 5.72208ZM30.001 6.62243C29.8907 6.49396 29.7801 6.3669 29.6699 6.2407C29.654 6.25917 29.6381 6.27767 29.6221 6.29621L30.001 6.62243ZM30.001 6.62243L30.3803 6.29664C30.3637 6.27734 30.3472 6.2581 30.3306 6.23891C30.222 6.36553 30.1122 6.49327 30.001 6.62243ZM19.4911 13.2847C19.9583 13.2897 20.4306 13.2897 20.8978 13.2847C21.211 13.2803 21.5246 13.281 21.8383 13.2818C22.2031 13.2827 22.568 13.2835 22.9324 13.2763L19.4911 13.2847ZM19.4911 13.2847C19.4057 13.2847 19.2901 13.2647 19.25 13.2097L19.4911 13.2847ZM24.108 13.2147C23.8188 13.2418 23.5289 13.2583 23.2385 13.2682M24.108 13.2147C25.6453 13.0696 26.8912 12.3494 27.7152 11.0139L23.2385 13.2682M24.108 13.2147L24.1007 13.1367M24.108 13.2147L24.1007 13.1367C24.1059 13.1354 24.1111 13.134 24.1162 13.1326L24.1007 13.1367M23.2385 13.2682L23.7564 13.1945C23.7608 13.1939 23.7686 13.193 23.7792 13.1917C23.8367 13.1849 23.9768 13.1684 24.1007 13.1367M23.2385 13.2682L24.1007 13.1367M40.5511 13.2847C40.6315 13.2847 40.747 13.2297 40.7923 13.1646C41.0183 12.8445 41.2444 12.5194 41.4303 12.1793L40.5511 13.2847ZM40.5511 13.2847C40.2261 13.2859 39.901 13.2881 39.5759 13.2904C38.8248 13.2957 38.0736 13.301 37.3224 13.2926L40.5511 13.2847ZM33.0203 9.41337C33.1215 9.23132 33.231 9.05226 33.3405 8.87301C33.5139 8.58935 33.6876 8.3052 33.8292 8.0079C34.0703 7.49773 34.3014 6.97255 34.427 6.42736C34.6933 5.29198 34.2211 4.4617 33.2012 4.1716L33.0203 9.41337ZM33.0203 9.41337C32.9601 9.52341 32.9299 9.68347 32.9601 9.80351L33.0203 9.41337ZM36.2979 10.6568C36.1985 11.1299 36.3353 11.5851 36.6224 12.1014L36.6239 12.1041C36.6557 12.1621 36.6808 12.2027 36.7135 12.2554C36.7444 12.3053 36.782 12.366 36.8383 12.4626L37.0284 12.7885C37.8721 12.8024 38.7158 12.7964 39.5663 12.7905C39.8593 12.7884 40.1531 12.7864 40.4481 12.7851C40.6504 12.4971 40.8374 12.2217 40.9915 11.9395L40.9916 11.9394C41.1955 11.5665 41.2895 11.1692 41.2537 10.7574C41.2383 10.5848 41.1871 10.4629 41.1173 10.3718C41.0464 10.279 40.9361 10.1917 40.7639 10.1213L40.7626 10.1208C40.5912 10.0502 40.4877 10.044 40.429 10.0547C40.3876 10.0622 40.3221 10.0851 40.2353 10.2032C40.1922 10.2646 40.1463 10.3072 40.1165 10.3326C40.1005 10.3463 40.0861 10.3575 40.0777 10.364L40.0738 10.367C39.7521 10.6577 39.4285 10.9501 39.1094 11.233L38.8303 11.4805L38.5138 11.2836L36.2979 10.6568ZM36.2979 10.6568C36.3696 10.3161 36.7281 10.0383 37.0948 10.0422C37.4121 10.3215 37.7259 10.6054 38.0419 10.8913C38.1507 10.9898 38.2598 11.0885 38.3694 11.1873C38.4098 11.2246 38.4473 11.2475 38.4669 11.2588C38.4859 11.2698 38.5048 11.2791 38.508 11.2806L38.5084 11.2808C38.5109 11.2821 38.5123 11.2828 38.5131 11.2832C38.5134 11.2833 38.5136 11.2834 38.5137 11.2835L36.2979 10.6568ZM20.8982 11.254L21.2338 11.5588L21.5699 11.2546C21.7063 11.1311 21.8445 11.0076 21.9832 10.8836C22.2835 10.6152 22.5856 10.3451 22.8744 10.0714L22.8745 10.0714L22.877 10.0689C22.8812 10.0649 22.8846 10.062 22.8871 10.0599C22.8952 10.0597 22.9107 10.0601 22.9361 10.0633C23.3102 10.1233 23.5181 10.2718 23.6239 10.4324C23.7306 10.5944 23.79 10.8544 23.6928 11.2496L23.6925 11.2511C23.6253 11.5277 23.5243 11.7709 23.4069 12.0535C23.3476 12.1965 23.284 12.3496 23.2185 12.5221L23.1238 12.7717C22.7087 12.7837 22.2914 12.7827 21.8653 12.7817C21.5465 12.7809 21.2229 12.7801 20.8917 12.7847C20.4496 12.7895 20.0029 12.7897 19.5604 12.7854C19.1549 12.2205 18.8445 11.7382 18.7603 11.1439L18.7602 11.1426C18.7058 10.7661 18.7804 10.5156 18.8967 10.3609C19.0081 10.2126 19.2096 10.0834 19.559 10.0481C19.5619 10.0487 19.5658 10.0498 19.5703 10.0513C19.5777 10.0538 19.584 10.0565 19.5886 10.0589C20.0196 10.4534 20.4466 10.8439 20.8982 11.254ZM26.028 6.01053L25.5299 6.05223L26.0281 6.01091C26.0281 6.01079 26.028 6.01066 26.028 6.01053ZM35.8696 13.1223C35.9835 13.1531 36.1069 13.1728 36.2312 13.1927C36.2623 13.1976 36.2935 13.2026 36.3246 13.2077L36.4078 13.2216L36.408 13.2216L36.7846 13.2841C36.6585 13.2814 36.5325 13.2783 36.4064 13.2747C34.1206 13.2147 32.4125 11.9142 31.7091 9.75849C31.684 9.68847 31.5885 9.58343 31.5283 9.58343C30.4733 9.57343 29.4182 9.57343 28.4135 9.57343L35.8696 13.1223ZM38.5141 11.2837L38.5141 11.2837L38.5141 11.2837ZM40.953 9.65846C41.4303 9.85352 41.7066 10.2036 41.7518 10.7138L40.953 9.65846ZM35.7477 12.5861C35.7479 12.5865 35.7482 12.5869 35.7484 12.5873L35.7719 12.5743C35.8467 12.5972 35.9225 12.6189 35.9995 12.6395L35.7477 12.5861Z" stroke="white"/>
<path d="M26.1622 42.0041C26.3265 42.0586 26.5093 42.0617 26.6922 42.0648C26.7946 42.0666 26.897 42.0683 26.9962 42.0791C27.0917 42.0891 27.1971 42.1141 27.2826 42.1591M26.1622 42.0041L30.6887 42.9394C29.8799 43.0194 29.0761 42.9994 28.3124 42.7093C28.0759 42.621 27.8544 42.4899 27.6338 42.3594C27.5172 42.2903 27.4008 42.2214 27.2826 42.1591M26.1622 42.0041C25.6368 41.8352 25.3513 41.3114 25.383 40.7981L26.1622 42.0041ZM27.2826 42.1591L27.5157 41.7168C27.6453 41.7851 27.7799 41.8648 27.9011 41.9365C27.9502 41.9655 27.997 41.9932 28.0405 42.0184C28.2037 42.1129 28.3467 42.1884 28.4873 42.2409L28.49 42.2419C29.1509 42.493 29.8668 42.5183 30.6395 42.4418L30.6406 42.4417C30.9681 42.4101 31.2759 42.3607 31.5714 42.2723L25.9858 41.2581C26.0617 41.3838 26.1748 41.483 26.3152 41.5281L26.3197 41.5295L26.3197 41.5295C26.3755 41.5481 26.4542 41.5584 26.5871 41.5625C26.6132 41.5633 26.6442 41.5638 26.6784 41.5644C26.7858 41.5662 26.9254 41.5685 27.0492 41.5819C27.1838 41.5961 27.3563 41.6328 27.5157 41.7168L27.2826 42.1591ZM25.8917 40.7385L26.0298 40.7563C26.0755 40.768 26.13 40.7758 26.1945 40.7806L26.169 40.9055L26.237 40.8916L26.5622 40.8248L26.7461 40.7871C26.7629 40.6501 26.7756 40.5241 26.7877 40.4043C26.7926 40.3559 26.7974 40.3086 26.8023 40.2619C26.8032 40.2536 26.804 40.2454 26.8049 40.2372L25.8917 40.7385Z" stroke="white"/>
<path d="M33.3088 33.6997C33.2982 33.5283 33.2214 33.3989 33.1874 33.3439C33.171 33.3174 33.1529 33.2906 33.1419 33.2743C33.1401 33.2717 33.1385 33.2693 33.1372 33.2673L33.1237 33.2469C33.1223 33.2447 33.1213 33.243 33.1206 33.2419C33.1198 33.2406 33.1195 33.2401 33.1195 33.2401L32.8617 32.7838L32.4189 33.0623C32.4189 33.0623 32.412 33.0662 32.3907 33.0762C32.3874 33.0778 32.3826 33.08 32.3769 33.0827C32.3558 33.0925 32.3214 33.1085 32.2939 33.1225C32.258 33.1408 32.1938 33.1751 32.1316 33.2271C32.0728 33.2763 31.9678 33.3812 31.9301 33.5516C31.8792 33.7701 31.816 34.0913 31.8756 34.4099C31.9483 34.8346 32.0591 35.2594 32.1606 35.6488C32.1916 35.7674 32.2216 35.8827 32.2495 35.9937L32.323 36.2862L34.171 37.1465C33.8427 36.5622 32.897 36.5216 32.3928 36.8072L32.1485 36.371C32.1482 36.3712 32.1478 36.3714 32.1474 36.3716C31.9434 36.4862 31.8174 36.6649 31.7694 36.8668C31.7284 37.0396 31.7519 37.1995 31.7712 37.2967C31.9305 38.1597 32.0898 39.0186 32.2574 39.9138C31.4748 37.7746 30.6925 35.6407 29.9062 33.496C29.7298 33.0149 29.5533 32.5332 29.3764 32.0508C29.481 32.0451 29.5845 32.0397 29.6882 32.0349L29.8995 32.025C29.9355 32.1241 29.988 32.2057 30.0351 32.2677C30.1578 32.4294 30.2734 32.5899 30.3946 32.7581C30.4536 32.84 30.5139 32.9237 30.577 33.0103L30.9225 33.4843L31.3358 33.0682C31.6697 32.7322 32.1171 32.5835 32.6657 32.5705C32.9977 32.563 33.1858 32.6639 33.2849 32.7747C33.3842 32.8857 33.463 33.0836 33.4195 33.4099L33.4194 33.4104C33.4015 33.5455 33.3659 33.672 33.3127 33.7906C33.3121 33.7607 33.3108 33.7303 33.3088 33.6997ZM33.3088 33.6997C33.3089 33.7004 33.3089 33.701 33.3089 33.7017L32.8373 33.7296M33.3088 33.6997C33.3088 33.6991 33.3087 33.6984 33.3087 33.6978L32.8372 33.7294M32.8373 33.7296L32.8925 33.8173C32.8703 33.8814 32.8373 33.9277 32.8107 33.9576C32.8134 33.8894 32.8146 33.8212 32.8111 33.753C32.8109 33.7487 32.8106 33.7443 32.8104 33.74C32.8102 33.7371 32.81 33.7341 32.8098 33.7312M32.8373 33.7296L32.8098 33.7312M32.8373 33.7296L32.8372 33.7294M32.8372 33.7294L32.7821 33.6417C32.7972 33.6711 32.808 33.7008 32.8098 33.7312M32.8372 33.7294L32.8098 33.7312M32.8048 34.4064C32.8001 34.3535 32.7987 34.3007 32.7991 34.2478C32.7991 34.2448 32.7992 34.2418 32.7992 34.2388C32.7999 34.1773 32.803 34.1157 32.8062 34.0541C32.8073 34.0308 32.8085 34.0076 32.8095 33.9843L32.9614 34.7319C32.9611 34.7318 32.9608 34.7317 32.9605 34.7315C32.8751 34.6965 32.8148 34.5215 32.8048 34.4064ZM32.8048 34.4064L32.8048 34.4064L32.8048 34.4064ZM29.6439 31.0857L29.6427 31.0595L29.6649 31.5354L29.6439 31.0857L29.6439 31.0857ZM33.3048 40.2377C33.5728 40.0428 33.7918 39.9493 34.0202 39.956C34.0092 40.1358 33.9864 40.2796 33.9439 40.386C33.7388 40.8879 33.3691 41.2486 32.864 41.5728C32.7723 41.3219 32.6806 41.0711 32.5889 40.8204L33.1017 40.4C33.1229 40.3826 33.1418 40.367 33.159 40.3528C33.2207 40.302 33.2599 40.2696 33.3005 40.2407L33.3005 40.2407L33.3048 40.2377ZM32.3896 34.4435C32.4242 34.6279 32.4653 34.811 32.5094 34.9923L32.3067 34.4499C32.3067 34.4501 32.3067 34.4502 32.3067 34.4504C32.3067 34.4506 32.3068 34.4507 32.3068 34.4509L32.3896 34.4435ZM30.3042 30.9893C30.2635 31.0558 30.2062 31.127 30.1361 31.1966C30.1351 31.1707 30.1357 31.1511 30.1373 31.1353L30.1375 31.1323C30.1429 31.0759 30.1699 31.0381 30.2052 31.015C30.2314 30.9979 30.2652 30.9871 30.3042 30.9893Z" stroke="white"/>
<path d="M11.1913 13.7053C11.192 13.7006 11.1928 13.6959 11.1935 13.6912L11.1935 13.6912L11.194 13.6874C11.3185 12.8386 11.0484 12.097 10.4972 11.4885L10.4971 11.4884C10.4278 11.412 10.3635 11.3433 10.3027 11.2784C10.1797 11.147 10.0712 11.0311 9.96553 10.8981L9.96554 10.8981L9.9647 10.897C9.78771 10.6754 9.79654 10.5355 9.81257 10.4835C9.82735 10.4355 9.89227 10.3199 10.1604 10.2452L10.1608 10.2451C10.4869 10.1539 10.8298 10.0902 11.182 10.041C10.9184 10.6321 10.9612 11.331 11.3552 11.9367C11.4874 12.1401 11.6405 12.3185 11.7788 12.4741C11.8108 12.5101 11.8417 12.5445 11.8716 12.5778C11.9777 12.6961 12.0716 12.8007 12.1598 12.9132L12.1598 12.9132L12.1615 12.9154C12.2351 13.008 12.3046 13.0922 12.3698 13.1712C12.5548 13.3954 12.7055 13.578 12.8172 13.7942L11.1913 13.7053ZM11.1913 13.7053C11.3213 13.6515 11.4519 13.6014 11.5785 13.5599L11.5899 13.5561L11.59 13.5563C11.948 13.4483 12.3579 13.4438 12.6816 13.7072C12.7539 13.766 12.8144 13.8322 12.8646 13.9037M11.1913 13.7053L12.8646 13.9037M12.8646 13.9037C12.8518 13.8672 12.8361 13.8307 12.8173 13.7943L12.8646 13.9037ZM13.8276 8.56905C14.0555 8.33436 14.2848 8.10554 14.5214 7.88391C14.7028 7.71642 14.9077 7.56827 15.1209 7.45572C15.2129 7.40821 15.2713 7.40939 15.2976 7.41469C15.3186 7.41889 15.3551 7.43187 15.3993 7.49483L15.8086 7.20768M13.8276 8.56905L14.1809 7.51779C14.3919 7.32272 14.633 7.14766 14.8892 7.01262C15.2359 6.83255 15.5876 6.89258 15.8086 7.20768M13.8276 8.56905C14.0225 8.56313 14.2193 8.57091 14.4169 8.59084L14.4217 8.59133L14.4217 8.59135C14.5239 8.60266 14.7838 8.63787 14.9522 8.86468C15.1312 9.10583 15.075 9.3763 15.039 9.50365C15.0018 9.63714 14.9762 9.7706 14.9623 9.90372M13.8276 8.56905L14.9174 10.293M15.8086 7.20768C16.0042 7.48705 16.1494 7.80224 16.2929 8.11384C16.319 8.17044 16.345 8.22692 16.3713 8.28305C16.3964 8.33306 16.3261 8.4481 16.2708 8.50312C15.7835 9.01329 15.4519 9.60349 15.4167 10.3187M15.8086 7.20768L15.399 7.49443C15.5575 7.72084 15.6769 7.973 15.8112 8.26355M15.4167 10.3187L14.9553 10.2938C14.9463 10.1643 14.9486 10.0342 14.9623 9.90372M15.4167 10.3187C15.3698 11.1862 15.7834 11.9601 16.4606 12.4224C15.7866 12.1087 15.311 11.6093 15.0638 10.8408L15.0638 10.8408L15.0628 10.8379C15.0041 10.659 14.9685 10.4782 14.9555 10.2961L15.4167 10.3187ZM14.9623 9.90372C15.0796 9.26214 15.399 8.72209 15.8112 8.26355M14.9623 9.90372C14.9393 10.0295 14.924 10.1592 14.9174 10.293M15.8112 8.26355C15.8189 8.28034 15.8268 8.29726 15.8346 8.31431C15.8617 8.37294 15.8895 8.43311 15.9184 8.49492L15.9182 8.495L15.9245 8.50743C15.9223 8.50324 15.9203 8.49907 15.9184 8.49491C15.8582 8.36563 15.8789 8.25522 15.8846 8.22798C15.8927 8.18954 15.9041 8.16724 15.9056 8.1643L15.9057 8.16415C15.906 8.16367 15.9061 8.16325 15.9063 8.16284C15.907 8.16148 15.9075 8.16028 15.9094 8.15794C15.911 8.15597 15.9136 8.15317 15.918 8.14879L15.9179 8.14867L15.9092 8.15776C15.876 8.19253 15.8433 8.2278 15.8112 8.26355ZM14.9174 10.293C14.9067 10.4926 14.9161 10.6879 14.9439 10.877C14.944 10.8777 14.9441 10.8785 14.9442 10.8793C15.0659 11.7025 15.5361 12.4094 16.2127 12.8577C15.4534 12.4942 14.8815 11.9067 14.5878 10.994L14.9174 10.293Z" stroke="white"/>
<path d="M46.1911 8.57863C45.9739 8.57199 45.7551 8.58209 45.5364 8.60586L45.5364 8.6058L45.5287 8.60676C45.4531 8.61617 45.2512 8.64506 45.0926 8.80299C44.8838 9.0109 44.8922 9.27732 44.9453 9.45536C44.9909 9.61017 45.0212 9.76801 45.0359 9.92667C44.9498 9.45999 44.7495 8.99514 44.4292 8.56445L44.4293 8.5644L44.4237 8.55715C44.4182 8.55006 44.4116 8.54088 44.3985 8.5225L44.3963 8.51937C44.3851 8.50366 44.3686 8.48042 44.3509 8.45711C44.3147 8.40971 44.249 8.32863 44.151 8.2611L44.151 8.2611L44.1497 8.26018C44.1454 8.25725 44.1415 8.2545 44.1381 8.25194C44.1472 8.22743 44.1628 8.1939 44.1883 8.15001C44.1885 8.14963 44.1887 8.14925 44.1889 8.14887L43.7567 7.89752M46.1911 8.57863L44.5567 7.53259M46.1911 8.57863C46.0504 8.42336 45.9004 8.27441 45.7462 8.13676M46.1911 8.57863L45.7462 8.13676M43.7567 7.89752C43.7976 7.82811 43.8363 7.75734 43.8748 7.68671C43.9641 7.52321 44.0529 7.3605 44.1687 7.21729C44.4299 6.89718 44.7766 6.81716 45.1333 7.02723M43.7567 7.89752C43.5909 8.18262 43.5457 8.45271 43.8672 8.67279M43.7567 7.89752L43.8672 8.67279M45.1333 7.02723L44.8731 7.45422C44.8743 7.45495 44.8755 7.45567 44.8767 7.4564M45.1333 7.02723L44.8795 7.45806C44.8786 7.4575 44.8776 7.45695 44.8767 7.4564M45.1333 7.02723C45.4699 7.2323 45.7763 7.49739 46.0777 7.76248M44.8767 7.4564C44.7881 7.40495 44.7385 7.40853 44.716 7.41316C44.6894 7.41866 44.6319 7.44077 44.5567 7.53259M44.8767 7.4564C45.169 7.63505 45.4434 7.87052 45.7462 8.13676M44.5567 7.53259C44.557 7.53227 44.5572 7.53196 44.5575 7.53164L44.1687 7.2173L44.556 7.53343C44.5563 7.53315 44.5565 7.53287 44.5567 7.53259ZM45.7462 8.13676C45.7458 8.13638 45.7454 8.136 45.7449 8.13563L46.0777 7.76248M45.7462 8.13676C45.7466 8.13715 45.7471 8.13755 45.7475 8.13794L46.0777 7.76248M45.7462 8.13676L46.756 8.46772C46.55 8.21763 46.3189 7.97755 46.0777 7.76248M43.8672 8.67279C43.9157 8.70616 43.953 8.75878 43.9896 8.81026C44.0024 8.82822 44.015 8.84604 44.028 8.86285C44.9926 10.1597 44.6482 11.7393 43.4252 12.4774L43.8672 8.67279ZM43.8672 8.67279L43.8673 8.67276L43.8672 8.67279ZM48.8317 12.7648C48.7672 13.0664 48.755 13.373 48.7866 13.682C48.7625 13.6721 48.7385 13.6625 48.7146 13.6532L48.7146 13.6532L48.7115 13.652C48.277 13.4875 47.749 13.3911 47.3417 13.7C47.2792 13.7475 47.2251 13.8002 47.1785 13.8572C47.2506 13.6869 47.3498 13.5125 47.4651 13.3415C47.5471 13.2233 47.6498 13.1082 47.7753 12.9767C47.8037 12.9469 47.8341 12.9155 47.8657 12.8827C47.9655 12.7795 48.0777 12.6635 48.1794 12.5458L48.1812 12.5436C48.349 12.3471 48.5546 12.104 48.7119 11.8276C49.0349 11.269 49.0613 10.6087 48.813 10.0501C48.8374 10.0524 48.8619 10.0545 48.8866 10.0565V10.0565L48.8886 10.0567C49.2364 10.083 49.591 10.1625 49.9337 10.2808L49.9337 10.2808L49.9369 10.2819C50.118 10.343 50.1671 10.4274 50.1813 10.4705C50.1971 10.5186 50.206 10.6285 50.0967 10.8006L50.096 10.8017C50.0078 10.9415 49.9011 11.0704 49.7826 11.177L49.7826 11.1769L49.7781 11.181C49.2759 11.6437 48.9579 12.1735 48.8317 12.7648Z" stroke="white"/>
<path d="M46.9106 44.11C46.7082 43.9236 46.5083 43.739 46.306 43.5517C46.3789 43.4746 46.4517 43.3976 46.5247 43.3203C46.6526 43.1848 46.7813 43.0485 46.912 42.9104L47.2074 43.2214L47.5181 43.5484C47.3662 43.6894 47.2149 43.8291 47.0623 43.97C47.0119 44.0165 46.9614 44.0631 46.9106 44.11Z" stroke="white"/>
<path d="M21.6226 7.13386C21.5973 7.16384 21.5721 7.1938 21.5468 7.22375C21.4431 7.34673 21.3394 7.46958 21.235 7.59323C21.2141 7.56844 21.1933 7.54365 21.1724 7.51887C21.0637 7.38955 20.9551 7.26053 20.8468 7.1323C20.9754 6.97577 21.1033 6.81977 21.2327 6.66196C21.3611 6.81689 21.4886 6.97143 21.6173 7.12741C21.6191 7.12956 21.6208 7.13171 21.6226 7.13386Z" stroke="white"/>
<path d="M38.7604 7.591C38.6325 7.43801 38.5044 7.28523 38.375 7.13215C38.503 6.97646 38.6306 6.82109 38.759 6.6645C38.8031 6.71804 38.8471 6.77153 38.8912 6.82505C38.9759 6.92783 39.0606 7.03071 39.1458 7.13409C39.0182 7.28561 38.8902 7.43735 38.7604 7.591Z" stroke="white"/>
<path d="M39.9832 18.9661C40.0289 19.0068 40.0722 19.0488 40.113 19.0923C40.0269 19.0674 39.9403 19.0456 39.8535 19.0269C39.8965 19.0067 39.9397 18.9864 39.9832 18.9661Z" stroke="white"/>
<path d="M20.0804 18.9462C20.1305 18.9607 20.1966 18.9838 20.2783 19.0181C20.1572 19.0399 20.0368 19.0678 19.917 19.1023C19.9677 19.0477 20.0222 18.9957 20.0804 18.9462Z" stroke="white"/>
</svg>
