<svg width="24" height="24" viewBox="0 0 24 24" fill="none" xmlns="http://www.w3.org/2000/svg">
<path d="M12 0C5.37097 0 0 5.23964 0 11.7066C0 18.1735 5.37097 23.4131 12 23.4131C18.629 23.4131 24 18.1735 24 11.7066C24 5.23964 18.629 0 12 0ZM4.37419 8.28901C4.69839 7.45822 5.66613 7.02866 6.54677 7.25524L6.89032 7.34493L6.9871 7.00978C7.22903 6.15539 8.09032 5.55118 8.99516 5.69279C10.0306 5.85329 10.6597 6.83513 10.3887 7.79337L9.45 11.0929C9.39194 11.3053 9.16452 11.4328 8.94194 11.3761L5.54516 10.517C4.55806 10.2621 4.00161 9.24253 4.37419 8.28901ZM12 20.0145C9.06774 20.0145 5.49194 18.2066 5.04194 15.6103C4.94516 15.0533 5.4871 14.5955 6.04355 14.7654C7.50484 15.2233 9.67742 15.4829 12 15.4829C14.3226 15.4829 16.4952 15.2233 17.9565 14.7654C18.5081 14.5955 19.05 15.0533 18.9581 15.6103C18.5081 18.2066 14.9323 20.0145 12 20.0145ZM18.4548 10.5123L15.0581 11.3714C14.8403 11.4281 14.6129 11.3006 14.55 11.0882L13.6113 7.78865C13.3403 6.83041 13.9694 5.84857 15.0048 5.68807C15.9048 5.54646 16.7661 6.15067 17.0129 7.00506L17.1097 7.34021L17.4532 7.25052C18.3339 7.02866 19.3016 7.4535 19.6258 8.28429C19.9984 9.24253 19.4419 10.2621 18.4548 10.5123Z" fill="white"/>
</svg>
