<svg width="32" height="25" viewBox="0 0 32 25" fill="none" xmlns="http://www.w3.org/2000/svg">
<path d="M31.1169 5.66542L17.1698 0.22245C16.4098 -0.0741501 15.5898 -0.0741501 14.8303 0.22245L0.882753 5.66542C-0.294251 6.12461 -0.294251 8.10174 0.882753 8.56093L3.31426 9.5098C2.78076 10.3475 2.45276 11.3694 2.42026 12.4885C1.93876 12.8391 1.59976 13.4717 1.59976 14.2268C1.59976 14.9115 1.88376 15.4875 2.29276 15.8559L1.01625 23.1522C0.905254 23.7866 1.28525 24.3887 1.79676 24.3887H4.60227C5.11427 24.3887 5.49427 23.7866 5.38327 23.1522L4.10677 15.8559C4.51577 15.4875 4.79977 14.9115 4.79977 14.2268C4.79977 13.492 4.47627 12.8772 4.01677 12.5203C4.05477 11.5663 4.43877 10.7229 5.05127 10.1881L14.8298 14.0045C15.2828 14.1811 16.1518 14.4015 17.1693 14.0045L31.1169 8.56156C32.2944 8.10174 32.2944 6.12525 31.1169 5.66542ZM17.6393 15.9474C16.2128 16.5037 14.9973 16.1963 14.3598 15.9474L7.10878 13.1179L6.39978 20.324C6.39978 22.5691 10.6978 24.3887 15.9998 24.3887C21.3018 24.3887 25.5998 22.5691 25.5998 20.324L24.8908 13.1173L17.6393 15.9474Z" fill="white"/>
</svg>
